<?xml version="1.0" encoding="utf-8"?>
<!-- Generator: Adobe Illustrator 18.0.0, SVG Export Plug-In . SVG Version: 6.00 Build 0)  -->
<!DOCTYPE svg PUBLIC "-//W3C//DTD SVG 1.1//EN" "http://www.w3.org/Graphics/SVG/1.1/DTD/svg11.dtd">
<svg version="1.1" id="图层_1" xmlns="http://www.w3.org/2000/svg" xmlns:xlink="http://www.w3.org/1999/xlink" x="0px" y="0px"
	 viewBox="0 0 216 132" enable-background="new 0 0 216 132" xml:space="preserve">
<g>
	<path fill="#07A0A4" d="M150.047,52.817c-1.656-9.305-9.114-16.658-18.423-18.099c-0.616-0.095-0.69-0.32-0.689-0.842
		c0.014-6.165,0.01-12.331,0.008-18.496c0-1.475-0.747-2.23-2.208-2.23c-14.715-0.001-29.43,0.002-44.145-0.003
		c-2.406-0.001-4.804,0.002-7.155,0.654c-8.336,2.313-13.909,9.621-13.909,18.276c0,28.27,0,56.54,0,84.811
		c0,0.215-0.004,0.43,0.002,0.645c0.032,1.14,0.819,1.937,1.957,1.962c0.687,0.015,1.375,0.004,2.062,0.003
		c1.743,0,2.424-0.674,2.424-2.401c0-14.264,0-28.528,0-42.792c0-14.135-0.005-28.27,0.002-42.405
		c0.003-6.737,5.498-12.284,12.242-12.296c13.899-0.025,27.798-0.005,41.696-0.019c0.486-0.001,0.6,0.123,0.598,0.602
		c-0.02,4.404-0.012,8.807-0.012,13.211c0,1.271,0,1.271-1.254,1.543c-10.198,2.206-17.592,11.383-17.573,21.8
		c0.001,0.419,0.02,0.64,0.565,0.639c14.543-0.018,29.087-0.017,43.63-0.003c0.478,0,0.56-0.162,0.551-0.588
		C150.392,55.453,150.281,54.131,150.047,52.817z"/>
	<path fill="#07A0A4" d="M108.718,70.638c0.815,0.012,1.631,0.013,2.446,0c1.175-0.019,1.969-0.814,1.989-1.989
		c0.013-0.751,0.002-1.502,0.002-2.253c0-0.751,0.009-1.502-0.002-2.253c-0.017-1.181-0.804-1.985-1.973-2.006
		c-0.837-0.015-1.674-0.016-2.51,0c-1.137,0.022-1.942,0.819-1.955,1.956c-0.017,1.523-0.016,3.047,0,4.57
		C106.728,69.833,107.538,70.621,108.718,70.638z"/>
	<path fill="#07A0A4" d="M129.475,62.142c-0.9-0.03-1.803-0.027-2.703-0.002c-1.063,0.03-1.862,0.83-1.878,1.899
		c-0.023,1.566-0.023,3.133,0,4.699c0.016,1.067,0.818,1.865,1.881,1.895c0.879,0.025,1.76,0.023,2.639,0.002
		c1.097-0.026,1.887-0.829,1.913-1.932c0.018-0.75,0.003-1.502,0.003-2.253c-0.001-0.815,0.021-1.631-0.006-2.446
		C131.291,62.971,130.506,62.177,129.475,62.142z"/>
	<path fill="#07A0A4" d="M148.169,62.143c-0.9-0.031-1.803-0.027-2.703-0.002c-1.064,0.03-1.865,0.828-1.881,1.896
		c-0.023,1.566-0.023,3.133,0,4.699c0.016,1.068,0.816,1.867,1.878,1.898c0.879,0.025,1.76,0.023,2.639,0.002
		c1.098-0.026,1.89-0.827,1.916-1.93c0.018-0.772,0.003-1.545,0.004-2.317c0-0.751,0-1.502,0-2.253c0-0.043,0-0.086-0.002-0.129
		C149.966,62.974,149.2,62.178,148.169,62.143z"/>
	<path fill="#07A0A4" d="M113.155,76.855c-0.035-1.136-0.822-1.933-1.959-1.956c-0.836-0.016-1.674-0.016-2.51,0
		c-1.168,0.021-1.961,0.825-1.971,2.007c-0.013,1.502-0.014,3.004,0.001,4.506c0.011,1.174,0.814,1.97,1.989,1.988
		c0.815,0.013,1.631,0.012,2.446,0c1.207-0.018,1.99-0.817,2.005-2.039c0.009-0.729,0.002-1.459,0.002-2.189s0-1.459,0-2.188
		C113.156,76.94,113.156,76.897,113.155,76.855z"/>
	<path fill="#07A0A4" d="M126.741,83.393c0.9,0.03,1.803,0.027,2.703,0.002c1.063-0.029,1.864-0.829,1.88-1.896
		c0.023-1.566,0.023-3.133,0-4.699c-0.016-1.068-0.815-1.867-1.879-1.898c-0.879-0.026-1.76-0.023-2.639-0.002
		c-1.098,0.026-1.889,0.827-1.915,1.931c-0.018,0.772-0.004,1.545-0.004,2.317c0,0.751,0,1.502,0,2.253c0,0.043,0,0.086,0.002,0.129
		C124.945,82.564,125.711,83.359,126.741,83.393z"/>
	<path fill="#07A0A4" d="M148.118,74.901c-0.879-0.023-1.76-0.023-2.639,0c-1.067,0.028-1.875,0.821-1.893,1.884
		c-0.025,1.566-0.023,3.133-0.002,4.699c0.015,1.097,0.827,1.889,1.93,1.913c0.836,0.018,1.674,0.014,2.51,0.002
		c1.177-0.018,1.974-0.811,1.994-1.984c0.013-0.751,0.002-1.502,0.002-2.253c0-0.772,0.013-1.545-0.003-2.317
		C149.996,75.738,149.212,74.93,148.118,74.901z"/>
	<path fill="#07A0A4" d="M111.191,87.66c-0.836-0.016-1.674-0.016-2.51,0c-1.141,0.021-1.951,0.813-1.965,1.946
		c-0.019,1.523-0.016,3.047-0.001,4.57c0.011,1.172,0.817,1.966,1.993,1.984c0.815,0.013,1.631,0.012,2.446,0
		c1.179-0.018,1.978-0.809,1.999-1.979c0.014-0.751,0.003-1.502,0.002-2.253c0-0.772,0.013-1.545-0.003-2.317
		C113.128,88.477,112.33,87.682,111.191,87.66z"/>
	<path fill="#07A0A4" d="M129.418,87.662c-0.879-0.022-1.76-0.024-2.639,0.001c-1.065,0.03-1.868,0.826-1.885,1.892
		c-0.024,1.566-0.024,3.133,0,4.699c0.016,1.095,0.832,1.882,1.939,1.905c0.858,0.018,1.717,0.019,2.575-0.001
		c1.099-0.026,1.893-0.825,1.92-1.926c0.019-0.772,0.004-1.545,0.004-2.317s0.014-1.545-0.003-2.317
		C131.303,88.494,130.514,87.69,129.418,87.662z"/>
	<path fill="#07A0A4" d="M148.11,87.662c-0.879-0.022-1.76-0.024-2.639,0.001c-1.065,0.03-1.868,0.826-1.885,1.892
		c-0.024,1.566-0.024,3.133,0,4.699c0.016,1.095,0.832,1.882,1.939,1.905c0.858,0.018,1.717,0.019,2.575-0.001
		c1.099-0.026,1.893-0.825,1.92-1.926c0.019-0.772,0.004-1.545,0.004-2.317s0.014-1.545-0.003-2.317
		C149.994,88.494,149.206,87.69,148.11,87.662z"/>
	<path fill="#07A0A4" d="M111.195,100.422c-0.836-0.017-1.674-0.016-2.51,0c-1.168,0.021-1.954,0.825-1.972,2.007
		c-0.011,0.751-0.002,1.502-0.002,2.253c0,0.751-0.01,1.502,0.003,2.253c0.02,1.174,0.815,1.969,1.99,1.988
		c0.815,0.013,1.631,0.012,2.446,0c1.18-0.017,1.99-0.806,2.002-1.975c0.016-1.523,0.017-3.047-0.001-4.57
		C113.138,101.241,112.333,100.445,111.195,100.422z"/>
	<path fill="#07A0A4" d="M129.444,100.425c-0.879-0.026-1.76-0.023-2.639-0.002c-1.098,0.027-1.898,0.828-1.912,1.932
		c-0.02,1.545-0.02,3.09,0,4.634c0.014,1.103,0.816,1.904,1.914,1.93c0.858,0.021,1.717,0.018,2.575,0.001
		c1.133-0.023,1.925-0.825,1.947-1.965c0.015-0.751,0.003-1.502,0.002-2.253c0-0.794,0.017-1.588-0.005-2.382
		C131.297,101.255,130.508,100.456,129.444,100.425z"/>
	<path fill="#07A0A4" d="M148.14,100.426c-0.879-0.026-1.76-0.023-2.639-0.002c-1.099,0.026-1.892,0.825-1.919,1.927
		c-0.019,0.772-0.004,1.545-0.004,2.317s-0.014,1.545,0.003,2.317c0.025,1.104,0.815,1.908,1.911,1.935
		c0.879,0.021,1.76,0.023,2.639-0.001c1.063-0.03,1.867-0.827,1.883-1.893c0.024-1.566,0.023-3.133,0-4.699
		C150.001,101.258,149.203,100.457,148.14,100.426z"/>
</g>
</svg>
