<?xml version="1.0" encoding="utf-8"?>
<!-- Generator: Adobe Illustrator 19.0.0, SVG Export Plug-In . SVG Version: 6.00 Build 0)  -->
<svg version="1.1" id="图层_1" xmlns="http://www.w3.org/2000/svg" xmlns:xlink="http://www.w3.org/1999/xlink" x="0px" y="0px"
	 viewBox="0 0 1024 1024" enable-background="new 0 0 1024 1024" xml:space="preserve">
<path fill="#07A0A4" d="M65.817,293.975c0.283-4.387,3.019-9.071,8.678-11.646c6.073-2.763,11.765-1.659,16.558,2.855
	c6.882,6.481,13.623,13.116,20.309,19.8C243.887,437.5,376.411,570.016,508.823,702.645c3.406,3.412,4.965,3.363,8.34-0.018
	C649.46,570.118,781.867,437.719,914.274,305.32c6.451-6.451,13.014-12.79,19.561-19.144c6.937-6.733,16.041-7.025,22.137-0.745
	c5.524,5.691,5.73,15.413-1.094,22.206c-54.826,54.57-109.247,109.548-164.217,163.972c-89.418,88.528-178,177.893-267.136,266.702
	c-2.243,2.235-4.407,4.533-7.623,5.367c-3.814,0.989-7.246,0.176-10.24-2.322c-1.398-1.166-2.653-2.505-3.944-3.796
	c-84.397-84.393-168.562-169.02-253.264-253.106C189.434,425.865,130.82,366.875,71.814,308.277
	C68.242,304.729,65.653,300.946,65.817,293.975z"/>
</svg>
