<?xml version="1.0" encoding="utf-8"?>
<!-- Generator: Adobe Illustrator 19.0.0, SVG Export Plug-In . SVG Version: 6.00 Build 0)  -->
<svg version="1.1" id="图层_1" xmlns="http://www.w3.org/2000/svg" xmlns:xlink="http://www.w3.org/1999/xlink" x="0px" y="0px"
	 viewBox="0 0 1024 1024" enable-background="new 0 0 1024 1024" xml:space="preserve">
<path fill="#07A0A4" d="M725.201,914.052c-0.362,5.575-3.05,10.27-8.69,12.905c-5.623,2.627-11.012,1.714-15.931-1.865
	c-1.594-1.159-2.896-2.727-4.303-4.135C564.463,789.118,432.653,657.276,300.843,525.434c-8.187-8.189-8.177-12.643,0.045-20.867
	c131.927-131.96,263.853-263.921,395.794-395.866c1.868-1.868,3.759-3.801,5.939-5.253c6.795-4.523,14.784-3.518,19.822,2.257
	c5.189,5.947,5.085,14.278-0.629,20.313c-6.503,6.869-13.252,13.506-19.941,20.197c-48.59,48.607-97.167,97.226-145.796,145.795
	c-73.176,73.085-146.373,146.148-219.65,219.132c-2.918,2.907-3.487,4.346-0.194,7.627
	c70.433,70.197,140.693,140.567,211.044,210.847c51.091,51.039,102.267,101.993,153.395,152.995
	c6.463,6.447,12.842,12.98,19.299,19.434C723.153,905.226,725.125,908.91,725.201,914.052z"/>
</svg>
