<?xml version="1.0" encoding="utf-8"?>
<!-- Generator: Adobe Illustrator 18.0.0, SVG Export Plug-In . SVG Version: 6.00 Build 0)  -->
<!DOCTYPE svg PUBLIC "-//W3C//DTD SVG 1.1//EN" "http://www.w3.org/Graphics/SVG/1.1/DTD/svg11.dtd">
<svg version="1.1" id="图层_1" xmlns="http://www.w3.org/2000/svg" xmlns:xlink="http://www.w3.org/1999/xlink" x="0px" y="0px"
	 viewBox="0 0 216 132" enable-background="new 0 0 216 132" xml:space="preserve">
<path fill="#07A0A4" d="M163.282,12.869c-36.759,0.028-73.517,0.028-110.276-0.001c-1.365-0.001-2.264,0.954-2.263,2.249
	c0.029,34.138,0.029,68.275,0,102.413c-0.001,1.283,0.888,2.25,2.265,2.247c18.368-0.035,36.737-0.023,55.106-0.023
	c18.39,0,36.78-0.011,55.17,0.023c1.325,0.002,2.231-0.963,2.23-2.217c-0.028-34.159-0.028-68.318,0-102.477
	C165.515,13.843,164.622,12.868,163.282,12.869z M130.511,19.325c4.662,0.018,9.324,0.011,13.986,0.011
	c4.641,0,9.281,0.007,13.921-0.011c0.488-0.002,0.643,0.101,0.642,0.623c-0.019,7.584-0.019,15.167,0,22.751
	c0.001,0.522-0.153,0.624-0.642,0.623c-9.302-0.014-18.605-0.014-27.907,0c-0.467,0.001-0.611-0.093-0.609-0.591
	c0.018-7.605,0.018-15.21,0-22.815C129.901,19.42,130.043,19.323,130.511,19.325z M92.516,19.326
	c10.119,0.014,20.237,0.014,30.356,0c0.467-0.001,0.614,0.093,0.61,0.591c-0.026,2.964-0.026,5.929,0,8.894
	c0.004,0.498-0.143,0.593-0.61,0.591c-5.07-0.017-10.14-0.011-15.21-0.011c-5.049,0-10.097-0.007-15.146,0.011
	c-0.488,0.002-0.648-0.1-0.643-0.623c0.028-2.943,0.028-5.887,0-8.829C91.868,19.425,92.028,19.325,92.516,19.326z M57.198,19.948
	c-0.001-0.523,0.154-0.624,0.642-0.623c9.002,0.014,18.003,0.014,27.005,0c0.468-0.001,0.61,0.095,0.609,0.591
	c-0.018,7.605-0.018,15.21,0,22.815c0.001,0.497-0.142,0.593-0.609,0.591c-4.511-0.018-9.023-0.011-13.535-0.011
	c-4.49,0-8.98-0.008-13.47,0.011c-0.489,0.002-0.643-0.102-0.642-0.624C57.217,35.116,57.217,27.532,57.198,19.948z M57.197,50.403
	c-0.002-0.549,0.152-0.658,0.675-0.657c8.98,0.017,17.96,0.016,26.94,0.002c0.489-0.001,0.642,0.102,0.641,0.624
	c-0.017,10.591-0.017,21.183,0,31.774c0.001,0.522-0.154,0.624-0.642,0.623c-8.98-0.014-17.96-0.015-26.94,0.002
	c-0.525,0.001-0.677-0.109-0.675-0.658c0.023-5.306,0.014-10.613,0.014-15.919C57.211,60.93,57.22,55.666,57.197,50.403z
	 M85.454,112.696c0.001,0.522-0.154,0.624-0.642,0.623c-9.002-0.014-18.003-0.014-27.005,0c-0.468,0.001-0.61-0.094-0.609-0.591
	c0.018-7.648,0.018-15.296,0-22.944c-0.001-0.497,0.142-0.593,0.609-0.591c4.511,0.018,9.023,0.011,13.535,0.011
	c4.49,0,8.98,0.007,13.47-0.011c0.489-0.002,0.643,0.101,0.642,0.623C85.436,97.443,85.436,105.069,85.454,112.696z M123.48,112.68
	c0.004,0.49-0.104,0.644-0.625,0.641c-5.07-0.022-10.14-0.013-15.21-0.013c-5.049,0-10.097-0.009-15.146,0.013
	c-0.523,0.002-0.627-0.154-0.624-0.642c0.022-2.9,0.022-5.8,0-8.701c-0.004-0.469,0.097-0.609,0.592-0.608
	c10.14,0.016,20.28,0.016,30.42,0c0.497-0.001,0.595,0.141,0.592,0.609C123.458,106.88,123.458,109.78,123.48,112.68z
	 M123.484,96.26c0.002,0.585-0.16,0.691-0.709,0.69c-10.076-0.017-20.152-0.017-30.228,0c-0.524,0.001-0.675-0.109-0.674-0.657
	c0.016-17.445,0.016-34.89,0-52.335c0-0.549,0.15-0.658,0.674-0.658c10.076,0.017,20.152,0.017,30.228,0
	c0.548-0.001,0.71,0.105,0.709,0.69c-0.022,8.722-0.015,17.445-0.015,26.167C123.469,78.858,123.462,87.559,123.484,96.26z
	 M122.871,36.878c-5.087-0.017-10.173-0.01-15.26-0.01c-5.022,0-10.045-0.009-15.067,0.013c-0.528,0.002-0.724-0.113-0.671-0.661
	c0.03-0.314,0.125-0.42,0.419-0.384c0.085,0.01,0.172,0.001,0.257,0.001c10.088,0,20.175,0,30.263,0.003
	c0.309,0,0.679-0.146,0.677,0.452C123.488,36.791,123.333,36.879,122.871,36.878z M159.06,112.696
	c0.001,0.523-0.154,0.624-0.642,0.623c-9.302-0.014-18.605-0.014-27.907,0c-0.468,0.001-0.61-0.095-0.609-0.591
	c0.018-7.648,0.018-15.296,0-22.944c-0.001-0.497,0.142-0.593,0.609-0.591c4.662,0.018,9.324,0.011,13.986,0.011
	c4.641,0,9.281,0.007,13.921-0.011c0.489-0.002,0.643,0.102,0.642,0.624C159.041,97.443,159.041,105.07,159.06,112.696z
	 M159.047,66.266c0,5.263-0.007,10.527,0.011,15.79c0.002,0.53-0.077,0.72-0.68,0.718c-9.259-0.024-18.519-0.022-27.778-0.002
	c-0.566,0.001-0.701-0.132-0.7-0.699c0.019-10.549,0.02-21.097-0.002-31.645c-0.001-0.602,0.186-0.682,0.717-0.681
	c9.238,0.016,18.476,0.017,27.714-0.002c0.586-0.001,0.735,0.144,0.732,0.731C159.037,55.739,159.047,61.002,159.047,66.266z"/>
</svg>
