<?xml version="1.0" encoding="utf-8"?>
<!-- Generator: Adobe Illustrator 18.0.0, SVG Export Plug-In . SVG Version: 6.00 Build 0)  -->
<!DOCTYPE svg PUBLIC "-//W3C//DTD SVG 1.1//EN" "http://www.w3.org/Graphics/SVG/1.1/DTD/svg11.dtd">
<svg version="1.1" id="图层_1" xmlns="http://www.w3.org/2000/svg" xmlns:xlink="http://www.w3.org/1999/xlink" x="0px" y="0px"
	 viewBox="0 0 216 132" enable-background="new 0 0 216 132" xml:space="preserve">
<g>
	<path fill="#07A0A4" d="M53.121,19.336c36.669,0,73.337,0,110.006,0c0.129,0,0.258,0.002,0.387-0.001
		c1.17-0.031,1.957-0.825,1.976-2.008c0.01-0.666,0.002-1.332,0.002-1.998c0-1.773-0.67-2.438-2.452-2.438
		c-18.281,0-36.561,0-54.842,0s-36.561,0-54.842,0c-0.236,0-0.473-0.007-0.709,0.004c-0.875,0.041-1.636,0.555-1.781,1.407
		c-0.206,1.204-0.23,2.445,0.009,3.645C51.07,18.924,51.854,19.336,53.121,19.336z"/>
	<path fill="#07A0A4" d="M163.219,21.633c-18.346,0.036-36.693,0.024-55.039,0.024c-18.432,0-36.865,0-55.297,0
		c-1.361,0-2.117,0.747-2.117,2.091c0,26.66,0,53.32,0,79.981c0,1.328,0.75,2.102,2.04,2.103c2.342,0.002,4.683,0.018,7.025-0.012
		c0.558-0.007,0.754,0.1,0.748,0.716c-0.034,3.673-0.018,7.347-0.016,11.021c0.001,1.432,0.759,2.197,2.171,2.197
		c4.082,0.001,8.164,0.001,12.245,0c1.317,0,2.081-0.757,2.082-2.061c0.002-3.738,0.013-7.476-0.013-11.214
		c-0.004-0.548,0.148-0.659,0.674-0.658c20.172,0.014,40.345,0.014,60.517,0.001c0.539,0,0.72,0.089,0.715,0.685
		c-0.033,3.695-0.019,7.39-0.016,11.085c0.001,1.388,0.771,2.163,2.14,2.164c4.082,0.001,8.164,0.001,12.245,0
		c1.358,0,2.113-0.748,2.113-2.095c0.001-3.738,0.012-7.476-0.013-11.214c-0.003-0.523,0.153-0.629,0.642-0.624
		c2.384,0.025,4.771-0.052,7.153,0.035c1.405,0.052,2.298-0.943,2.296-2.283c-0.031-26.553-0.031-53.106,0-79.659
		C165.517,22.581,164.628,21.63,163.219,21.633z M70.621,112.931c0.001,0.261-0.054,0.388-0.352,0.383
		c-0.966-0.015-1.933-0.02-2.9,0.002c-0.356,0.008-0.366-0.171-0.365-0.436c0.008-1.117,0.003-2.234,0.003-3.351
		c0-1.053,0.016-2.105-0.008-3.157c-0.009-0.397,0.068-0.569,0.518-0.55c0.879,0.038,1.761,0.019,2.642,0.007
		c0.296-0.004,0.469,0.022,0.466,0.401C70.608,108.463,70.614,110.697,70.621,112.931z M87.278,99.399
		c-9.818-0.017-19.636-0.017-29.454,0C57.301,99.4,57.2,99.246,57.2,98.758c0.014-9.947,0.014-19.894,0-29.841
		c-0.001-0.468,0.095-0.609,0.591-0.609c9.84,0.016,19.679,0.017,29.519,0c0.497-0.001,0.593,0.142,0.591,0.609
		c-0.017,4.984-0.01,9.968-0.01,14.953c0,4.963-0.007,9.926,0.011,14.888C87.903,99.247,87.799,99.4,87.278,99.399z M87.901,61.246
		c0.002,0.489-0.102,0.642-0.624,0.642c-9.818-0.017-19.636-0.017-29.454,0c-0.522,0.001-0.624-0.154-0.623-0.642
		c0.014-10.828,0.014-21.656-0.002-32.483c-0.001-0.524,0.109-0.675,0.657-0.674c9.797,0.019,19.593,0.019,29.39,0
		c0.549-0.001,0.659,0.151,0.657,0.675c-0.02,5.414-0.013,10.828-0.013,16.242S87.884,55.832,87.901,61.246z M121.933,98.655
		c0.001,0.557-0.098,0.749-0.715,0.748c-8.722-0.023-17.445-0.022-26.167-0.002c-0.592,0.001-0.729-0.153-0.728-0.734
		c0.015-23.289,0.015-46.577,0.002-69.866c0-0.536,0.085-0.717,0.683-0.715c8.744,0.024,17.488,0.023,26.232,0.002
		c0.572-0.001,0.697,0.141,0.696,0.702c-0.018,11.644-0.014,23.289-0.014,34.933S121.918,87.011,121.933,98.655z M148.586,113.314
		c-0.902-0.015-1.805-0.024-2.706,0.003c-0.39,0.012-0.518-0.088-0.507-0.496c0.03-1.095,0.01-2.191,0.01-3.286
		c0-1.053,0.026-2.106-0.012-3.157c-0.017-0.47,0.142-0.573,0.579-0.556c0.879,0.034,1.761,0.021,2.642,0.004
		c0.302-0.006,0.408,0.081,0.406,0.396c-0.012,2.234-0.012,4.468,0,6.702C149,113.246,148.881,113.319,148.586,113.314z
		 M158.434,99.399c-9.818-0.017-19.636-0.017-29.454,0c-0.522,0.001-0.624-0.154-0.623-0.642c0.014-9.947,0.014-19.894,0-29.841
		c-0.001-0.468,0.095-0.609,0.591-0.609c9.84,0.016,19.679,0.017,29.519,0c0.497-0.001,0.593,0.142,0.591,0.609
		c-0.017,4.984-0.011,9.968-0.011,14.953c0,4.963-0.007,9.926,0.011,14.888C159.059,99.247,158.956,99.4,158.434,99.399z
		 M158.418,61.885c-9.818-0.014-19.636-0.014-29.454,0c-0.467,0.001-0.61-0.094-0.609-0.591c0.016-10.871,0.016-21.741,0-32.612
		c-0.001-0.496,0.141-0.592,0.609-0.591c9.818,0.014,19.636,0.016,29.454-0.005c0.579-0.001,0.641,0.196,0.64,0.692
		c-0.017,5.414-0.011,10.828-0.011,16.242s-0.008,10.828,0.013,16.242C159.062,61.784,158.907,61.886,158.418,61.885z"/>
</g>
</svg>
