<?xml version="1.0" encoding="utf-8"?>
<!-- Generator: Adobe Illustrator 18.0.0, SVG Export Plug-In . SVG Version: 6.00 Build 0)  -->
<!DOCTYPE svg PUBLIC "-//W3C//DTD SVG 1.1//EN" "http://www.w3.org/Graphics/SVG/1.1/DTD/svg11.dtd">
<svg version="1.1" id="图层_1" xmlns="http://www.w3.org/2000/svg" xmlns:xlink="http://www.w3.org/1999/xlink" x="0px" y="0px"
	 viewBox="0 0 216 132" enable-background="new 0 0 216 132" xml:space="preserve">
<g>
	<path fill="#07A0A4" d="M54.176,18.84c0.356,0.375,0.719,0.507,1.231,0.507c35.06-0.012,70.12-0.011,105.18-0.011
		c0.107,0,0.216-0.011,0.322,0.002c0.278,0.034,0.481-0.069,0.679-0.27c1.161-1.178,2.331-2.348,3.509-3.509
		c0.201-0.199,0.275-0.402,0.272-0.679c-0.015-1.238-0.856-1.989-2.262-1.989c-18.346-0.001-36.693-0.001-55.039-0.001
		c-14.157,0-28.314,0-42.471,0c-4.253,0-8.507,0.004-12.761-0.005c-0.533-0.001-1.025,0.087-1.454,0.416
		c-0.886,0.68-0.973,1.754-0.205,2.522C52.179,16.827,53.2,17.813,54.176,18.84z"/>
	<path fill="#07A0A4" d="M161.986,113.872c-0.379-0.357-0.5-0.725-0.5-1.234c0.011-29.645,0.002-59.291,0.034-88.936
		c0.002-1.437-0.928-2.328-2.316-2.326c-34.092,0.03-68.184,0.03-102.276,0c-1.398-0.001-2.319,0.897-2.318,2.325
		c0.031,29.624,0.023,59.247,0.032,88.871c0,0.461-0.109,0.797-0.451,1.125c-1.101,1.055-2.16,2.154-3.251,3.22
		c-0.238,0.233-0.32,0.472-0.307,0.795c0.051,1.199,0.886,1.914,2.27,1.914c18.367,0.001,36.734,0,55.102,0
		c18.281,0,36.563,0,54.844,0c0.236,0,0.474,0.011,0.709-0.007c0.588-0.046,1.068-0.302,1.42-0.779
		c0.562-0.761,0.506-1.487-0.158-2.152C163.878,115.746,162.954,114.785,161.986,113.872z M128.355,28.424
		c-0.002-0.497,0.142-0.593,0.609-0.591c4.254,0.018,8.507,0.011,12.761,0.011c4.232,0,8.464,0.008,12.697-0.011
		c0.489-0.002,0.644,0.101,0.642,0.624c-0.021,5.349-0.021,10.699,0,16.048c0.002,0.523-0.154,0.624-0.642,0.623
		c-8.486-0.014-16.972-0.014-25.458,0c-0.468,0.001-0.611-0.094-0.609-0.591C128.375,39.166,128.375,33.795,128.355,28.424z
		 M61.066,28.462c-0.002-0.51,0.135-0.63,0.635-0.63c8.486,0.016,16.972,0.015,25.458,0.002c0.457-0.001,0.618,0.077,0.616,0.584
		c-0.021,5.371-0.02,10.742-0.001,16.113c0.002,0.487-0.125,0.6-0.603,0.598c-4.254-0.02-8.507-0.012-12.761-0.012
		c-4.232,0-8.464-0.007-12.697,0.01c-0.477,0.002-0.651-0.084-0.648-0.617C61.087,39.161,61.086,33.811,61.066,28.462z
		 M87.775,112.534c0,0.548-0.149,0.659-0.674,0.658c-8.443-0.018-16.886-0.018-25.33,0c-0.548,0.001-0.71-0.104-0.709-0.69
		c0.021-10.055,0.015-20.109,0.015-30.164c0-10.033,0.006-20.066-0.015-30.099c-0.001-0.585,0.159-0.692,0.708-0.69
		c8.443,0.018,16.886,0.018,25.33,0c0.524-0.001,0.675,0.109,0.674,0.657C87.759,72.316,87.759,92.425,87.775,112.534z
		 M121.164,113.194c-8.766-0.022-17.531-0.02-26.296-0.002c-0.525,0.001-0.674-0.11-0.674-0.658c0.015-28.015,0.015-56.03,0-84.046
		c0-0.549,0.151-0.658,0.674-0.657c8.787,0.017,17.574,0.018,26.361,0c0.55-0.001,0.709,0.107,0.708,0.691
		c-0.019,14.008-0.015,28.015-0.015,42.023c0,13.965-0.005,27.929,0.016,41.894C121.939,113.075,121.77,113.196,121.164,113.194z
		 M155.064,112.534c0,0.548-0.148,0.659-0.674,0.658c-8.443-0.018-16.886-0.018-25.33,0c-0.548,0.001-0.71-0.103-0.709-0.69
		c0.021-10.054,0.015-20.109,0.015-30.163c0-10.033,0.006-20.066-0.015-30.099c-0.001-0.584,0.158-0.692,0.708-0.691
		c8.443,0.018,16.886,0.018,25.33,0c0.524-0.001,0.675,0.108,0.675,0.657C155.048,72.316,155.048,92.425,155.064,112.534z"/>
	<path fill="#07A0A4" d="M70.35,37.634c2.79,0.018,5.581,0.016,8.371,0.001c1.134-0.006,1.925-0.823,1.947-1.964
		c0.015-0.794,0.008-1.588,0.002-2.382c-0.01-1.3-0.787-2.083-2.084-2.091c-1.352-0.008-2.704-0.002-4.057-0.001
		c-1.374,0-2.747-0.011-4.121,0.004c-1.147,0.013-1.953,0.803-1.978,1.934c-0.019,0.858-0.019,1.717,0,2.576
		C68.456,36.812,69.25,37.627,70.35,37.634z"/>
	<path fill="#07A0A4" d="M137.652,37.639c1.331,0.009,2.662,0.002,3.992,0.002c1.417-0.001,2.833,0.014,4.25-0.005
		c1.105-0.015,1.906-0.814,1.932-1.913c0.021-0.858,0.018-1.717,0.001-2.576c-0.023-1.134-0.823-1.94-1.965-1.946
		c-2.769-0.014-5.538-0.014-8.307,0c-1.166,0.006-1.951,0.826-1.968,2.01c-0.011,0.794-0.01,1.588-0.001,2.382
		C135.602,36.844,136.393,37.63,137.652,37.639z"/>
</g>
</svg>
