<?xml version="1.0" encoding="utf-8"?>
<!-- Generator: Adobe Illustrator 18.0.0, SVG Export Plug-In . SVG Version: 6.00 Build 0)  -->
<!DOCTYPE svg PUBLIC "-//W3C//DTD SVG 1.1//EN" "http://www.w3.org/Graphics/SVG/1.1/DTD/svg11.dtd">
<svg version="1.1" id="图层_1" xmlns="http://www.w3.org/2000/svg" xmlns:xlink="http://www.w3.org/1999/xlink" x="0px" y="0px"
	 viewBox="0 0 216 132" enable-background="new 0 0 216 132" xml:space="preserve">
<g>
	<path fill="#07A0A4" d="M164.743,26.251c0.004-1.42-0.958-2.302-2.28-2.299c-16.607,0.036-33.214,0.024-49.821,0.024
		c-0.172,0-0.344-0.004-0.516,0.002c-1.104,0.039-1.9,0.822-1.929,1.924c-0.019,0.687-0.005,1.375-0.005,2.062
		c0,1.788,0.662,2.457,2.433,2.457c14.953,0,29.906,0.004,44.858-0.015c0.629-0.001,0.808,0.122,0.807,0.789
		c-0.02,28.488-0.017,56.975-0.017,85.463c0,0.215-0.005,0.43,0.002,0.645c0.038,1.104,0.822,1.9,1.922,1.93
		c0.687,0.019,1.375,0.005,2.062,0.005c1.789,0,2.458-0.662,2.458-2.432c0-15.082,0-30.163,0-45.245
		C164.719,56.458,164.704,41.355,164.743,26.251z"/>
	<path fill="#07A0A4" d="M162.655,20.365c1.258-0.002,2.049-0.798,2.062-2.05c0.008-0.795-0.004-1.59,0.003-2.384
		c0.004-0.446-0.117-0.848-0.377-1.206c-0.495-0.684-1.2-0.808-1.992-0.808c-36.153,0.007-72.306,0.006-108.459,0.006
		c-0.129,0-0.258-0.002-0.387,0.001c-1.141,0.033-1.938,0.818-1.964,1.955c-0.015,0.687-0.004,1.375-0.004,2.062
		c0,1.744,0.675,2.426,2.399,2.426c18.066,0,36.132,0,54.197,0c13.877,0,27.754,0,41.631,0
		C154.062,20.367,158.359,20.371,162.655,20.365z"/>
	<path fill="#07A0A4" d="M103.827,23.953c-16.671,0.036-33.342,0.037-50.013,0c-1.422-0.003-2.302,0.959-2.299,2.28
		c0.037,15.103,0.024,30.205,0.024,45.308c0,15.167,0.012,30.334-0.023,45.502c-0.003,1.256,0.906,2.221,2.23,2.218
		c16.693-0.034,33.385-0.035,50.078,0.001c1.372,0.003,2.267-0.961,2.266-2.247c-0.029-30.27-0.03-60.54,0-90.81
		C106.09,24.901,105.184,23.95,103.827,23.953z M98.944,112.809c-6.724-0.024-13.449-0.016-20.173-0.016
		c-6.703,0-13.406-0.009-20.109,0.016c-0.585,0.002-0.692-0.16-0.69-0.709c0.021-5.779,0.02-11.558,0-17.337
		c-0.002-0.525,0.109-0.675,0.658-0.674c13.449,0.017,26.898,0.017,40.346,0c0.549-0.001,0.659,0.15,0.658,0.674
		c-0.02,5.779-0.021,11.558,0,17.337C99.636,112.649,99.529,112.811,98.944,112.809z M99.634,87.009
		c0.001,0.546-0.145,0.66-0.672,0.659c-13.427-0.016-26.855-0.016-40.282,0c-0.544,0.001-0.712-0.099-0.711-0.688
		c0.022-9.324,0.016-18.648,0.016-27.972c0-9.303,0.006-18.605-0.015-27.908c-0.001-0.581,0.154-0.693,0.707-0.692
		c13.427,0.016,26.855,0.016,40.282,0.001c0.521-0.001,0.677,0.104,0.676,0.655C99.618,49.713,99.618,68.361,99.634,87.009z"/>
	<path fill="#07A0A4" d="M93.946,56.724c-0.858-0.019-1.717-0.019-2.575,0c-1.105,0.025-1.917,0.817-1.926,1.918
		c-0.02,2.275-0.018,4.55-0.001,6.825c0.008,1.134,0.823,1.927,1.963,1.948c0.815,0.015,1.631,0.011,2.447,0.002
		c1.218-0.015,2.014-0.804,2.027-2.017c0.012-1.116,0.002-2.232,0.003-3.348c0-1.095,0-2.189,0-3.284c0-0.021,0-0.043-0.001-0.064
		C95.852,57.556,95.076,56.749,93.946,56.724z"/>
	<path fill="#07A0A4" d="M82.214,97.713c-1.159-0.009-2.318-0.002-3.477-0.001c-1.202,0.001-2.404-0.015-3.606,0.005
		c-1.105,0.019-1.903,0.815-1.93,1.915c-0.021,0.858-0.018,1.717-0.001,2.575c0.023,1.134,0.825,1.937,1.967,1.944
		c2.382,0.014,4.765,0.015,7.147,0c1.14-0.007,1.94-0.813,1.964-1.947c0.017-0.815,0.011-1.631,0.002-2.447
		C84.266,98.507,83.474,97.723,82.214,97.713z"/>
</g>
</svg>
