<?xml version="1.0" encoding="utf-8"?>
<!-- Generator: Adobe Illustrator 18.0.0, SVG Export Plug-In . SVG Version: 6.00 Build 0)  -->
<!DOCTYPE svg PUBLIC "-//W3C//DTD SVG 1.1//EN" "http://www.w3.org/Graphics/SVG/1.1/DTD/svg11.dtd">
<svg version="1.1" id="图层_1" xmlns="http://www.w3.org/2000/svg" xmlns:xlink="http://www.w3.org/1999/xlink" x="0px" y="0px"
	 viewBox="0 0 216 132" enable-background="new 0 0 216 132" xml:space="preserve">
<g>
	<path fill="#07A0A4" d="M95.905,76.423c0.016,0.124,0.036,0.246,0.182,0.288c0.02-0.095,0.05-0.189,0.057-0.285
		c0.006-0.082-0.014-0.166-0.023-0.25C96.048,76.259,95.977,76.341,95.905,76.423z"/>
	<path fill="#07A0A4" d="M164.854,27.446c0.001-0.895-0.353-1.53-1.055-2.026c-0.42-0.297-0.894-0.464-1.38-0.606
		c-2.785-0.814-5.572-1.62-8.355-2.442c-4.518-1.335-9.033-2.679-13.549-4.021c-5.02-1.492-10.037-2.991-15.059-4.473
		c-0.945-0.279-1.859-0.703-2.87-0.704c-9.931-0.003-19.862-0.001-29.793-0.007c-0.576,0-1.128,0.078-1.678,0.248
		c-1.709,0.527-3.423,1.033-5.133,1.555c-4.546,1.386-9.092,2.772-13.635,4.165c-4.103,1.258-8.203,2.526-12.305,3.788
		c-2.191,0.674-4.39,1.322-6.572,2.02c-1.655,0.53-2.233,1.365-2.233,3.068c-0.002,23.257,0,46.514-0.016,69.771
		c-0.001,0.972,0.098,1.844,0.933,2.481c0.174,0.133,0.314,0.33,0.427,0.523c1.717,2.93,4.086,5.208,6.909,7.07
		c2.272,1.498,4.598,2.878,7.104,3.952c2.166,0.928,4.339,1.824,6.583,2.555c4.492,1.462,9.07,2.543,13.723,3.346
		c6.14,1.06,12.327,1.593,18.549,1.711c7.156,0.136,14.279-0.28,21.364-1.347c6.198-0.933,12.28-2.318,18.176-4.465
		c4.426-1.612,8.686-3.572,12.468-6.417c2.394-1.8,4.612-3.802,6.091-6.481c0.069-0.125,0.164-0.26,0.283-0.329
		c0.811-0.472,1.023-1.199,1.022-2.089c-0.012-11.786-0.008-23.573-0.008-35.36C164.844,51.104,164.839,39.275,164.854,27.446z
		 M75.779,109.217c-1.926-0.656-3.807-1.251-5.611-2.057c-3.389-1.514-6.726-3.122-9.515-5.642c-0.978-0.884-2.01-1.723-2.719-2.869
		c-0.161-0.261-0.252-0.51-0.251-0.822c0.006-19.942,0.005-39.884,0.005-59.826c0-0.12,0-0.24,0-0.442
		c2.641,1.652,5.26,3.087,8.047,4.176c3.095,1.21,6.24,2.287,9.482,3.042c0.469,0.109,0.572,0.311,0.572,0.761
		c-0.011,21.017-0.01,42.034-0.01,63.051C75.779,108.776,75.779,108.962,75.779,109.217z M104.057,113.7
		c-4.024-0.141-8.038-0.427-12.03-0.96c-3.13-0.417-6.244-0.937-9.325-1.639c-0.342-0.078-0.537-0.198-0.473-0.578
		c0.017-0.102,0.003-0.21,0.003-0.316c0-21.021,0-42.042,0-63.063c0-0.25,0-0.501,0-0.797c2.224,0.41,4.405,0.732,6.591,1.027
		c3.364,0.455,6.742,0.751,10.128,0.956c1.809,0.11,3.622,0.168,5.433,0.225c0.368,0.011,0.563,0.087,0.496,0.492
		c-0.017,0.102-0.002,0.21-0.002,0.316c0,21.19,0.001,42.379-0.003,63.569C104.875,113.758,105.082,113.735,104.057,113.7z
		 M105.291,42.247c-6.284-0.114-12.539-0.602-18.753-1.588c-6.083-0.966-12.062-2.326-17.809-4.586
		c-2.985-1.173-5.885-2.513-8.389-4.572c-0.485-0.399-0.956-0.814-1.427-1.228c-0.248-0.217-0.229-0.332,0.12-0.438
		c6.741-2.049,13.479-4.11,20.217-6.168c4.344-1.327,8.689-2.651,13.032-3.984c0.407-0.125,0.811-0.19,1.238-0.189
		c9.403,0.005,18.806,0.003,28.209-0.005c0.303,0,0.583,0.065,0.865,0.149c5.968,1.777,11.935,3.557,17.903,5.332
		c4.535,1.349,9.072,2.693,13.609,4.036c1.081,0.32,2.166,0.628,3.311,0.96c-1.089,1.339-2.42,2.205-3.776,3.055
		c-3.402,2.131-7.125,3.515-10.93,4.688c-5.118,1.578-10.358,2.603-15.665,3.322C119.824,42.007,112.571,42.38,105.291,42.247z
		 M131.713,110.71c0.001,0.571-0.143,0.784-0.711,0.893c-6.031,1.156-12.112,1.858-18.251,2.047
		c-1.421,0.044-1.421,0.049-1.421-1.384c0-10.372,0-20.745,0-31.117c0-10.625,0.005-21.251-0.014-31.876
		c-0.001-0.583,0.161-0.716,0.723-0.73c6.156-0.158,12.283-0.663,18.371-1.599c0.411-0.063,0.965-0.296,1.201-0.118
		c0.271,0.205,0.085,0.789,0.085,1.207C131.699,68.925,131.696,89.817,131.713,110.71z M158.045,98.611
		c-1.401,2.157-3.421,3.631-5.514,5.023c-3.91,2.599-8.234,4.28-12.679,5.689c-0.539,0.171-1.081,0.332-1.625,0.499
		c-0.133-0.246-0.073-0.478-0.073-0.699c-0.003-20.997-0.001-41.994-0.017-62.991c0-0.555,0.169-0.725,0.694-0.847
		c5.34-1.243,10.55-2.859,15.466-5.348c1.387-0.702,2.705-1.505,4.096-2.383c0,0.286,0,0.487,0,0.688
		c0,19.732-0.001,39.464,0.009,59.196C158.402,97.885,158.282,98.245,158.045,98.611z"/>
	<path fill="#07A0A4" d="M99.057,74.038c-0.955-0.051-1.638,0.715-1.641,1.769c-0.007,2.192-0.008,4.385,0,6.577
		c0.004,1.046,0.705,1.812,1.661,1.749c1.065-0.07,1.76-0.629,1.754-1.737c-0.006-1.096-0.001-2.192-0.001-3.289
		c0-1.096-0.013-2.193,0.004-3.289C100.85,74.663,100.122,74.095,99.057,74.038z"/>
	<path fill="#07A0A4" d="M116.804,26.145c-0.326-0.367-0.726-0.639-1.155-0.87c-0.784-0.422-1.622-0.683-2.485-0.892
		c-4.114-0.994-8.221-0.976-12.317,0.079c-1.185,0.305-2.351,0.687-3.249,1.586c-0.757,0.757-0.754,1.568-0.007,2.33
		c0.652,0.665,1.476,1.059,2.341,1.33c2.346,0.735,4.757,1.078,7.218,1.047c2.311,0.029,4.581-0.272,6.8-0.908
		c1.055-0.302,2.076-0.72,2.847-1.558C117.44,27.59,117.435,26.854,116.804,26.145z"/>
	<path fill="#07A0A4" d="M98.068,29.747c-0.91-0.013-1.64,0.679-1.66,1.625c-0.023,1.072-0.024,2.146,0.001,3.217
		c0.022,0.915,0.73,1.593,1.615,1.606c0.91,0.013,1.628-0.678,1.662-1.624c0.019-0.525,0.003-1.051,0.003-1.577
		c0-0.547,0.017-1.094-0.004-1.641C99.649,30.439,98.953,29.76,98.068,29.747z"/>
	<path fill="#07A0A4" d="M116.925,29.748c-0.909-0.016-1.644,0.675-1.666,1.619c-0.024,1.072-0.024,2.146,0,3.217
		c0.021,0.917,0.724,1.596,1.609,1.611c0.91,0.016,1.632-0.675,1.667-1.619c0.019-0.525,0.003-1.051,0.003-1.577
		c0-0.547,0.017-1.094-0.004-1.64C118.501,30.443,117.81,29.764,116.925,29.748z"/>
	<path fill="#07A0A4" d="M103.995,32.151c-0.91-0.002-1.623,0.692-1.642,1.644c-0.021,1.051-0.02,2.103,0,3.154
		c0.018,0.953,0.726,1.648,1.636,1.649c0.911,0.002,1.613-0.692,1.643-1.644c0.017-0.525,0.003-1.052,0.003-1.577
		c0-0.526,0.013-1.052-0.003-1.577C105.604,32.848,104.905,32.153,103.995,32.151z"/>
	<path fill="#07A0A4" d="M111.216,32.151c-0.91-0.008-1.632,0.685-1.651,1.634c-0.022,1.051-0.02,2.103-0.001,3.154
		c0.017,0.957,0.716,1.652,1.627,1.66c0.911,0.008,1.621-0.685,1.653-1.633c0.018-0.525,0.003-1.052,0.003-1.577
		s0.012-1.052-0.003-1.577C112.817,32.855,112.127,32.159,111.216,32.151z"/>
	<path fill="#07A0A4" d="M117.405,74.028c-0.956-0.001-1.637,0.724-1.645,1.773c-0.009,1.073-0.002,2.147-0.002,3.22
		c0,1.116-0.006,2.231,0.002,3.346c0.008,1.054,0.682,1.776,1.64,1.777c0.958,0.001,1.641-0.722,1.645-1.772
		c0.008-2.189,0.008-4.378,0-6.567C119.041,74.754,118.361,74.029,117.405,74.028z"/>
</g>
</svg>
