<?xml version="1.0" encoding="utf-8"?>
<!-- Generator: Adobe Illustrator 18.0.0, SVG Export Plug-In . SVG Version: 6.00 Build 0)  -->
<!DOCTYPE svg PUBLIC "-//W3C//DTD SVG 1.1//EN" "http://www.w3.org/Graphics/SVG/1.1/DTD/svg11.dtd">
<svg version="1.1" id="图层_1" xmlns="http://www.w3.org/2000/svg" xmlns:xlink="http://www.w3.org/1999/xlink" x="0px" y="0px"
	 viewBox="0 0 1024 1024" enable-background="new 0 0 1024 1024" xml:space="preserve">
<path fill="#07A1A5" d="M600.631,757.016c-2.507,0.004-5.003,0.321-7.432,0.944l-174.761,45.062
	c-13.278,3.082-21.909,15.912-19.759,29.372c1.592,12.563,11.383,25.362,26.895,25.362c2.529-0.017,5.046-0.354,7.491-1.003
	l174.702-45.003c13.278-3.082,21.909-15.912,19.759-29.373C625.933,769.756,616.202,757.016,600.631,757.016z M558.872,851.268
	c-5.334,0.102-10.505,1.854-14.804,5.013c-11.619,7.962-22.767,12.386-33.088,12.976h-1.357c-7.05-0.391-13.914-2.41-20.054-5.898
	c-0.59-0.295-2.89-1.828-4.424-2.831c-4.247-2.831-5.426-3.598-6.842-3.775c-4.008-2.086-8.458-3.178-12.976-3.185
	c-12.867,0.135-24.337,8.14-28.901,20.172c-3.362,9.732-0.177,19.582,8.493,26.482c19.582,15.394,42.466,23.592,66.059,23.592
	c21.587,0,42.997-6.901,61.871-19.936c10.546-7.025,15.048-20.265,10.97-32.263c-3.775-12.15-13.802-20.289-24.949-20.289V851.268z
	 M708.389,359.366c-18.884-35.473-47.648-64.708-82.809-84.166c-33.824-18.444-71.769-28.021-110.294-27.839
	c-33.383,0-66.943,7.078-97.142,20.466c-31.497,13.845-59.357,34.8-81.394,61.222c-41.169,49.367-58.568,120.852-46.418,191.098
	c11.619,67.533,48.6,124.214,101.447,155.533c4.228,2.586,9.081,3.972,14.037,4.011c12.72-0.446,23.579-9.326,26.541-21.705
	c3.523-11.792-1.66-24.445-12.445-30.375c-70.659-41.877-90.772-142.734-68.831-212.214
	c21.292-67.356,86.466-112.654,162.198-112.654c31.909,0,62.992,8.257,89.828,23.887c36.332,21.115,62.284,56.327,73.136,99.147
	c11.769,45.798,4.762,94.399-19.464,135.008c-9.614,15.748-22.059,30.316-34.091,44.354c-7.727,8.965-15.748,18.284-23.003,27.898
	c-12.386,16.515-16.161,34.209-19.877,51.255l-2.005,9.142l-159.367,42.407c-13.333,3.19-21.933,16.142-19.7,29.667
	c1.651,12.445,11.324,25.126,26.718,25.126c2.591-0.02,5.169-0.376,7.668-1.062l124.332-33.088c4.6-1.239,9.142-2.359,13.448-3.421
	c34.032-8.375,60.868-15.04,63.994-64.171c1.121-17.34,15.984-33.619,29.137-47.834c3.362-3.716,6.547-7.137,9.437-10.617
	c15.807-18.461,35.448-43.587,47.893-73.254c26.306-62.638,21.646-132.884-12.976-197.763L708.389,359.366z M237.72,478.095
	c0-15.335-12.386-27.839-27.721-27.839h-54.027c-15.359,0-27.81,12.451-27.81,27.81c0,15.359,12.451,27.81,27.81,27.81h53.909
	c15.335,0,27.721-12.445,27.721-27.78H237.72z M866.694,450.256h-53.85c-15.359,0-27.81,12.451-27.81,27.81
	c0,15.359,12.451,27.81,27.81,27.81l0,0h53.85c15.359,0,27.81-12.451,27.81-27.81C894.503,462.707,882.053,450.256,866.694,450.256z
	 M279.597,284.342c11.578,10.117,29.165,8.932,39.281-2.646c9.167-10.491,9.167-26.144,0-36.636l-38.102-38.22
	c-11.578-10.117-29.165-8.932-39.281,2.646c-9.167,10.491-9.167,26.144,0,36.636C241.495,246.123,279.597,284.342,279.597,284.342z
	 M745.193,671.848c-11.578-10.117-29.165-8.932-39.281,2.646c-9.167,10.491-9.167,26.144,0,36.636l38.102,38.161
	c11.578,10.117,29.165,8.932,39.281-2.646c9.167-10.491,9.167-26.144,0-36.636L745.193,671.848z M512.395,208.434
	c15.335,0,27.721-12.445,27.721-27.78v-53.968c-0.707-15.326-13.704-27.178-29.03-26.471c-14.337,0.661-25.81,12.134-26.471,26.471
	v53.968c0,15.335,12.386,27.78,27.721,27.78H512.395z M318.878,671.848c-10.804-10.847-28.356-10.882-39.203-0.078
	c-0.026,0.026-0.052,0.052-0.078,0.078l-38.102,38.161c-10.847,10.847-10.847,28.434,0,39.281c10.847,10.847,28.434,10.847,39.281,0
	l38.102-38.102C329.73,700.32,329.73,682.716,318.878,671.848z M705.912,284.342c10.804,10.847,28.356,10.882,39.203,0.078
	c0.026-0.026,0.052-0.052,0.078-0.078l38.102-38.161c10.847-10.847,10.847-28.434,0-39.281c-10.847-10.847-28.434-10.847-39.281,0
	l-38.102,38.102C695.06,255.871,695.06,273.474,705.912,284.342z"/>
</svg>
