<?xml version="1.0" encoding="utf-8"?>
<!-- Generator: Adobe Illustrator 18.0.0, SVG Export Plug-In . SVG Version: 6.00 Build 0)  -->
<!DOCTYPE svg PUBLIC "-//W3C//DTD SVG 1.1//EN" "http://www.w3.org/Graphics/SVG/1.1/DTD/svg11.dtd">
<svg version="1.1" id="图层_1" xmlns="http://www.w3.org/2000/svg" xmlns:xlink="http://www.w3.org/1999/xlink" x="0px" y="0px"
	 viewBox="0 0 1024 1024" enable-background="new 0 0 1024 1024" xml:space="preserve">
<path fill="#07A0A4" d="M944.469,252.008c-214.83-0.01-429.659-0.01-644.489,0c-11.058,0-16.958,5.911-16.972,16.958
	c-0.026,19.666-0.144,39.334,0.102,58.998c0.053,4.216-1.09,5.149-5.205,5.136C226.571,332.948,175.239,333,123.906,333
	C117,333,117,333,117,326.274c0-67.166,0.009-134.331-0.009-201.497c-0.003-10.752-5.964-16.709-16.657-16.773
	c-4.666-0.028-9.333-0.005-14-0.005c-14.232,0.002-19.334,5.043-19.334,19.11C67,256.608,67,386.106,67,515.604
	c0,129.164,0,258.329,0,387.493c0,1.667-0.045,3.335,0.018,5c0.32,8.529,6.444,14.682,15.018,14.867
	c6.663,0.144,13.332,0.021,19.999,0.031c3.47,0.005,6.563-1.124,9.244-3.253c4.747-3.77,5.773-8.914,5.771-14.714
	c-0.061-172.164-0.029-344.328-0.159-516.491c-0.003-4.612,1.22-5.655,5.706-5.641c51.832,0.163,103.665,0.142,155.497,0.026
	c3.735-0.008,5.066,0.693,5.016,4.805c-0.242,19.663-0.112,39.331-0.107,58.998c0.003,12.804,5.435,18.273,18.161,18.274
	c60.666,0.004,121.331,0.039,181.997-0.086c3.869-0.008,4.964,0.906,4.939,4.88c-0.182,28.832-0.104,57.665-0.095,86.498
	c0.004,12.062,5.661,17.708,17.716,17.709c60.499,0.003,120.998,0.068,181.497-0.125c4.881-0.016,5.91,1.212,5.902,5.974
	c-0.157,92.165-0.118,184.33-0.115,276.495c0,10.895,5.702,16.654,16.494,16.655c77.831,0.004,155.663,0.004,233.494,0
	c11.047-0.001,17.002-5.876,17.003-16.886c0.01-196.163,0.01-392.327,0.001-588.49C959.993,258.11,953.932,252.008,944.469,252.008z
	 M910.113,817.487c0.004,4.661-1.294,5.627-5.732,5.614c-51.997-0.157-103.995-0.153-155.992-0.003
	c-4.233,0.012-5.517-0.779-5.509-5.342c0.16-92.162-0.008-184.325,0.303-276.487c0.034-10.05-6.976-17.525-17.567-17.458
	c-60.828,0.386-121.66,0.145-182.49,0.284c-4.07,0.009-5.265-0.845-5.235-5.103c0.207-29.331,0.117-58.663,0.105-87.995
	c-0.004-10.121-5.935-15.993-16.15-15.994c-61.164-0.007-122.328-0.052-183.491,0.1c-4.312,0.011-5.502-0.897-5.474-5.382
	c0.217-34.164,0.227-68.33-0.008-102.494c-0.032-4.602,1.336-5.326,5.533-5.321C432.734,302.028,527.063,302,621.392,302
	s188.658,0.031,282.987-0.098c4.432-0.006,5.738,0.944,5.734,5.609C909.979,477.503,909.979,647.495,910.113,817.487z"/>
</svg>
