<?xml version="1.0" encoding="utf-8"?>
<!-- Generator: Adobe Illustrator 18.0.0, SVG Export Plug-In . SVG Version: 6.00 Build 0)  -->
<!DOCTYPE svg PUBLIC "-//W3C//DTD SVG 1.1//EN" "http://www.w3.org/Graphics/SVG/1.1/DTD/svg11.dtd">
<svg version="1.1" id="图层_1" xmlns="http://www.w3.org/2000/svg" xmlns:xlink="http://www.w3.org/1999/xlink" x="0px" y="0px"
	 viewBox="0 0 216 132" enable-background="new 0 0 216 132" xml:space="preserve">
<g>
	<path fill="#07A0A4" d="M165.08,57.689c0.022-1.516-0.73-2.259-2.221-2.259c-7.382,0-14.764,0-22.146,0c-0.227,0-0.454,0-0.797,0
		c0.155-0.25,0.231-0.378,0.312-0.503c3.108-4.801,6.23-9.592,9.315-14.408c0.643-1.003,1.357-1.983,1.743-3.13
		c0.259-0.77,0.074-1.206-0.591-1.637c-11.189-7.24-22.377-14.481-33.573-21.709c-0.623-0.402-1.221-0.869-1.957-1.068
		c-0.758-0.206-1.153-0.065-1.581,0.585c-1.037,1.574-2.087,3.14-3.091,4.735c-0.261,0.414-0.5,0.508-0.967,0.401
		c-5.233-1.195-10.469-2.376-15.709-3.543c-1.85-0.412-3.68-0.894-5.509-1.392c-1.201-0.327-1.833,0.033-2.149,1.132
		c-3.818,13.259-7.64,26.517-11.435,39.782c-0.175,0.613-0.428,0.772-1.036,0.77c-7.019-0.023-14.039-0.016-21.058-0.013
		c-1.214,0-1.992,0.785-1.992,2.008c-0.001,19.872-0.001,39.744,0,59.616c0,1.422,0.758,2.182,2.176,2.182
		c36.718,0.001,73.435,0.001,110.153,0c1.213,0,1.984-0.785,1.989-2.011C165.032,97.38,164.799,77.534,165.08,57.689z
		 M115.889,21.692c0.317-0.485,0.509-0.48,0.959-0.188c8.599,5.58,17.207,11.146,25.825,16.696c0.457,0.295,0.467,0.47,0.181,0.91
		c-3.437,5.276-6.853,10.565-10.264,15.858c-0.203,0.315-0.402,0.472-0.804,0.472c-12.522-0.012-25.044-0.01-37.567-0.01
		c-0.106,0-0.211,0-0.444,0c1.526-2.326,2.98-4.543,4.434-6.76C104.107,39.68,110.009,30.694,115.889,21.692z M81.877,52.972
		c2.997-10.418,5.997-20.834,8.982-31.255c0.134-0.469,0.282-0.579,0.778-0.465c4.67,1.074,9.346,2.122,14.026,3.153
		c0.564,0.124,0.677,0.218,0.319,0.761c-5.162,7.833-10.302,15.681-15.446,23.525c-1.374,2.095-2.756,4.186-4.117,6.291
		c-0.208,0.322-0.423,0.465-0.817,0.458c-1.448-0.025-2.897-0.01-4.421-0.01C81.424,54.57,81.648,53.77,81.877,52.972z
		 M157.818,112.809c-16.685-0.02-33.369-0.016-50.054-0.016c-16.663,0-33.327-0.004-49.99,0.016
		c-0.632,0.001-0.751-0.168-0.751-0.774c0.018-16.478,0.017-32.957,0.002-49.435c-0.001-0.57,0.119-0.74,0.717-0.74
		c33.369,0.016,66.739,0.016,100.108,0c0.6,0,0.717,0.172,0.717,0.74c-0.015,16.478-0.016,32.957,0.002,49.435
		C158.57,112.643,158.448,112.81,157.818,112.809z"/>
	<path fill="#07A0A4" d="M138.689,76.184c-7.327-0.003-13.283,5.945-13.286,13.269c-0.003,7.328,5.943,13.282,13.268,13.286
		c7.356,0.004,13.282-5.943,13.286-13.332C151.961,82.141,145.986,76.187,138.689,76.184z M138.675,96.293
		c-3.765-0.002-6.835-3.082-6.827-6.852c0.008-3.735,3.071-6.802,6.804-6.812c3.771-0.01,6.855,3.056,6.859,6.821
		C145.515,93.218,142.442,96.294,138.675,96.293z"/>
</g>
</svg>
