<?xml version="1.0" encoding="utf-8"?>
<!-- Generator: Adobe Illustrator 18.0.0, SVG Export Plug-In . SVG Version: 6.00 Build 0)  -->
<!DOCTYPE svg PUBLIC "-//W3C//DTD SVG 1.1//EN" "http://www.w3.org/Graphics/SVG/1.1/DTD/svg11.dtd">
<svg version="1.1" id="图层_1" xmlns="http://www.w3.org/2000/svg" xmlns:xlink="http://www.w3.org/1999/xlink" x="0px" y="0px"
	 viewBox="0 0 216 132" enable-background="new 0 0 216 132" xml:space="preserve">
<g>
	<path fill="#07A0A4" d="M165.621,15.158c0-1.544-0.736-2.267-2.3-2.267c-17.166,0-34.331,0-51.497,0
		c-1.728,0-2.406,0.682-2.406,2.421c0,15.748,0,31.495,0,47.243c0,15.791,0.012,31.581-0.023,47.372
		c-0.003,1.268,0.875,2.263,2.269,2.246c5.112-0.062,10.226-0.018,15.339-0.036c0.474-0.002,0.614,0.103,0.604,0.595
		c-0.035,1.654-0.02,3.308-0.011,4.963c0.007,1.256,0.806,2.056,2.054,2.057c5.607,0.004,11.215,0.004,16.822,0
		c1.344-0.001,2.126-0.778,2.131-2.112c0.006-1.611,0.025-3.223-0.012-4.834c-0.012-0.528,0.112-0.676,0.658-0.673
		c4.705,0.024,9.41,0.014,14.115,0.014c1.512,0,2.255-0.738,2.256-2.246C165.621,78.321,165.621,46.739,165.621,15.158z
		 M141.552,113.318c-1.156-0.028-2.313-0.009-3.469-0.009s-2.314-0.029-3.469,0.013c-0.504,0.018-0.597-0.15-0.593-0.611
		c0.004-0.435,0.096-0.579,0.56-0.574c2.334,0.025,4.669,0.028,7.002-0.002c0.498-0.006,0.582,0.145,0.596,0.607
		C142.197,113.265,141.996,113.329,141.552,113.318z M158.646,105.712c-0.815-0.031-1.632-0.009-2.448-0.009
		c-0.773,0-1.548-0.024-2.319,0.009c-0.434,0.019-0.687-0.124-0.937-0.489c-3.665-5.346-7.359-10.672-11.017-16.022
		c-0.595-0.87-1.37-1.388-2.353-1.66c-2.954-0.818-5.904-1.647-8.865-2.44c-0.402-0.108-0.551-0.3-0.621-0.673
		c-0.472-2.507-0.96-5.012-1.438-7.518c-0.08-0.418,0.349-0.986,0.778-1.068c0.245-0.047,0.275,0.17,0.361,0.292
		c0.763,1.09,1.513,2.189,2.27,3.284c0.899,1.299,1.86,1.488,3.169,0.632c2.406-1.574,4.786-3.186,7.085-4.913
		c1.003-0.754,1.166-1.784,0.466-2.826c-0.754-1.122-1.54-2.223-2.291-3.347c-0.114-0.17-0.493-0.363-0.131-0.626
		c0.287-0.208,0.524-0.54,1-0.214c0.972,0.667,1.996,1.259,2.998,1.881c1.185,0.736,2.361,1.485,3.559,2.199
		c0.36,0.215,0.496,0.441,0.452,0.872c-0.3,2.968-0.551,5.941-0.867,8.907c-0.108,1.016,0.091,1.892,0.671,2.731
		c3.568,5.152,7.117,10.318,10.681,15.472c0.23,0.333,0.34,0.661,0.333,1.068c-0.021,1.31-0.026,2.621,0.003,3.93
		C159.196,105.616,159.06,105.728,158.646,105.712z M159.176,90.926c0,0.148,0,0.296,0,0.638c-2.181-3.163-4.249-6.166-6.323-9.165
		c-0.167-0.242-0.128-0.492-0.104-0.744c0.323-3.355,0.632-6.711,0.988-10.062c0.122-1.142-0.292-1.998-1.214-2.578
		c-3.523-2.218-7.064-4.409-10.605-6.597c-0.683-0.422-1.406-0.399-2.069,0.048c-1.709,1.152-3.414,2.311-5.097,3.499
		c-1.078,0.762-1.266,1.958-0.526,3.049c0.747,1.102,1.499,2.2,2.27,3.285c0.222,0.313,0.304,0.519-0.108,0.74
		c-0.579,0.311-1.106,1.099-1.643,0.974c-0.471-0.109-0.777-0.951-1.146-1.476c-0.494-0.703-0.971-1.417-1.467-2.118
		c-0.724-1.022-1.96-1.285-3.003-0.59c-1.697,1.131-3.366,2.303-5.049,3.455c-1.036,0.709-0.993,1.778-0.811,2.791
		c0.684,3.799,1.43,7.587,2.165,11.377c0.208,1.074,0.894,1.745,1.924,2.036c3.321,0.938,6.648,1.858,9.975,2.776
		c0.299,0.083,0.543,0.18,0.733,0.457c2.904,4.23,5.82,8.452,8.731,12.677c0.046,0.066,0.078,0.142,0.165,0.304
		c-0.271,0-0.473,0-0.676,0c-9.904,0-19.808-0.006-29.712,0.015c-0.603,0.001-0.722-0.171-0.722-0.74
		c0.014-28.316,0.014-56.632,0-84.948c0-0.547,0.102-0.71,0.689-0.709c13.986,0.02,27.972,0.018,41.958,0.005
		c0.495,0,0.693,0.059,0.693,0.639C159.173,43.618,159.176,67.272,159.176,90.926z"/>
	<path fill="#07A0A4" d="M106.582,62.524c0-15.831,0-31.662,0-47.493c0-1.398-0.739-2.14-2.132-2.14c-17.098,0-34.196,0-51.295,0
		c-1.514,0-2.26,0.737-2.26,2.242c-0.001,31.64-0.001,63.281,0,94.921c0,1.346,0.756,2.094,2.114,2.094
		c4.769,0.001,9.537,0.007,14.306-0.01c0.464-0.002,0.621,0.088,0.61,0.589c-0.037,1.61-0.016,3.222-0.013,4.833
		c0.003,1.429,0.759,2.192,2.179,2.193c5.563,0.002,11.127,0.002,16.69,0c1.369,0,2.137-0.778,2.14-2.166
		c0.004-1.59,0.036-3.18-0.017-4.768c-0.02-0.604,0.183-0.684,0.716-0.682c4.897,0.02,9.795-0.028,14.692,0.037
		c1.392,0.018,2.297-0.934,2.294-2.286C106.569,94.1,106.582,78.312,106.582,62.524z M82.014,113.323
		c-2.398-0.032-4.797-0.032-7.195,0c-0.528,0.007-0.464-0.27-0.466-0.595c-0.001-0.328-0.061-0.612,0.466-0.593
		c1.198,0.045,2.398,0.014,3.597,0.014s2.4,0.031,3.597-0.014c0.528-0.02,0.467,0.265,0.466,0.593
		C82.478,113.053,82.542,113.33,82.014,113.323z M99.379,105.718c-13.771-0.019-27.543-0.018-41.314-0.002
		c-0.57,0.001-0.74-0.12-0.74-0.722c0.017-28.316,0.017-56.632,0-84.948c0-0.604,0.171-0.723,0.74-0.722
		c13.793,0.016,27.586,0.016,41.378,0c0.549-0.001,0.709,0.106,0.708,0.69c-0.02,14.18-0.015,28.359-0.015,42.539
		c0,14.137-0.005,28.273,0.016,42.41C100.154,105.598,99.985,105.718,99.379,105.718z"/>
	<path fill="#07A0A4" d="M125.642,55.821c-0.794-0.017-1.588-0.009-2.383-0.003c-1.332,0.009-2.106,0.789-2.11,2.131
		c-0.006,1.782-0.001,3.563-0.001,5.345c0,1.825-0.009,3.649,0.004,5.474c0.009,1.179,0.808,1.979,1.98,1.998
		c0.837,0.014,1.674,0.016,2.511-0.001c1.133-0.023,1.941-0.826,1.945-1.967c0.012-3.671,0.012-7.341,0-11.012
		C127.585,56.647,126.776,55.845,125.642,55.821z"/>
	<path fill="#07A0A4" d="M93.428,55.821c-0.794-0.018-1.588-0.009-2.383-0.004c-1.339,0.008-2.118,0.783-2.122,2.119
		c-0.006,1.782-0.001,3.563-0.001,5.345c0,1.825-0.009,3.649,0.003,5.474c0.008,1.184,0.802,1.99,1.967,2.011
		c0.858,0.015,1.718,0.021,2.576-0.003c1.066-0.029,1.885-0.823,1.89-1.887c0.018-3.714,0.017-7.427,0.001-11.141
		C95.355,56.638,94.533,55.847,93.428,55.821z"/>
</g>
</svg>
