<?xml version="1.0" encoding="utf-8"?>
<!-- Generator: Adobe Illustrator 19.0.0, SVG Export Plug-In . SVG Version: 6.00 Build 0)  -->
<svg version="1.1" id="图层_1" xmlns="http://www.w3.org/2000/svg" xmlns:xlink="http://www.w3.org/1999/xlink" x="0px" y="0px"
	 viewBox="0 0 1024 1024" enable-background="new 0 0 1024 1024" xml:space="preserve">
<path fill="#07A0A4" d="M954.818,537.423c-58.209-57.732-115.97-115.911-174.151-173.672
	c-86.211-85.59-171.88-171.725-257.782-257.625c-8.359-8.359-13.459-8.33-21.892,0.099c-9.429,9.424-18.837,18.87-28.283,28.277
	c-79.828,79.493-159.118,159.525-239.201,238.764c-55.082,54.501-109.642,109.53-164.43,164.328c-2.11,2.111-4.27,4.157-5.203,7.178
	c-2.184,7.073,0.225,14.218,6.17,17.93c6.182,3.86,13.376,2.956,19.128-2.715c17.203-16.958,34.322-34.001,51.483-51.001
	c1.22-1.208,2.517-2.339,4.344-4.029c0,2.761,0,4.573,0,6.386c0,132.648,0,265.296,0.001,397.944
	c0,13.445,5.269,18.712,18.721,18.712c231.134,0.001,462.268,0.001,693.402,0c13.738,0,18.872-5.187,18.872-19.061
	c0.001-133.481,0-266.962,0-400.444c0-1.83,0-3.659,0-6.959c10.276,10.318,19.607,19.758,29.019,29.118
	c9.921,9.866,19.894,19.679,29.894,29.464c4.364,4.271,9.475,6.042,15.528,4.118c5.594-1.778,9.019-5.676,10.206-11.274
	C961.978,546.677,959.282,541.85,954.818,537.423z M840.415,898.104c-110.151-0.132-220.303-0.103-330.454-0.103
	c-109.817,0-219.634-0.033-329.45,0.114c-4.664,0.006-5.613-1.302-5.609-5.734c0.119-137.647,0.11-275.295,0.025-412.942
	c-0.002-3.437,0.966-5.818,3.404-8.253c109.876-109.768,219.7-219.587,329.422-329.509c3.297-3.303,4.862-3.647,8.372-0.129
	C624.884,250.544,733.768,359.42,842.701,468.244c2.45,2.448,3.371,4.847,3.369,8.269c-0.082,138.647-0.094,277.295,0.039,415.942
	C846.114,897.046,844.92,898.109,840.415,898.104z"/>
</svg>
