<?xml version="1.0" encoding="utf-8"?>
<!-- Generator: Adobe Illustrator 19.0.0, SVG Export Plug-In . SVG Version: 6.00 Build 0)  -->
<svg version="1.1" id="图层_1" xmlns="http://www.w3.org/2000/svg" xmlns:xlink="http://www.w3.org/1999/xlink" x="0px" y="0px"
	 viewBox="0 0 1024 1024" enable-background="new 0 0 1024 1024" xml:space="preserve">
<path fill="#07A0A4" d="M957.994,436.874c0-9.825-6.003-15.863-15.776-15.866c-43.166-0.014-86.332-0.014-129.498,0
	c-9.752,0.003-15.709,6.053-15.714,15.929c-0.014,28.5-0.005,56.999-0.005,85.499c0,4.833-0.111,9.67,0.045,14.498
	c0.078,2.398-0.717,3.176-3.113,3.113c-5.663-0.147-11.333-0.111-16.998-0.016c-2.247,0.037-2.712-0.686-2.447-2.934
	c2.068-17.527,3.97-35.075,5.944-52.613c3.52-31.271,7.063-62.539,10.58-93.811c1.768-15.719,3.507-31.441,5.245-47.163
	c0.242-2.19,0.635-3.599,3.614-3.241c27.255,3.277,54.526,6.416,81.802,9.511c6.558,0.744,13.149,2.299,19.636-0.789
	c4.422-2.105,8.168-5.152,11.995-8.058c7.691-5.841,8.754-13.548,3.068-21.363c-18.717-25.726-37.503-51.401-56.221-77.126
	c-2.818-3.873-6.418-6.012-11.221-6.574c-31.087-3.643-62.164-7.366-93.239-11.109c-42.976-5.176-85.945-10.417-128.924-15.571
	c-8.8-1.055-15.786,4.913-16.806,13.863c-1.828,16.04-3.967,32.047-5.598,48.107c-1.092,10.756-3.365,21.403-3.32,32.258
	c0.035,8.369,4.992,13.683,13.236,14.695c5.123,0.629,10.242,1.285,15.367,1.896c17.685,2.107,35.374,4.184,53.056,6.315
	c2.451,0.295,4.678,0.358,4.203,4.309c-3.255,27.111-6.231,54.256-9.3,81.389c-3.537,31.269-7.082,62.536-10.613,93.806
	c-1.14,10.093-2.186,20.197-3.434,30.277c-0.186,1.501,0.47,3.933-2.566,3.914c-9.882-0.062-19.764-0.023-30.31-0.023
	c1.264-2.184,2.063-3.607,2.901-5.005c8.39-13.991,16.741-28.006,25.202-41.954c3.555-5.861,4.107-11.659,1.161-18.011
	c-4.548-9.806-8.712-19.79-13.086-29.678c-8.14-18.403-16.3-36.797-24.481-55.182c-3.205-7.202-8.76-10.384-16.675-10.222
	c-11.328,0.232-22.665,0.049-33.998,0.062c-10.654,0.012-16.651,5.988-16.699,16.708c-0.045,10.166-0.14,20.336,0.068,30.498
	c0.064,3.143-0.873,3.993-3.924,3.859c-5.489-0.242-11.009-0.289-16.492,0.01c-3.594,0.196-4.883-0.626-4.769-4.555
	c0.308-10.658,0.179-21.331,0.079-31.996c-0.075-7.993-6.274-14.411-14.125-14.49c-12.665-0.128-25.333-0.094-37.999,0.005
	c-5.586,0.043-9.921,2.643-12.764,7.446c-1.52,2.569-2.845,5.272-4.047,8.007c-11.447,26.038-22.671,52.176-34.376,78.097
	c-3.371,7.464-2.989,13.831,1.264,20.693c9.192,14.831,18.011,29.893,27.494,45.713c-12.734,0-24.552-0.201-36.356,0.108
	c-4.185,0.11-5.189-1.023-5.167-5.179c0.179-35.499,0.116-70.998,0.092-106.498c-0.006-8.272-3.72-13.997-11.101-15.712
	c-3.768-0.875-3.945-2.71-3.937-5.753c0.081-29.333-0.275-58.671,0.236-87.995c0.164-9.431-6.765-17.201-17.374-17.151
	c-72.997,0.344-145.997,0.148-218.996,0.271c-3.917,0.007-4.941-0.981-4.913-4.906c0.185-25.498,0.095-50.999,0.095-76.498
	c0-11.8,0.001-11.693,11.943-11.76c3.193-0.018,4.453,0.775,5.265,4.139c7.846,32.511,37.063,55.824,70.484,55.878
	c89.498,0.146,178.998,0.15,268.496,0.001c35.549-0.059,65.935-26.131,71.668-61.132c0.554-3.382,1.846-3.928,4.778-3.869
	c7.83,0.157,15.666,0.112,23.498,0.037c9.486-0.091,15.674-6.199,15.856-15.555c0.055-2.832,0.044-5.667,0.005-8.5
	c-0.134-9.718-6.243-15.828-16.01-15.911c-7.999-0.069-16.002-0.116-23.998,0.041c-2.706,0.053-3.593-0.768-4.062-3.524
	c-6.137-36.024-36.199-61.467-72.885-61.503c-88.665-0.087-177.331-0.021-265.996-0.046c-5.191-0.001-10.322,0.46-15.376,1.562
	c-31.875,6.953-53.321,30.547-58.211,64.359c-0.499,3.45-1.533,4.243-4.839,4.179c-11.329-0.217-22.665-0.089-33.998-0.082
	c-10.866,0.006-16.612,5.719-16.613,16.537c-0.005,46.666-0.005,93.332,0,139.998c0.001,10.776,5.767,16.458,16.69,16.459
	c72.666,0.003,145.331,0.002,217.997,0.002c1.167,0,2.344,0.1,3.498-0.019c2.189-0.227,2.856,0.675,2.85,2.841
	c-0.064,21.5-0.037,42.999-0.042,64.499c0,1.312,0.056,2.234-1.803,2.853c-10.837,3.608-13.191,7.099-13.192,18.613
	c-0.002,34.666-0.108,69.333,0.128,103.998c0.032,4.624-1.368,5.333-5.545,5.313c-34.832-0.168-69.666-0.172-104.497,0.007
	c-4.13,0.021-5.219-0.948-5.194-5.146c0.191-32.498,0.109-64.998,0.103-97.498c-0.002-10.567-5.786-16.452-16.193-16.454
	c-42.833-0.008-85.665-0.008-128.498,0c-10.469,0.002-16.3,5.849-16.301,16.347C68,595.183,68,753.014,68.005,910.845
	c0,10.209,5.879,16.149,15.996,16.15c285.993,0.005,571.986,0.005,857.979,0c10.132,0,16.016-5.928,16.016-16.128
	C958,752.869,958.001,594.871,957.994,436.874z M223.001,174.919c0.019-16.425,9.57-25.911,26.145-25.916
	c44.48-0.011,88.96-0.004,133.441-0.004c42.648,0,85.295-0.005,127.943,0.003c17.178,0.003,26.458,9.339,26.47,26.594
	c0.004,5.997,0.016,11.995-0.002,17.992c-0.049,15.759-9.749,25.399-25.644,25.406C467.539,219.012,423.725,219,379.911,219
	c-43.481,0-86.961,0.005-130.442-0.002c-17.184-0.003-26.462-9.335-26.469-26.586C222.998,186.581,222.994,180.75,223.001,174.919z
	 M674.22,284.344c-8.417-0.996-16.868-1.755-25.321-2.377c-3.785-0.278-5.704-1.242-4.983-5.646
	c1.1-6.723,1.648-13.538,2.387-20.318c0.284-2.609,0.773-3.939,4.257-3.513c49.202,6.022,98.433,11.815,147.656,17.673
	c10.736,1.278,21.466,2.605,32.202,3.876c1.512,0.179,3.074,0.246,4.053,1.576c7.258,9.864,14.481,19.754,22.412,30.589
	c-8.227-0.935-15.254-1.699-22.272-2.537c-27.065-3.23-54.129-6.466-81.19-9.732C727.019,290.748,700.629,287.47,674.22,284.344z
	 M756.769,338.28c-3.454,29.926-6.837,59.86-10.226,89.794c-3.183,28.114-6.349,56.231-9.529,84.346
	c-0.879,7.773-2.06,15.524-2.562,23.32c-0.253,3.932-1.912,4.568-5.256,4.319c-3.479-0.26-6.993-0.058-10.491-0.058
	c-2.999,0-5.998,0-8.996,0c-6.199-0.001-6.326-0.015-5.606-6.402c4.155-36.882,8.402-73.753,12.564-110.634
	c3.173-28.116,6.303-56.237,9.372-84.365c0.779-7.14,0.75-7.146,7.637-6.153c6.746,0.973,13.517,1.822,20.303,2.452
	C756.424,335.126,757.043,335.908,756.769,338.28z M468.212,478.375c7.03-15.78,13.948-31.61,20.901-47.424
	c0.296,0.023,0.592,0.045,0.888,0.068c0,7.944-0.044,15.889,0.011,23.833c0.069,10.003,6.186,16.113,16.257,16.132
	c24.314,0.045,48.629,0.036,72.943,0.005c9.371-0.012,15.62-6.208,15.773-15.576c0.073-4.495,0.014-8.993,0.015-13.489
	c0-4.327,0-8.655,0-13.051c1.693,0.073,1.622,1.5,2.021,2.404c6.843,15.511,13.589,31.064,20.508,46.541
	c1.133,2.535,1.026,4.429-0.43,6.827c-10.278,16.917-20.43,33.91-30.528,50.935c-1.387,2.338-2.815,3.519-5.793,3.502
	c-25.146-0.143-50.294-0.134-75.441-0.01c-2.893,0.014-4.427-0.982-5.852-3.39c-10.164-17.179-20.426-34.301-30.772-51.37
	C467.462,482.248,467.224,480.594,468.212,478.375z M902.482,877.044C772.668,876.993,642.854,877,513.04,877
	c-129.815,0-259.629-0.024-389.444,0.101c-4.481,0.004-5.712-1.021-5.707-5.635c0.137-131.648,0.137-263.295-0.001-394.943
	c-0.005-4.636,1.25-5.705,5.72-5.633c16.66,0.271,33.329,0.253,49.99,0.007c4.211-0.062,5.565,0.735,5.531,5.331
	c-0.241,31.994-0.133,63.99-0.125,95.985c0.003,12.116,5.619,17.781,17.647,17.781c211.303,0.004,422.606,0.004,633.908,0.001
	c10.755,0,16.437-5.78,16.439-16.705c0.005-32.495,0.075-64.991-0.093-97.485c-0.02-3.939,1.012-4.953,4.92-4.903
	c17.161,0.221,34.328,0.192,51.491,0.016c3.53-0.036,4.788,0.568,4.784,4.526c-0.12,132.314-0.131,264.628,0.024,396.942
	C908.13,877.296,905.893,877.045,902.482,877.044z"/>
</svg>
