<?xml version="1.0" encoding="utf-8"?>
<!-- Generator: Adobe Illustrator 19.0.0, SVG Export Plug-In . SVG Version: 6.00 Build 0)  -->
<svg version="1.1" id="图层_1" xmlns="http://www.w3.org/2000/svg" xmlns:xlink="http://www.w3.org/1999/xlink" x="0px" y="0px"
	 viewBox="0 0 1024 1024" enable-background="new 0 0 1024 1024" xml:space="preserve">
<path fill="#07A0A4" d="M948.429,924.731c-2.46-8.109-4.002-16.502-6.582-24.567C893.456,748.907,793.79,648.337,643.071,598.397
	c-13.726-4.548-27.874-7.663-42.694-10.852c116.843-42.834,185.898-168.401,157.277-292.451
	c-25.574-110.841-122.337-191.856-237.502-194.88c-118.3-3.107-220.4,73.21-250.717,186.853
	c-14.685,55.046-11.042,109.374,11.298,161.853c28.16,66.151,76.767,111.652,144.08,138.664c-4.912,1.034-8.846,1.739-12.718,2.696
	C280.693,622.743,182.34,698.36,117.138,816.879c-18.699,33.989-31.715,70.273-40.614,108.044c-0.846,3.591,0.017,4.229,3.352,4.136
	c7.161-0.199,14.342-0.304,21.492,0.037c3.833,0.183,5.379-0.903,6.352-4.762c17.117-67.826,48.557-128.318,96.605-179.128
	C308.262,635.295,436.09,591.203,585.098,615.75c113.252,18.657,202.833,78.216,269.556,171.561
	c29.623,41.443,50.259,87.253,62.539,136.729c0.996,4.011,2.541,5.29,6.634,5.064c6.978-0.386,13.996-0.238,20.991-0.05
	C948.21,929.146,949.645,928.74,948.429,924.731z M512.483,573C390.066,572.974,290.991,473.883,291,351.484
	c0.009-122.39,99.131-221.496,221.52-221.484c122.395,0.012,221.491,99.126,221.48,221.52
	C733.989,473.918,634.864,573.026,512.483,573z"/>
</svg>
