<?xml version="1.0" encoding="utf-8"?>
<!-- Generator: Adobe Illustrator 18.0.0, SVG Export Plug-In . SVG Version: 6.00 Build 0)  -->
<!DOCTYPE svg PUBLIC "-//W3C//DTD SVG 1.1//EN" "http://www.w3.org/Graphics/SVG/1.1/DTD/svg11.dtd">
<svg version="1.1" id="图层_1" xmlns="http://www.w3.org/2000/svg" xmlns:xlink="http://www.w3.org/1999/xlink" x="0px" y="0px"
	 viewBox="0 0 216 132" enable-background="new 0 0 216 132" xml:space="preserve">
<g>
	<path fill="#07A0A4" d="M164.981,54.515c-4.605-3.379-9.181-6.797-13.776-10.188c-13.813-10.195-27.562-20.478-41.337-30.725
		c-1.19-0.886-2.155-0.889-3.34-0.007c-6.767,5.034-13.522,10.086-20.304,15.1c-7.519,5.559-14.96,11.222-22.543,16.696
		c-4.165,3.007-8.251,6.123-12.37,9.194c-1.095,0.816-1.254,1.82-0.476,2.951c0.436,0.635,0.872,1.271,1.333,1.889
		c0.709,0.952,1.796,1.128,2.77,0.456c0.457-0.315,0.896-0.656,1.459-1.07c0,0.379,0,0.63,0,0.881
		c0,19.319,0.011,38.639-0.023,57.958c-0.003,1.414,0.953,2.292,2.273,2.291c33.027-0.029,66.055-0.03,99.082,0
		c1.381,0.001,2.288-0.926,2.286-2.278c-0.034-19.341-0.023-38.682-0.023-58.023c0-0.242,0-0.485,0-0.829
		c0.538,0.397,0.961,0.719,1.395,1.026c1.031,0.728,2.116,0.558,2.863-0.455c0.419-0.568,0.821-1.15,1.226-1.728
		C166.358,56.39,166.216,55.421,164.981,54.515z M117.512,113.505c-6.212-0.019-12.424-0.019-18.636,0
		c-0.492,0.001-0.593-0.136-0.591-0.605c0.016-6.426,0.015-12.852,0.001-19.278c-0.001-0.436,0.09-0.577,0.555-0.575
		c6.233,0.016,12.467,0.016,18.7,0c0.46-0.001,0.561,0.131,0.559,0.572c-0.019,3.213-0.01,6.426-0.01,9.639s-0.01,6.426,0.011,9.639
		C118.103,113.359,118.01,113.506,117.512,113.505z M153.44,113.398c-0.309,0.269-1.017,0.092-1.549,0.093
		c-8.889,0.002-17.778-0.005-26.668,0.017c-0.601,0.001-0.722-0.169-0.721-0.738c0.019-7.99-0.01-15.979,0.036-23.969
		c0.007-1.286-0.969-2.198-2.177-2.193c-9.446,0.041-18.892,0.041-28.338,0c-1.203-0.005-2.183,0.902-2.176,2.195
		c0.045,8.011,0.017,16.022,0.035,24.033c0.001,0.525-0.113,0.672-0.657,0.671c-9.253-0.019-18.507-0.019-27.76,0
		c-0.548,0.001-0.656-0.152-0.655-0.673c0.017-9.703,0.012-19.406,0.012-29.11c0-9.532,0.013-19.064-0.022-28.596
		c-0.003-0.852,0.238-1.37,0.951-1.811c2.021-1.25,3.854-2.766,5.758-4.181c12.597-9.358,25.183-18.73,37.774-28.096
		c0.103-0.077,0.212-0.146,0.31-0.228c0.402-0.339,0.732-0.368,1.21-0.011c14.142,10.545,28.297,21.072,42.454,31.597
		c0.581,0.432,1.172,0.854,1.791,1.228c0.425,0.257,0.526,0.579,0.526,1.053c-0.012,19.042-0.009,38.085-0.015,57.127
		C153.557,112.353,153.803,113.081,153.44,113.398z"/>
	<path fill="#07A0A4" d="M122.28,63.109c-3.406-0.002-6.812-0.007-10.218,0.008c-0.411,0.002-0.545-0.096-0.538-0.526
		c0.026-1.628,0.038-3.257-0.005-4.883c-0.014-0.557,0.162-0.656,0.678-0.652c3.427,0.024,6.855,0.017,10.282,0.009
		c1.218-0.003,2.017-0.798,2.034-2.001c0.011-0.814,0.013-1.628-0.001-2.442c-0.02-1.17-0.816-1.962-1.994-1.977
		c-1.114-0.014-2.228-0.003-3.342-0.003c-0.736,0-1.472,0-2.349,0c0.28-0.301,0.449-0.487,0.623-0.667
		c1.661-1.731,3.329-3.455,4.982-5.194c0.929-0.977,0.901-2.052-0.055-2.998c-0.472-0.467-0.956-0.921-1.436-1.381
		c-1.164-1.117-2.144-1.105-3.259,0.056c-2.952,3.075-5.912,6.143-8.836,9.245c-0.435,0.461-0.724,0.436-1.111,0.046
		c-0.075-0.076-0.15-0.153-0.224-0.23c-1.571-1.64-3.141-3.28-4.712-4.919c-1.393-1.454-2.779-2.915-4.184-4.357
		c-0.804-0.825-1.885-0.89-2.702-0.159c-0.67,0.599-1.321,1.223-1.944,1.872c-0.738,0.769-0.754,1.802-0.075,2.62
		c0.232,0.28,0.496,0.533,0.748,0.796c1.643,1.715,3.288,3.429,5.053,5.271c-2.121,0-4.064-0.006-6.007,0.002
		c-1.289,0.005-2.066,0.794-2.077,2.09c-0.006,0.685-0.002,1.371-0.001,2.056c0.002,1.552,0.725,2.276,2.277,2.277
		c3.492,0.001,6.983,0.012,10.475-0.013c0.514-0.004,0.636,0.141,0.626,0.637c-0.032,1.585-0.034,3.171,0.001,4.755
		c0.011,0.518-0.099,0.681-0.653,0.677c-3.556-0.028-7.112-0.019-10.668-0.012c-1.256,0.003-2.043,0.795-2.057,2.045
		c-0.008,0.707-0.003,1.414-0.001,2.121c0.003,1.517,0.731,2.257,2.232,2.258c3.513,0.002,7.026,0.01,10.539-0.01
		c0.466-0.003,0.614,0.092,0.608,0.589c-0.028,2.485-0.021,4.969-0.009,7.454c0.006,1.176,0.808,1.97,1.98,1.989
		c0.792,0.013,1.585,0.005,2.378,0.003c1.428-0.005,2.19-0.755,2.192-2.169c0.004-2.399,0.018-4.799-0.012-7.197
		c-0.007-0.525,0.11-0.677,0.657-0.673c3.427,0.028,6.855,0.019,10.282,0.011c1.254-0.003,2.04-0.796,2.054-2.047
		c0.008-0.707,0.003-1.414,0.001-2.121C124.512,63.85,123.782,63.11,122.28,63.109z"/>
</g>
</svg>
