<?xml version="1.0" encoding="utf-8"?>
<!-- Generator: Adobe Illustrator 18.0.0, SVG Export Plug-In . SVG Version: 6.00 Build 0)  -->
<!DOCTYPE svg PUBLIC "-//W3C//DTD SVG 1.1//EN" "http://www.w3.org/Graphics/SVG/1.1/DTD/svg11.dtd">
<svg version="1.1" id="图层_1" xmlns="http://www.w3.org/2000/svg" xmlns:xlink="http://www.w3.org/1999/xlink" x="0px" y="0px"
	 viewBox="0 0 216 132" enable-background="new 0 0 216 132" xml:space="preserve">
<path fill="#07A0A4" d="M152.39,66.376c3.738,0.018,7.476,0.013,11.214,0.009c1.378-0.001,2.139-0.775,2.145-2.163
	c0.003-0.709,0.004-1.418,0-2.127c-0.007-1.381-0.773-2.15-2.156-2.153c-2.277-0.005-4.555-0.001-6.832-0.001
	c-0.745,0-1.49,0-2.238,0c-0.013-0.306,0.13-0.505,0.217-0.719c1.818-4.422,3.64-8.842,5.46-13.263
	c0.462-1.123,0.194-1.891-0.916-2.413c-0.891-0.419-1.804-0.801-2.733-1.128c-1.126-0.396-1.84-0.033-2.294,1.068
	c-2.182,5.292-4.372,10.581-6.536,15.88c-0.186,0.455-0.407,0.617-0.89,0.586c-0.706-0.044-1.419-0.044-2.126-0.001
	c-0.56,0.034-0.68-0.081-0.511-0.661c1.728-5.927,3.424-11.863,5.13-17.796c0.348-1.211,0.004-1.933-1.198-2.338
	c-0.934-0.314-1.884-0.588-2.842-0.817c-1.098-0.262-1.815,0.198-2.129,1.288c-1.88,6.53-3.77,13.057-5.62,19.596
	c-0.172,0.607-0.427,0.737-1.007,0.731c-2.75-0.031-5.5-0.014-8.25-0.014c-1.697,0-3.395-0.013-5.091,0.009
	c-0.396,0.005-0.536-0.098-0.501-0.501c0.035-0.405,0.038-0.819,0-1.223c-0.043-0.456,0.112-0.72,0.506-0.983
	c1.768-1.178,2.755-2.864,2.957-4.97c0.301-3.135-1.731-6.107-4.734-7.005c-3.067-0.917-6.315,0.431-7.855,3.261
	c-1.487,2.732-0.894,6.294,1.585,8.213c0.937,0.725,1.205,1.43,1.127,2.502c-0.039,0.529-0.1,0.717-0.696,0.713
	c-4.103-0.032-8.207-0.03-12.31-0.001c-0.576,0.004-0.696-0.147-0.695-0.705c0.02-7.82,0.015-15.64,0.011-23.46
	c-0.001-1.229,0.134-2.441,0.392-3.642c1.795-8.369,10.07-14.086,18.498-12.777c7.982,1.239,13.752,7.722,14.101,15.861
	c0.015,0.341,0.072,0.486,0.457,0.482c1.847-0.02,3.695-0.018,5.543-0.001c0.369,0.004,0.475-0.103,0.462-0.47
	c-0.044-1.204-0.164-2.396-0.37-3.583c-2.125-12.258-13.914-20.622-26.25-18.617c-11.083,1.802-19.254,11.388-19.272,22.615
	c-0.006,3.91-0.001,7.82-0.001,11.73c0,3.996,0,7.992,0,11.988c0,0.291,0.085,0.578-0.421,0.574
	c-3.029-0.023-6.058-0.017-9.087-0.004c-0.354,0.002-0.432-0.122-0.423-0.446c0.02-0.73,0.028-1.462-0.003-2.191
	c-0.016-0.383,0.118-0.553,0.47-0.705c4.085-1.767,6.333-5.747,5.747-10.136c-0.718-5.378-6.021-9.131-11.308-8.002
	c-4.214,0.9-7.223,4.271-7.636,8.555c-0.388,4.028,1.959,7.914,5.812,9.575c0.379,0.163,0.512,0.353,0.489,0.757
	c-0.036,0.643-0.049,1.292,0.003,1.932c0.043,0.543-0.133,0.668-0.667,0.666c-5.306-0.022-10.613-0.013-15.919-0.013
	c-3.566,0-7.133-0.003-10.699,0.002c-1.337,0.002-2.109,0.785-2.117,2.127c-0.005,0.816-0.021,1.633,0.007,2.449
	c0.035,1.035,0.822,1.809,1.855,1.863c0.236,0.012,0.473,0.004,0.709,0.004c27.22,0,54.439,0,81.659,0c0.266,0,0.532,0,0.844,0
	c-0.133,0.46-0.292,0.824-0.335,1.2c-0.082,0.723-0.448,0.879-1.146,0.879c-27.112-0.019-54.224-0.017-81.337-0.016
	c-1.368,0-2.127,0.741-2.127,2.081c-0.001,15.533-0.001,31.065,0,46.598c0,1.505,0.742,2.238,2.264,2.238
	c36.866,0.001,73.732,0.001,110.597,0c1.512,0,2.25-0.739,2.251-2.252c0.001-15.533,0.001-31.065,0-46.598
	c0-1.307-0.764-2.066-2.077-2.067c-3.953-0.001-7.906,0.001-11.859-0.004c-0.222,0-0.459,0.068-0.709-0.079
	c0.197-0.482,0.428-0.945,0.574-1.432C151.686,66.479,151.939,66.374,152.39,66.376z M82.976,50.916
	c-1.707-0.007-3.1-1.429-3.077-3.14c0.023-1.678,1.425-3.05,3.11-3.043c1.681,0.007,3.072,1.398,3.076,3.076
	C86.089,49.524,84.689,50.924,82.976,50.916z M56.944,75.426c-0.002-0.409,0.092-0.542,0.526-0.542
	c6.531,0.014,13.062,0.014,19.592,0c0.435-0.001,0.527,0.135,0.525,0.543c-0.017,2.75-0.021,5.5,0.002,8.249
	c0.004,0.49-0.103,0.646-0.625,0.642c-3.244-0.026-6.488-0.013-9.732-0.013c-3.222,0-6.445-0.008-9.667,0.009
	c-0.439,0.002-0.633-0.047-0.627-0.574C56.97,80.969,56.961,78.197,56.944,75.426z M77.589,99.274
	c0.004,0.49-0.102,0.646-0.624,0.642c-3.244-0.027-6.488-0.013-9.732-0.013c-3.222,0-6.445-0.013-9.667,0.013
	c-0.523,0.004-0.628-0.153-0.624-0.643c0.023-2.664,0.019-5.328,0.002-7.991c-0.003-0.409,0.091-0.543,0.525-0.542
	c6.531,0.014,13.062,0.014,19.592,0c0.435-0.001,0.527,0.134,0.525,0.542C77.57,93.946,77.566,96.61,77.589,99.274z M76.933,112.931
	c-3.222-0.017-6.445-0.009-9.667-0.009c-3.244,0-6.488-0.012-9.732,0.013c-0.496,0.004-0.6-0.139-0.593-0.609
	c0.028-1.826,0.022-3.652,0.003-5.478c-0.004-0.383,0.08-0.511,0.492-0.51c6.552,0.014,13.104,0.014,19.657,0
	c0.41-0.001,0.497,0.124,0.493,0.509c-0.019,1.826-0.034,3.653,0.007,5.478C77.606,112.877,77.395,112.933,76.933,112.931z
	 M104.213,112.932c-6.552-0.014-13.104-0.013-19.657-0.001c-0.407,0.001-0.549-0.088-0.543-0.524c0.025-1.847,0.025-3.695,0-5.542
	c-0.006-0.436,0.136-0.526,0.543-0.524c3.287,0.015,6.574,0.009,9.861,0.009c3.265,0,6.531,0.009,9.796-0.01
	c0.439-0.002,0.584,0.093,0.576,0.558c-0.028,1.825-0.028,3.652,0,5.478C104.796,112.839,104.652,112.933,104.213,112.932z
	 M84.012,99.274c0.023-2.664,0.019-5.328,0.002-7.992c-0.003-0.408,0.09-0.543,0.525-0.542c6.574,0.014,13.148,0.014,19.721,0
	c0.435-0.001,0.528,0.134,0.525,0.542c-0.017,2.664-0.021,5.328,0.002,7.992c0.004,0.489-0.102,0.646-0.624,0.642
	c-3.265-0.027-6.531-0.013-9.796-0.013c-3.244,0-6.488-0.013-9.732,0.013C84.114,99.92,84.008,99.763,84.012,99.274z
	 M104.788,83.748c0.003,0.452-0.114,0.57-0.567,0.568c-3.265-0.02-6.531-0.011-9.796-0.011c-3.244,0-6.488-0.011-9.732,0.012
	c-0.509,0.004-0.692-0.081-0.685-0.648c0.034-2.728,0.028-5.457,0.003-8.185c-0.004-0.482,0.118-0.602,0.6-0.601
	c6.531,0.017,13.062,0.016,19.592,0.003c0.426-0.001,0.589,0.072,0.585,0.549C104.765,78.205,104.767,80.977,104.788,83.748z
	 M122.18,112.591c-0.072,0.255-0.2,0.335-0.454,0.334c-3.37-0.006-6.739-0.008-10.109,0.002c-0.309,0.001-0.401-0.095-0.399-0.402
	c0.012-1.932,0.013-3.863-0.001-5.795c-0.002-0.323,0.12-0.389,0.413-0.388c4.077,0.007,8.153,0.005,12.335,0.005
	C123.354,108.477,122.761,110.532,122.18,112.591z M128.309,91.276c-0.793,2.693-1.573,5.389-2.324,8.094
	c-0.125,0.45-0.326,0.544-0.757,0.542c-4.467-0.016-8.934-0.016-13.401,0c-0.452,0.002-0.625-0.067-0.619-0.581
	c0.03-2.663,0.027-5.326,0.002-7.989c-0.004-0.476,0.107-0.609,0.596-0.605c2.684,0.026,5.369,0.013,8.053,0.013
	s5.369,0.01,8.053-0.01C128.378,90.737,128.434,90.849,128.309,91.276z M130.421,83.935c-0.09,0.314-0.261,0.375-0.555,0.375
	c-6.058-0.007-12.117-0.008-18.175,0.002c-0.354,0.001-0.479-0.08-0.477-0.458c0.016-2.836,0.02-5.672-0.003-8.507
	c-0.004-0.461,0.212-0.456,0.544-0.456c3.266,0.007,6.531,0.004,9.797,0.004c3.244,0,6.488,0.009,9.732-0.01
	c0.441-0.003,0.648,0.097,0.565,0.56c-0.008,0.042-0.006,0.086,0,0.129C132.208,78.503,131.206,81.2,130.421,83.935z
	 M142.103,66.612c0.06-0.218,0.211-0.228,0.393-0.227c0.642,0.005,1.284,0.011,1.925-0.002c0.311-0.006,0.389,0.1,0.244,0.373
	c-0.01,0.019-0.02,0.038-0.027,0.058c-0.624,1.756-0.787,1.843-3.041,1.581C141.768,67.795,141.941,67.205,142.103,66.612z
	 M138.95,77.547c0.136-0.451,0.262-0.905,0.392-1.358c0.388-1.352,0.388-1.352,1.953-1.264c-0.973,2.369-1.933,4.704-2.929,7.128
	C138.067,80.421,138.518,78.986,138.95,77.547z M138.306,99.171c0.02-0.145,0.086-0.286,0.142-0.424
	c1.028-2.497,2.065-4.992,3.081-7.494c0.148-0.366,0.327-0.514,0.745-0.513c5.456,0.016,10.912,0.015,16.368,0.002
	c0.404-0.001,0.548,0.083,0.545,0.522c-0.021,2.706-0.02,5.413,0,8.119c0.003,0.43-0.127,0.53-0.539,0.528
	c-3.308-0.016-6.616-0.009-9.924-0.009c-3.265,0-6.53-0.025-9.795,0.021C138.253,99.933,138.243,99.635,138.306,99.171z
	 M158.595,112.935c-3.287-0.025-6.574-0.013-9.861-0.013s-6.574-0.012-9.861,0.013c-0.496,0.004-0.6-0.14-0.592-0.609
	c0.028-1.826,0.022-3.652,0.003-5.478c-0.004-0.384,0.081-0.511,0.492-0.51c6.638,0.014,13.276,0.014,19.915,0
	c0.411-0.001,0.497,0.125,0.493,0.509c-0.019,1.826-0.025,3.652,0.003,5.478C159.194,112.794,159.093,112.939,158.595,112.935z
	 M158.674,74.887c0.378-0.002,0.515,0.073,0.512,0.489c-0.02,2.81-0.022,5.621,0.002,8.431c0.004,0.465-0.181,0.507-0.561,0.505
	c-2.274-0.014-4.548-0.007-6.822-0.007c-2.253,0-4.506-0.018-6.758,0.012c-0.598,0.008-0.605-0.15-0.402-0.634
	c1.161-2.763,2.3-5.536,3.43-8.312c0.138-0.338,0.291-0.489,0.687-0.487C152.066,74.902,155.37,74.9,158.674,74.887z"/>
</svg>
