<?xml version="1.0" encoding="utf-8"?>
<!-- Generator: Adobe Illustrator 19.0.0, SVG Export Plug-In . SVG Version: 6.00 Build 0)  -->
<svg version="1.1" id="图层_1" xmlns="http://www.w3.org/2000/svg" xmlns:xlink="http://www.w3.org/1999/xlink" x="0px" y="0px"
	 viewBox="0 0 1024 1024" enable-background="new 0 0 1024 1024" xml:space="preserve">
<path fill="#07A0A4" d="M311.132,928.54c-7.234-0.006-12.832-3.611-15.026-9.076c-2.482-6.183-1.228-11.795,3.33-16.525
	c6.45-6.693,13.046-13.247,19.619-19.822c48.597-48.611,97.178-97.237,145.813-145.81c72.833-72.74,145.675-145.471,218.654-218.063
	c3.569-3.55,3.055-5.124-0.189-8.359c-70.537-70.343-140.932-140.829-211.399-211.242
	c-50.383-50.344-100.837-100.616-151.248-150.931c-7.167-7.154-14.3-14.342-21.394-21.569c-6.8-6.927-7.165-15.992-0.98-22.139
	c6.034-5.996,15.042-5.783,21.912,0.547c1.342,1.237,2.602,2.563,3.893,3.854c131.706,131.741,263.41,263.482,395.115,395.224
	c8.218,8.22,8.237,12.714,0.085,20.868C587.254,657.595,455.182,789.686,323.164,921.829
	C319.367,925.629,315.332,928.41,311.132,928.54z"/>
</svg>
