<?xml version="1.0" encoding="utf-8"?>
<!-- Generator: Adobe Illustrator 18.0.0, SVG Export Plug-In . SVG Version: 6.00 Build 0)  -->
<!DOCTYPE svg PUBLIC "-//W3C//DTD SVG 1.1//EN" "http://www.w3.org/Graphics/SVG/1.1/DTD/svg11.dtd">
<svg version="1.1" id="图层_1" xmlns="http://www.w3.org/2000/svg" xmlns:xlink="http://www.w3.org/1999/xlink" x="0px" y="0px"
	 viewBox="0 0 1024 1024" enable-background="new 0 0 1024 1024" xml:space="preserve">
<path fill="#07A1A5" d="M905.095,208.272c-0.723-13.831-8.416-22.5-21.935-24.964c-9.591-1.748-19.427-2.978-29.157-3.003
	c-86.191-0.226-172.383-0.131-258.575-0.132c-33.351,0-33.746-0.003-33.526-32.945c0.107-16.082-2.276-30.68-17.72-38.771
	c-18.485-9.684-38.335-9.957-56.659-0.784c-17.966,8.993-20.791,26.286-18.357,44.809c0.489,3.722-0.236,7.611,0.315,11.317
	c1.911,12.864-3.273,16.675-16.211,16.658c-65.739-0.088-131.48,0.861-197.221,1.272c-33.198,0.208-66.403-0.284-99.596,0.188
	c-17.428,0.248-31.405,5.801-32.05,26.883c-0.632,20.665,11.01,30.367,29.789,32.983c8.168,1.138,16.754,1.418,24.885,0.245
	c18.279-2.637,24.062,3.035,23.817,22.671c-1.187,95.25-0.536,190.522-0.536,285.787c0,94.508-0.052,189.017,0.02,283.525
	c0.042,54.383,27.569,82.889,81.862,83.012c154.237,0.351,308.475,0.311,462.712,0.022c54.345-0.102,81.543-28.003,81.768-82.957
	c0.262-64.265,0.061-128.531,0.061-192.797c0-125.507,0.497-251.018-0.52-376.517c-0.158-19.465,5.267-25.341,23.708-22.741
	c12.025,1.695,24.391,0.459,35.599-4.637C899.702,231.881,905.797,221.692,905.095,208.272z M703.894,852.013
	c-127.824,0.459-255.648,1.108-383.472,1.53c-42.18,0.139-55.197-13.105-55.226-55.644c-0.06-88.514-0.018-177.028-0.018-265.542
	c0-90.027,0.354-180.056-0.345-270.078c-0.118-15.18,2.786-20.515,19.406-20.441c154.329,0.685,308.663,0.647,462.992,0.03
	c15.437-0.062,18.313,4.852,18.296,19.052c-0.212,176.262,0.311,352.525,0.354,528.787
	C765.893,838.036,751.563,851.842,703.894,852.013z"/>
<path fill="#07A1A5" d="M457.826,551.954c-0.005,62.494,0.248,124.989-0.122,187.48c-0.16,27.053-21.176,42.105-41.952,30.851
	c-13.621-7.378-15.183-20.088-15.14-33.959c0.217-70.131,0.1-140.263,0.099-210.395c0-52.078-0.013-104.156,0.005-156.234
	c0.01-28.205,9.473-41.657,29.029-41.383c19.282,0.27,28.061,13.458,28.076,42.408C457.852,431.134,457.83,491.544,457.826,551.954z
	"/>
<path fill="#07A1A5" d="M640.505,548.427c0,67.266,0.079,134.531-0.04,201.797c-0.046,25.885-12.42,41.664-31.659,41.105
	c-18.649-0.542-30.391-15.588-30.412-40.16c-0.114-135.287-0.119-270.574,0.002-405.861c0.023-25.653,10.741-38.957,30.533-39.21
	c20.326-0.26,31.51,13.901,31.546,40.533C640.566,413.895,640.505,481.161,640.505,548.427z"/>
</svg>
