<?xml version="1.0" encoding="utf-8"?>
<!-- Generator: Adobe Illustrator 18.0.0, SVG Export Plug-In . SVG Version: 6.00 Build 0)  -->
<!DOCTYPE svg PUBLIC "-//W3C//DTD SVG 1.1//EN" "http://www.w3.org/Graphics/SVG/1.1/DTD/svg11.dtd">
<svg version="1.1" id="图层_1" xmlns="http://www.w3.org/2000/svg" xmlns:xlink="http://www.w3.org/1999/xlink" x="0px" y="0px"
	 viewBox="0 0 216 132" enable-background="new 0 0 216 132" xml:space="preserve">
<g>
	<path fill="#07A0A4" d="M165.515,15.021c0.001-1.336-0.889-2.283-2.296-2.282c-36.737,0.029-73.474,0.029-110.211,0
		c-1.377-0.001-2.266,0.963-2.265,2.247c0.028,34.137,0.028,68.275,0,102.412c-0.001,1.293,0.897,2.252,2.263,2.25
		c18.369-0.035,36.737-0.023,55.105-0.023c18.369,0,36.737-0.012,55.106,0.024c1.414,0.003,2.299-0.953,2.298-2.28
		C165.486,83.253,165.486,49.136,165.515,15.021z M57.196,19.884c-0.001-0.586,0.161-0.69,0.709-0.689
		c15.468,0.016,30.937,0.016,46.406,0c0.57-0.001,0.741,0.12,0.74,0.723c-0.021,10.484-0.015,20.968-0.015,31.453
		c0,10.441-0.006,20.882,0.015,31.324c0.001,0.604-0.172,0.722-0.741,0.721c-15.468-0.016-30.937-0.016-46.406,0
		c-0.549,0.001-0.708-0.106-0.708-0.69C57.214,61.778,57.214,40.831,57.196,19.884z M105.051,112.503
		c0.002,0.586-0.161,0.69-0.709,0.69c-15.49-0.016-30.98-0.015-46.47,0c-0.524,0-0.676-0.108-0.675-0.657
		c0.02-7.347,0.02-14.695,0-22.042c-0.002-0.549,0.151-0.658,0.675-0.657c7.756,0.018,15.511,0.012,23.267,0.012
		c7.734,0,15.468,0.006,23.202-0.013c0.548-0.001,0.711,0.104,0.709,0.69C105.027,97.851,105.027,105.177,105.051,112.503z
		 M159.059,112.519c0.001,0.524-0.109,0.675-0.657,0.674c-15.425-0.017-30.851-0.017-46.276,0c-0.549,0.001-0.659-0.15-0.658-0.674
		c0.018-7.326,0.019-14.652,0-21.978c-0.001-0.549,0.105-0.711,0.69-0.709c7.713,0.023,15.425,0.015,23.138,0.015
		c7.691,0,15.382,0.008,23.074-0.015c0.585-0.002,0.692,0.16,0.69,0.709C159.041,97.867,159.041,105.193,159.059,112.519z
		 M158.284,83.416c-15.361-0.018-30.722-0.017-46.083-0.001c-0.58,0.001-0.735-0.136-0.734-0.728
		c0.017-20.925,0.017-41.851-0.001-62.776c-0.001-0.615,0.187-0.717,0.746-0.716c15.383,0.015,30.765,0.015,46.148-0.002
		c0.56-0.001,0.704,0.123,0.703,0.696c-0.02,10.484-0.014,20.969-0.014,31.453c0,10.441-0.007,20.883,0.017,31.324
		C159.065,83.311,158.881,83.417,158.284,83.416z"/>
	<path fill="#07A0A4" d="M94.324,66.124c0.858,0.02,1.717,0.018,2.575,0.001c1.133-0.023,1.937-0.827,1.943-1.968
		c0.013-2.769,0.014-5.537,0-8.306c-0.006-1.139-0.814-1.939-1.949-1.963c-0.815-0.017-1.631-0.012-2.447-0.002
		c-1.246,0.014-2.034,0.81-2.042,2.068c-0.009,1.352-0.002,2.704-0.001,4.056c0,1.395-0.015,2.79,0.005,4.185
		C92.424,65.297,93.226,66.097,94.324,66.124z"/>
	<path fill="#07A0A4" d="M121.861,53.886c-0.815-0.013-1.631-0.013-2.447,0c-1.18,0.018-1.993,0.808-1.999,1.979
		c-0.013,2.769-0.014,5.537,0.001,8.306c0.006,1.136,0.819,1.932,1.957,1.954c0.794,0.016,1.588,0.008,2.382,0.003
		c1.301-0.01,2.09-0.787,2.098-2.077c0.008-1.352,0.002-2.704,0.002-4.056c0-1.374,0.011-2.747-0.004-4.121
		C123.839,54.7,123.037,53.905,121.861,53.886z"/>
	<path fill="#07A0A4" d="M85.327,98.1c-1.331-0.01-2.661-0.002-3.992-0.002c-1.395,0-2.79-0.01-4.186,0.003
		c-1.215,0.011-2.002,0.808-2.018,2.027c-0.01,0.816-0.014,1.632,0.002,2.447c0.021,1.141,0.814,1.957,1.948,1.963
		c2.79,0.015,5.581,0.017,8.371-0.001c1.1-0.007,1.893-0.823,1.918-1.926c0.019-0.815,0.011-1.631,0.003-2.447
		C87.361,98.903,86.579,98.11,85.327,98.1z"/>
	<path fill="#07A0A4" d="M139.75,98.107c-2.812-0.021-5.624-0.02-8.435-0.001c-1.098,0.007-1.887,0.827-1.911,1.933
		c-0.018,0.815-0.011,1.631-0.003,2.447c0.013,1.257,0.798,2.047,2.054,2.055c1.352,0.009,2.704,0.002,4.057,0.002
		c1.395,0,2.791,0.014,4.186-0.005c1.108-0.015,1.914-0.807,1.942-1.903c0.022-0.88,0.023-1.76-0.001-2.64
		C141.609,98.929,140.816,98.115,139.75,98.107z"/>
</g>
</svg>
