<?xml version="1.0" encoding="utf-8"?>
<!-- Generator: Adobe Illustrator 18.0.0, SVG Export Plug-In . SVG Version: 6.00 Build 0)  -->
<!DOCTYPE svg PUBLIC "-//W3C//DTD SVG 1.1//EN" "http://www.w3.org/Graphics/SVG/1.1/DTD/svg11.dtd">
<svg version="1.1" id="图层_1" xmlns="http://www.w3.org/2000/svg" xmlns:xlink="http://www.w3.org/1999/xlink" x="0px" y="0px"
	 viewBox="0 0 216 132" enable-background="new 0 0 216 132" xml:space="preserve">
<g>
	<path fill="#07A0A4" d="M53.057,19.336c18.324,0,36.647,0,54.971,0c18.259,0,36.518,0,54.777,0c0.193,0,0.387,0.004,0.58-0.001
		c1.145-0.029,1.95-0.811,1.973-1.944c0.018-0.859,0.02-1.719-0.001-2.578c-0.026-1.1-0.827-1.882-1.932-1.92
		c-0.15-0.005-0.301-0.002-0.451-0.002c-36.647,0-73.294,0-109.941,0c-0.108,0-0.215-0.001-0.322,0
		c-1.289,0.017-2.064,0.802-2.074,2.107c-0.005,0.644-0.001,1.289-0.001,1.933C50.638,18.66,51.317,19.336,53.057,19.336z"/>
	<path fill="#07A0A4" d="M165.386,24.028c0.001-1.375-0.962-2.266-2.247-2.265c-36.758,0.028-73.517,0.028-110.276,0
		c-1.301-0.001-2.251,0.904-2.25,2.263c0.03,31.108,0.03,62.217,0,93.325c-0.001,1.417,0.955,2.301,2.28,2.298
		c18.347-0.035,36.694-0.023,55.041-0.023c18.39,0,36.78-0.011,55.17,0.024c1.333,0.003,2.284-0.887,2.282-2.296
		C165.356,86.245,165.356,55.136,165.386,24.028z M126.939,28.859c-0.002-0.489,0.102-0.642,0.623-0.642
		c10.248,0.017,20.495,0.017,30.743,0c0.522-0.001,0.625,0.152,0.624,0.641c-0.017,5.5-0.018,11,0.002,16.499
		c0.002,0.524-0.109,0.677-0.658,0.675c-5.113-0.023-10.226-0.014-15.339-0.014c-5.113,0-10.226-0.01-15.339,0.014
		c-0.549,0.002-0.66-0.15-0.658-0.675C126.957,39.859,126.955,34.359,126.939,28.859z M57.071,28.859
		c-0.001-0.49,0.103-0.644,0.624-0.641c5.134,0.022,10.269,0.013,15.404,0.013c5.113,0,10.226,0.009,15.339-0.013
		c0.523-0.002,0.625,0.154,0.623,0.642c-0.017,5.521-0.017,11.042,0,16.564c0.001,0.469-0.096,0.609-0.592,0.608
		c-10.269-0.016-20.538-0.016-30.807,0c-0.497,0.001-0.592-0.142-0.591-0.609C57.088,39.901,57.088,34.38,57.071,28.859z
		 M89.066,112.47c0.001,0.603-0.171,0.723-0.74,0.722c-10.183-0.017-20.367-0.017-30.55,0c-0.549,0.001-0.709-0.105-0.708-0.69
		c0.018-19.787,0.018-39.573,0-59.36c-0.001-0.585,0.16-0.691,0.708-0.69c10.183,0.017,20.367,0.017,30.55,0
		c0.57-0.001,0.742,0.119,0.74,0.722c-0.021,9.883-0.015,19.765-0.015,29.648C89.051,92.705,89.045,102.587,89.066,112.47z
		 M119.746,113.195c-7.863-0.022-15.726-0.02-23.589-0.002c-0.525,0.001-0.674-0.11-0.674-0.658c0.015-27.886,0.015-55.772,0-83.659
		c0-0.549,0.15-0.659,0.674-0.657c7.885,0.018,15.769,0.018,23.654,0c0.55-0.001,0.709,0.106,0.708,0.691
		c-0.019,13.943-0.015,27.886-0.015,41.829c0,13.9-0.005,27.8,0.016,41.701C120.521,113.074,120.352,113.196,119.746,113.195z
		 M158.933,112.502c0.001,0.584-0.159,0.691-0.708,0.691c-10.205-0.017-20.41-0.017-30.615,0c-0.524,0.001-0.675-0.108-0.675-0.657
		c0.016-19.808,0.016-39.616,0-59.424c0-0.548,0.149-0.659,0.674-0.658c10.205,0.017,20.41,0.017,30.615,0
		c0.548-0.001,0.71,0.104,0.709,0.69c-0.021,9.904-0.015,19.808-0.015,29.712C158.918,92.737,158.912,102.619,158.933,112.502z"/>
	<path fill="#07A0A4" d="M112.69,31.715c-3.048-0.01-6.096-0.011-9.144,0.001c-1.175,0.005-1.969,0.814-1.989,1.99
		c-0.013,0.772-0.007,1.545-0.002,2.318c0.008,1.344,0.777,2.125,2.109,2.131c1.481,0.007,2.962,0.002,4.443,0.001
		c1.545,0,3.091,0.013,4.636-0.005c1.137-0.013,1.934-0.819,1.955-1.956c0.016-0.837,0.015-1.674,0-2.511
		C114.678,32.517,113.874,31.719,112.69,31.715z"/>
	<path fill="#07A0A4" d="M77.668,55.177c-3.069-0.013-6.139-0.014-9.208,0c-1.141,0.005-1.94,0.813-1.964,1.948
		c-0.017,0.794-0.008,1.588-0.003,2.383c0.009,1.333,0.787,2.103,2.132,2.108c1.481,0.005,2.962,0.001,4.443,0.001
		c1.524,0,3.048,0.01,4.572-0.003c1.18-0.01,1.977-0.807,1.997-1.981c0.014-0.837,0.016-1.675-0.001-2.511
		C79.613,55.987,78.812,55.182,77.668,55.177z"/>
	<path fill="#07A0A4" d="M147.37,55.173c-1.481-0.005-2.962-0.001-4.443-0.001c-1.524,0-3.048-0.011-4.572,0.004
		c-1.179,0.011-1.973,0.81-1.992,1.986c-0.013,0.815-0.012,1.631-0.001,2.447c0.017,1.182,0.805,1.998,1.974,2.003
		c3.07,0.013,6.139,0.013,9.209,0c1.139-0.005,1.936-0.815,1.959-1.952c0.016-0.794,0.008-1.588,0.003-2.383
		C149.497,55.948,148.717,55.178,147.37,55.173z"/>
	<path fill="#07A0A4" d="M68.417,38.149c3.091,0.017,6.182,0.016,9.273,0.001c1.134-0.005,1.926-0.823,1.947-1.964
		c0.015-0.794,0.008-1.588,0.002-2.383c-0.01-1.3-0.787-2.084-2.084-2.091c-1.503-0.008-3.005-0.002-4.508-0.002
		c-1.524,0-3.048-0.011-4.572,0.004c-1.147,0.011-1.953,0.803-1.978,1.934c-0.019,0.858-0.019,1.718,0,2.576
		C66.522,37.328,67.316,38.143,68.417,38.149z"/>
	<path fill="#07A0A4" d="M138.483,38.155c1.481,0.006,2.962,0.001,4.443,0.001c1.524,0,3.048,0.009,4.572-0.003
		c1.182-0.01,1.985-0.804,2.006-1.972c0.015-0.837,0.016-1.674-0.001-2.511c-0.022-1.137-0.819-1.947-1.959-1.953
		c-3.07-0.014-6.139-0.014-9.209-0.001c-1.17,0.005-1.957,0.821-1.975,2.003c-0.011,0.773-0.007,1.546-0.002,2.318
		C136.369,37.375,137.143,38.15,138.483,38.155z"/>
</g>
</svg>
