<?xml version="1.0" encoding="utf-8"?>
<!-- Generator: Adobe Illustrator 18.0.0, SVG Export Plug-In . SVG Version: 6.00 Build 0)  -->
<!DOCTYPE svg PUBLIC "-//W3C//DTD SVG 1.1//EN" "http://www.w3.org/Graphics/SVG/1.1/DTD/svg11.dtd">
<svg version="1.1" id="图层_1" xmlns="http://www.w3.org/2000/svg" xmlns:xlink="http://www.w3.org/1999/xlink" x="0px" y="0px"
	 viewBox="0 0 216 132" enable-background="new 0 0 216 132" xml:space="preserve">
<path fill="#07A0A4" d="M165.748,59.167c-0.003-7.875-5.563-14.73-13.277-16.362c-0.526-0.111-0.657-0.305-0.656-0.83
	c0.019-9.001-0.008-18.003,0.037-27.004c0.007-1.331-0.967-2.233-2.216-2.231c-27.713,0.029-55.426,0.029-83.138,0
	c-1.264-0.001-2.225,0.912-2.219,2.229c0.044,8.98,0.017,17.959,0.037,26.939c0.001,0.571-0.126,0.785-0.717,0.91
	c-7.566,1.609-13.197,8.43-13.21,16.089c-0.028,16.864-0.01,33.728-0.008,50.592c0,1.346,0.776,2.125,2.111,2.132
	c1.267,0.006,2.535,0.017,3.802-0.008c0.411-0.008,0.547,0.094,0.541,0.527c-0.025,1.804,0.054,3.612-0.033,5.413
	c-0.059,1.232,0.881,2.217,2.235,2.214c16.327-0.035,32.654-0.023,48.981-0.023c16.391,0,32.783,0,49.174,0
	c1.357,0,2.111-0.749,2.113-2.095c0.001-1.826,0.017-3.652-0.011-5.478c-0.007-0.466,0.138-0.568,0.577-0.558
	c1.245,0.03,2.492,0.011,3.738,0.01c1.401-0.001,2.142-0.737,2.142-2.131C165.75,92.723,165.754,75.945,165.748,59.167z
	 M71.484,19.19c12.201,0.023,24.401,0.017,36.602,0.017s24.401,0.004,36.602-0.012c0.543-0.001,0.714,0.096,0.712,0.687
	c-0.024,7.432-0.021,14.864-0.004,22.296c0.001,0.473-0.134,0.649-0.595,0.758c-6.561,1.552-11.767,7.432-12.57,14.129
	c-0.095,0.793-0.122,1.579-0.123,2.372c-0.002,2.578-0.02,5.155,0.014,7.733c0.008,0.596-0.102,0.785-0.75,0.782
	c-5.628-0.03-11.255-0.018-16.883-0.018c-9.924,0-19.847-0.005-29.771,0.013c-0.549,0.001-0.717-0.104-0.709-0.69
	c0.037-2.749,0.041-5.499,0.012-8.248c-0.08-7.609-5.316-14.213-12.668-16.064c-0.507-0.128-0.617-0.321-0.616-0.808
	c0.016-7.389,0.019-14.778-0.003-22.167C70.73,19.369,70.841,19.189,71.484,19.19z M152.797,113.241
	c-0.01,0.039-0.148,0.059-0.228,0.063c-0.171,0.01-0.344,0.004-0.515,0.004c-14.674,0-29.347,0-44.021,0
	c-14.652,0-29.304,0.001-43.956-0.006c-0.262,0-0.698,0.148-0.759-0.115c-0.108-0.465-0.026-0.976-0.007-1.467
	c0.001-0.031,0.141-0.075,0.218-0.082c0.149-0.014,0.3-0.005,0.451-0.005c29.39,0,58.78,0,88.171,0.007
	c0.231,0,0.62-0.153,0.674,0.143C152.909,112.255,152.923,112.759,152.797,113.241z M158.585,105.201
	c-16.842-0.016-33.683-0.013-50.525-0.013c-16.82,0-33.64-0.005-50.461,0.017c-0.664,0.001-0.791-0.174-0.79-0.806
	c0.019-15.016,0.01-30.031,0.018-45.047c0.002-5.104,3.396-9.252,8.391-10.304c5.694-1.199,11.522,2.946,12.25,8.7
	c0.079,0.621,0.111,1.239,0.111,1.862c-0.001,4.232-0.001,8.464,0,12.696c0,1.309,0.763,2.073,2.07,2.073
	c18.947,0.001,37.894,0.001,56.841,0c1.304,0,2.06-0.765,2.061-2.082c0.001-4.318-0.008-8.636,0.003-12.954
	c0.015-6.035,4.806-10.662,10.835-10.48c4.875,0.147,9.192,4.07,9.807,8.895c0.076,0.599,0.11,1.196,0.11,1.798
	c-0.001,14.973-0.004,29.946,0.013,44.918C159.32,105.064,159.166,105.201,158.585,105.201z"/>
</svg>
