<?xml version="1.0" encoding="utf-8"?>
<!-- Generator: Adobe Illustrator 18.0.0, SVG Export Plug-In . SVG Version: 6.00 Build 0)  -->
<!DOCTYPE svg PUBLIC "-//W3C//DTD SVG 1.1//EN" "http://www.w3.org/Graphics/SVG/1.1/DTD/svg11.dtd">
<svg version="1.1" id="图层_1" xmlns="http://www.w3.org/2000/svg" xmlns:xlink="http://www.w3.org/1999/xlink" x="0px" y="0px"
	 viewBox="0 0 216 132" enable-background="new 0 0 216 132" xml:space="preserve">
<g>
	<path fill="#07A0A4" d="M79.556,55.594c0.173,0.77,0.381,1.533,0.578,2.298c0.376,1.464,1.373,1.989,2.813,1.485
		c5.217-1.827,10.434-3.654,15.651-5.482c1.178-0.413,2.355-0.831,3.533-1.247c-0.015-0.036-0.031-0.072-0.047-0.108
		c-6.967,0.25-13.934,0.496-20.9,0.754C80.088,53.333,79.301,54.459,79.556,55.594z"/>
	<path fill="#07A0A4" d="M106.039,50.378c0.159-0.191,0.311-0.358,0.446-0.538c0.792-1.057,1.575-2.122,2.372-3.173
		c3.19-4.205,6.436-8.367,9.663-12.544c0.921-1.192,0.64-2.432-0.72-3.107c-0.65-0.323-1.303-0.639-1.96-0.947
		c-1.301-0.611-2.381-0.18-2.875,1.156c-2.301,6.221-4.598,12.443-6.894,18.665C106.023,50.024,105.902,50.149,106.039,50.378z"/>
	<path fill="#07A0A4" d="M163.095,59.847c-13.59,0-27.179,0-40.769,0c-13.59,0-27.179,0-40.769,0c-1.775,0-2.442,0.664-2.442,2.43
		c0,18.362,0,36.724,0,55.086c0,0.171-0.004,0.343,0.002,0.514c0.035,1.131,0.824,1.92,1.962,1.942
		c0.77,0.015,1.541,0.006,2.311,0.003c1.378-0.007,2.142-0.768,2.145-2.147c0.005-1.969,0.016-3.938-0.01-5.906
		c-0.006-0.457,0.124-0.565,0.569-0.562c2.568,0.022,5.136,0.011,7.704,0.011c21.529,0,43.059,0.003,64.588-0.016
		c0.632-0.001,0.769,0.162,0.756,0.77c-0.043,1.925-0.022,3.852-0.014,5.778c0.005,1.286,0.794,2.061,2.091,2.072
		c0.642,0.005,1.284,0.001,1.926,0.001c1.726-0.001,2.402-0.677,2.402-2.406c0-18.383,0-36.767,0-55.15
		C165.548,60.507,164.879,59.847,163.095,59.847z M86.212,66.639c24.08,0.018,48.16,0.018,72.239,0c0.583,0,0.689,0.159,0.688,0.706
		c-0.019,7.32-0.019,14.641,0,21.961c0.002,0.568-0.119,0.738-0.72,0.737c-12.051-0.02-24.101-0.015-36.152-0.015
		c-12.008,0-24.016-0.005-36.023,0.015c-0.601,0.001-0.721-0.17-0.72-0.737c0.019-7.32,0.019-14.641,0-21.961
		C85.523,66.797,85.63,66.638,86.212,66.639z M159.14,103.978c0.008,0.55-0.108,0.706-0.689,0.705
		c-12.051-0.02-24.101-0.015-36.152-0.015c-12.008,0-24.016-0.006-36.023,0.016c-0.634,0.001-0.765-0.166-0.754-0.772
		c0.039-2.268,0.033-4.538,0.002-6.806c-0.007-0.525,0.111-0.674,0.657-0.672c5.265,0.023,10.531,0.014,15.796,0.014
		c18.793,0,37.586,0.004,56.379-0.017c0.664,0,0.798,0.177,0.786,0.805C159.102,99.483,159.107,101.731,159.14,103.978z"/>
	<path fill="#07A0A4" d="M86.241,44.087c2.175,1.955,4.375,3.881,6.58,5.801c0.94,0.818,1.886,0.796,2.805-0.061
		c1.031-0.961,1.901-2.071,2.838-3.12c2.708-3.032,5.476-6.01,8.214-9.015c1.177-1.292,1.091-2.455-0.249-3.56
		c-3.003-2.475-6.01-4.945-9.013-7.421c-5.326-4.391-10.692-8.733-15.921-13.239c-0.594-0.512-1.246-0.735-2.008-0.607
		c-0.758,0.126-1.51,0.287-2.267,0.424c-4.414,0.8-8.829,1.597-13.244,2.395c0,0,0,0,0,0c0,0,0,0,0,0
		c-0.2-0.041-0.366-0.02-0.412,0.223c0,0,0,0,0,0c0,0,0,0,0,0c-1.007,0.099-1.834,0.511-2.448,1.342
		c-0.317,0.429-0.688,0.818-1.036,1.225c-1.092,1.279-1.005,2.256,0.27,3.351c3.619,3.108,7.229,6.228,10.854,9.33
		c0.323,0.277,0.394,0.424,0.073,0.784c-4.706,5.285-9.536,10.459-14.155,15.823c-1.968,2.286-4.033,4.487-6.035,6.744
		c-0.999,1.126-0.863,2.625,0.289,3.57c3.506,2.877,7.015,5.75,10.524,8.623c1.115,0.913,2.257,0.836,3.228-0.231
		c1.454-1.598,2.899-3.205,4.344-4.813c5.23-5.821,10.515-11.593,15.635-17.512C85.539,43.641,85.78,43.673,86.241,44.087z
		 M70.399,21.998c-0.224-0.193-0.441-0.394-0.767-0.687c1.948-0.356,3.752-0.687,5.557-1.014c1.03-0.187,2.066-0.346,3.09-0.561
		c0.338-0.071,0.559,0.008,0.808,0.213c6.321,5.212,12.649,10.418,18.973,15.627c1.039,0.856,1.041,0.866,0.127,1.871
		c-1.31,1.441-2.644,2.86-3.932,4.32c-0.329,0.373-0.507,0.344-0.854,0.044c-4.352-3.766-8.717-7.516-13.079-11.271
		C77.015,27.693,73.706,24.846,70.399,21.998z M80.371,39.815c-2.073,2.306-4.195,4.569-6.209,6.926
		c-3.444,4.029-7.08,7.883-10.585,11.856c-0.587,0.665-0.596,0.662-1.303,0.085c-1.06-0.865-2.102-1.753-3.183-2.592
		c-0.382-0.297-0.402-0.465-0.072-0.826c1.962-2.147,3.933-4.286,5.835-6.486c3.69-4.267,7.51-8.417,11.256-12.634
		c0.327-0.369,0.496-0.358,0.842-0.047c1.114,1,2.262,1.961,3.392,2.942c0.123,0.107,0.291,0.183,0.339,0.401
		C80.587,39.556,80.483,39.69,80.371,39.815z"/>
	<path fill="#07A0A4" d="M112.687,82.065c3.08,0.002,6.161,0,9.241,0c3.145,0,6.289,0.004,9.434-0.002
		c1.291-0.003,2.068-0.789,2.078-2.083c0.006-0.813,0.009-1.626-0.001-2.439c-0.015-1.212-0.803-2.021-2.008-2.023
		c-6.332-0.007-12.664-0.008-18.996,0.001c-1.17,0.002-1.961,0.812-1.98,1.985c-0.013,0.77-0.004,1.54-0.003,2.31
		C110.455,81.325,111.187,82.064,112.687,82.065z"/>
</g>
</svg>
