<?xml version="1.0" encoding="utf-8"?>
<!-- Generator: Adobe Illustrator 18.0.0, SVG Export Plug-In . SVG Version: 6.00 Build 0)  -->
<!DOCTYPE svg PUBLIC "-//W3C//DTD SVG 1.1//EN" "http://www.w3.org/Graphics/SVG/1.1/DTD/svg11.dtd">
<svg version="1.1" id="图层_1" xmlns="http://www.w3.org/2000/svg" xmlns:xlink="http://www.w3.org/1999/xlink" x="0px" y="0px"
	 viewBox="0 0 1024 1024" enable-background="new 0 0 1024 1024" xml:space="preserve">
<path fill="#07A0A4" d="M963,450.421c0-102.332,0.001-204.665-0.002-306.997c0-10.547-5.798-16.42-16.227-16.42
	c-185.165-0.004-370.33-0.004-555.495,0c-10.455,0-16.271,5.857-16.273,16.375c-0.007,38.166-0.07,76.333,0.096,114.498
	c0.018,4.075-0.854,5.262-5.108,5.232c-29.832-0.205-59.666-0.056-89.498-0.157c-5.359-0.018-9.645,1.778-13.391,5.525
	c-65.758,65.763-131.543,131.497-197.328,197.233c-3.212,3.21-4.818,6.933-4.815,11.588c0.057,93.499,0.035,186.998,0.054,280.497
	c0.002,9.099,6.216,15.175,15.436,15.197c13.333,0.031,26.672,0.235,39.996-0.119c4.459-0.119,5.744,1.364,6.4,5.517
	c13.166,83.302,94.784,137.13,176.053,114.521c57.8-16.08,92.108-55.33,103.195-114.418c0.855-4.554,2.334-5.625,6.846-5.613
	c62.499,0.177,124.998,0.12,187.498,0.12c9.16,0,9.16,0,10.757,8.864c18.394,102.096,138.658,150.385,222.358,89.13
	c31.426-22.999,50.458-53.919,56.554-92.49c0.726-4.596,2.297-5.723,6.831-5.632c16.327,0.325,32.683-0.35,48.99,0.305
	c9.983,0.401,17.282-7.198,17.253-17.26C962.886,654.086,963,552.253,963,450.421z M355.501,778.125
	c-10.29,41.2-46.977,69.99-89.364,69.873c-42.026-0.116-78.673-29.167-88.7-70.092c-1.009-4.12-0.159-5.014,3.98-4.99
	c28.315,0.161,56.632,0.085,84.948,0.085c28.316,0,56.633,0.08,84.948-0.086C355.597,772.889,356.599,773.727,355.501,778.125z
	 M369.606,723.095c-83.159-0.128-166.318-0.127-249.476,0c-4.063,0.006-5.243-0.837-5.234-5.097
	c0.145-74.16,0.12-148.32,0.048-222.479c-0.003-2.876,0.765-4.915,2.833-6.979c57.681-57.565,115.307-115.187,172.872-172.868
	c2.091-2.096,4.189-2.735,7.026-2.724c24.164,0.093,48.329,0.144,72.492-0.039c3.89-0.03,4.933,0.94,4.925,4.893
	C374.963,384.627,375,451.454,375,518.281c0,66.494-0.056,132.988,0.122,199.481C375.134,722.337,373.826,723.102,369.606,723.095z
	 M839.439,778.26c-10.288,41.023-46.812,69.742-88.949,69.739c-42.127-0.003-78.658-28.743-88.939-69.758
	c-1.027-4.096-0.554-5.366,4.011-5.336c28.315,0.189,56.632,0.095,84.948,0.095c28.316,0,56.633,0.097,84.948-0.097
	C840.082,772.871,840.453,774.22,839.439,778.26z M907.747,723.117c-159.164-0.14-318.329-0.14-477.493,0
	c-4.539,0.004-5.353-1.241-5.351-5.495c0.112-178.331,0.113-356.662,0.001-534.992c-0.003-4.414,0.915-5.748,5.598-5.744
	c158.997,0.138,317.995,0.138,476.992,0c4.68-0.004,5.608,1.324,5.602,5.742C912.967,271.793,913,360.958,913,450.124
	s-0.032,178.331,0.098,267.496C913.104,721.872,912.29,723.121,907.747,723.117z"/>
</svg>
