<?xml version="1.0" encoding="utf-8"?>
<!-- Generator: Adobe Illustrator 18.0.0, SVG Export Plug-In . SVG Version: 6.00 Build 0)  -->
<!DOCTYPE svg PUBLIC "-//W3C//DTD SVG 1.1//EN" "http://www.w3.org/Graphics/SVG/1.1/DTD/svg11.dtd">
<svg version="1.1" id="图层_1" xmlns="http://www.w3.org/2000/svg" xmlns:xlink="http://www.w3.org/1999/xlink" x="0px" y="0px"
	 viewBox="0 0 1024 1024" enable-background="new 0 0 1024 1024" xml:space="preserve">
<path fill="#07A1A5" d="M503.314,135.825C305.336,137.338,142.19,291.801,130.483,490.17
	c-4.75,80.487,14.791,154.986,58.105,223.124c2.31,3.634,4.63,7.263,7.024,10.842c7.49,11.196,11.471,22.798-2.3,31.673
	c-14.326,9.232-22.2-1.251-29.573-11.784c-165.696-236.695-29.107-578.406,254.07-635.56
	C651.694,61.26,869.373,209.005,911.833,443.775c40.567,224.301-123.761,447.69-349.844,476.377
	c-103.176,13.092-198.133-7.97-285.345-64.626c-10.516-6.832-19.544-14.522-13.276-27.684c7.633-16.027,19.705-13.1,32.216-4.752
	c47.882,31.95,100.489,51.216,157.363,60.244c195.497,31.033,393.377-114.221,421.577-310.024
	c30.68-213.022-103.17-396.834-315.492-432.663C540.71,137.556,521.898,137.364,503.314,135.825z"/>
<path fill="#07A1A5" d="M489.013,389.664c0-43.584,0.892-87.195-0.434-130.739c-0.538-17.678,8.356-16.962,20.853-17.56
	c13.771-0.659,18.03,3.25,17.886,17.573c-0.748,74.299,0.275,148.62-0.809,222.911c-0.254,17.418,5.151,20.853,21.308,20.611
	c61.432-0.921,122.893,0.102,184.329-0.713c14.808-0.196,19.822,3.577,19.263,18.835c-0.482,13.14-0.855,20.143-17.761,19.907
	c-75.721-1.056-151.469-0.826-227.199-0.131c-14.101,0.129-18.047-3.763-17.764-17.805
	C489.575,478.272,489.013,433.963,489.013,389.664z"/>
</svg>
