<?xml version="1.0" encoding="utf-8"?>
<!-- Generator: Adobe Illustrator 18.0.0, SVG Export Plug-In . SVG Version: 6.00 Build 0)  -->
<!DOCTYPE svg PUBLIC "-//W3C//DTD SVG 1.1//EN" "http://www.w3.org/Graphics/SVG/1.1/DTD/svg11.dtd">
<svg version="1.1" id="图层_1" xmlns="http://www.w3.org/2000/svg" xmlns:xlink="http://www.w3.org/1999/xlink" x="0px" y="0px"
	 viewBox="0 0 216 132" enable-background="new 0 0 216 132" xml:space="preserve">
<g>
	<path fill="#07A0A4" d="M163.137,12.739c-18.369,0.034-36.737,0.023-55.105,0.023c-18.411,0-36.823,0.01-55.234-0.022
		c-1.21-0.002-2.183,0.909-2.182,2.2c0.027,34.159,0.027,68.318-0.001,102.477c-0.001,1.325,0.961,2.231,2.216,2.23
		c36.78-0.027,73.56-0.027,110.34,0c1.241,0.001,2.216-0.894,2.215-2.232c-0.028-34.137-0.028-68.275,0.001-102.412
		C165.387,13.638,164.432,12.736,163.137,12.739z M129.265,19.198c4.833,0.015,9.667,0.009,14.5,0.009
		c4.833,0,9.667,0.009,14.5-0.013c0.537-0.003,0.667,0.131,0.666,0.667c-0.018,8.765-0.019,17.529,0.001,26.294
		c0.001,0.561-0.169,0.652-0.681,0.65c-7.089-0.017-14.178-0.017-21.267,0c-0.498,0.001-0.665-0.113-0.637-0.629
		c0.046-0.835,0.021-1.675,0.01-2.513c-0.015-1.214-0.81-2.014-2.025-2.023c-1.718-0.012-3.437-0.021-5.156,0.008
		c-0.461,0.008-0.563-0.128-0.562-0.573c0.014-7.089,0.017-14.178-0.004-21.267C128.609,19.265,128.798,19.197,129.265,19.198z
		 M136.345,53.883c-0.003-0.549,0.151-0.659,0.675-0.658c7.09,0.019,14.179,0.017,21.269,0.002c0.489-0.001,0.643,0.101,0.642,0.623
		c-0.018,8.744-0.018,17.488,0,26.232c0.001,0.522-0.153,0.625-0.642,0.623c-7.09-0.015-14.179-0.017-21.269,0.002
		c-0.524,0.001-0.678-0.108-0.675-0.657c0.025-4.361,0.014-8.722,0.014-13.083C136.359,62.606,136.37,58.244,136.345,53.883z
		 M129.926,92.506c0.001,0.548-0.104,0.711-0.69,0.709c-7.54-0.024-15.081-0.016-22.622-0.016c-7.519,0-15.039-0.008-22.558,0.016
		c-0.586,0.002-0.69-0.161-0.69-0.709c0.016-14.588,0.016-29.175,0-43.763c0-0.524,0.108-0.675,0.657-0.674
		c15.082,0.017,30.163,0.017,45.245,0c0.549-0.001,0.658,0.151,0.657,0.674C129.911,63.331,129.911,77.918,129.926,92.506z
		 M92.612,19.196c4.834,0.018,9.668,0.011,14.501,0.011c4.812,0,9.625,0.007,14.437-0.011c0.488-0.002,0.644,0.101,0.642,0.623
		c-0.019,7.068-0.019,14.136,0,21.204c0.001,0.522-0.153,0.624-0.642,0.623c-9.646-0.014-19.292-0.014-28.938,0
		c-0.467,0.001-0.611-0.094-0.609-0.591c0.018-7.089,0.018-14.179,0-21.269C92.002,19.291,92.144,19.194,92.612,19.196z
		 M57.07,19.903c-0.001-0.542,0.094-0.717,0.686-0.713c4.532,0.03,9.065,0.016,13.598,0.016s9.065,0.009,13.598-0.012
		c0.51-0.002,0.631,0.135,0.63,0.635c-0.017,7.067-0.018,14.135,0.002,21.203c0.002,0.538-0.179,0.62-0.651,0.614
		c-1.955-0.024-3.91-0.014-5.864-0.008c-1.344,0.004-2.125,0.779-2.134,2.11c-0.006,0.816-0.03,1.634,0.01,2.448
		c0.023,0.472-0.096,0.618-0.593,0.609c-1.89-0.033-3.781-0.013-5.671-0.013c-4.318,0-8.636-0.011-12.953,0.014
		c-0.548,0.003-0.659-0.149-0.658-0.674C57.087,37.39,57.087,28.646,57.07,19.903z M57.071,53.867
		c-0.002-0.488,0.101-0.644,0.623-0.642c6.209,0.02,12.418,0.02,18.626,0c0.522-0.002,0.624,0.153,0.623,0.642
		c-0.014,8.744-0.014,17.488,0,26.231c0.001,0.467-0.094,0.611-0.591,0.609c-6.23-0.019-12.46-0.019-18.691,0
		c-0.497,0.002-0.593-0.141-0.591-0.609c0.018-4.383,0.011-8.765,0.011-13.148C57.082,62.59,57.09,58.229,57.071,53.867z
		 M84.967,113.19c-4.554-0.017-9.108-0.01-13.662-0.01c-4.533,0-9.065-0.008-13.598,0.011c-0.497,0.002-0.638-0.115-0.637-0.628
		c0.017-8.271,0.018-16.541-0.001-24.811c-0.001-0.526,0.159-0.622,0.644-0.621c6.208,0.016,12.417,0.016,18.625,0
		c0.468-0.001,0.613,0.095,0.609,0.592c-0.025,3.222-0.014,6.444-0.012,9.667c0.001,1.515,0.738,2.254,2.247,2.256
		c1.955,0.002,3.91,0.013,5.864-0.009c0.42-0.005,0.536,0.11,0.534,0.533c-0.016,4.146-0.02,8.292,0.004,12.438
		C85.587,113.115,85.423,113.191,84.967,113.19z M121.599,113.192c-9.668-0.017-19.335-0.017-29.003,0
		c-0.497,0.001-0.593-0.141-0.591-0.609c0.019-4.103,0.019-8.207,0-12.31c-0.002-0.489,0.103-0.644,0.624-0.642
		c4.834,0.022,9.668,0.013,14.501,0.013c4.812,0,9.625,0.009,14.437-0.013c0.522-0.002,0.626,0.154,0.623,0.642
		c-0.019,4.103-0.019,8.207,0,12.31C122.193,113.052,122.095,113.193,121.599,113.192z M158.244,113.191
		c-4.833-0.018-9.667-0.011-14.5-0.011c-4.833,0-9.667-0.008-14.5,0.012c-0.51,0.002-0.633-0.135-0.63-0.635
		c0.021-4.081,0.028-8.163-0.006-12.245c-0.005-0.607,0.192-0.69,0.72-0.679c1.61,0.033,3.222,0.014,4.833,0.011
		c1.431-0.003,2.196-0.757,2.197-2.176c0.003-3.244,0.011-6.488-0.01-9.731c-0.003-0.469,0.096-0.61,0.592-0.609
		c7.132,0.018,14.264,0.018,21.396,0c0.495-0.001,0.593,0.138,0.592,0.608c-0.015,8.271-0.018,16.541,0.004,24.812
		C158.934,113.121,158.745,113.193,158.244,113.191z"/>
	<path fill="#07A0A4" d="M153.209,27.713c1.493,0.017,2.725-1.182,2.742-2.667c0.017-1.493-1.182-2.725-2.668-2.743
		c-1.492-0.017-2.725,1.182-2.742,2.668C150.524,26.463,151.723,27.696,153.209,27.713z"/>
	<path fill="#07A0A4" d="M79.871,27.713c1.492,0.013,2.72-1.19,2.732-2.678c0.013-1.492-1.19-2.72-2.678-2.732
		c-1.492-0.013-2.72,1.191-2.732,2.678C77.181,26.473,78.384,27.7,79.871,27.713z"/>
	<path fill="#07A0A4" d="M153.273,90.236c-1.492-0.013-2.72,1.191-2.732,2.678c-0.012,1.492,1.191,2.72,2.678,2.732
		c1.492,0.013,2.72-1.19,2.732-2.678C155.964,91.477,154.761,90.249,153.273,90.236z"/>
	<path fill="#07A0A4" d="M116.481,27.713c1.492,0.013,2.72-1.19,2.732-2.678c0.013-1.492-1.19-2.72-2.678-2.732
		c-1.492-0.013-2.72,1.191-2.732,2.678C113.791,26.473,114.994,27.7,116.481,27.713z"/>
	<path fill="#07A0A4" d="M153.247,61.615c1.491,0,2.705-1.215,2.704-2.706c0-1.489-1.216-2.705-2.706-2.705
		c-1.489,0-2.705,1.217-2.704,2.706C150.542,60.401,151.756,61.616,153.247,61.615z"/>
</g>
</svg>
