<?xml version="1.0" encoding="utf-8"?>
<!-- Generator: Adobe Illustrator 18.0.0, SVG Export Plug-In . SVG Version: 6.00 Build 0)  -->
<!DOCTYPE svg PUBLIC "-//W3C//DTD SVG 1.1//EN" "http://www.w3.org/Graphics/SVG/1.1/DTD/svg11.dtd">
<svg version="1.1" id="图层_1" xmlns="http://www.w3.org/2000/svg" xmlns:xlink="http://www.w3.org/1999/xlink" x="0px" y="0px"
	 viewBox="0 0 216 132" enable-background="new 0 0 216 132" xml:space="preserve">
<g>
	<path fill="#07A0A4" d="M163.224,12.867c-18.347,0.035-36.694,0.024-55.041,0.024c-18.369,0-36.737,0.001-55.106-0.005
		c-0.55,0-1.07,0.046-1.526,0.388c-0.674,0.506-0.792,1.212-0.792,2.002c0.007,34.03,0.006,68.06,0.006,102.091
		c0,0.129-0.002,0.258,0.001,0.387c0.027,1.18,0.812,1.977,1.987,1.997c0.73,0.013,1.461,0.004,2.191,0.003
		c1.523-0.003,2.263-0.733,2.266-2.237c0.002-1.504,0-3.008,0-4.512c0-0.856,0-0.857,0.836-0.857c33.386,0,66.771,0,100.157,0
		c0.107,0,0.217,0.014,0.322-0.002c0.429-0.068,0.536,0.115,0.53,0.531c-0.023,1.675-0.017,3.351-0.007,5.027
		c0.007,1.251,0.806,2.036,2.064,2.049c0.644,0.007,1.289,0.001,1.933,0.001c1.779,0,2.445-0.666,2.445-2.445
		c0-34.052-0.006-68.103,0.023-102.155C165.517,13.797,164.609,12.864,163.224,12.867z M57.196,20.094
		c-0.002-0.606,0.12-0.775,0.756-0.774c16.736,0.021,33.472,0.016,50.208,0.016c16.715,0,33.429,0.004,50.144-0.016
		c0.635-0.001,0.759,0.165,0.757,0.773c-0.023,7.348-0.021,14.695-0.003,22.043c0.001,0.524-0.108,0.675-0.657,0.674
		c-33.515-0.015-67.03-0.015-100.545,0c-0.547,0-0.66-0.148-0.658-0.673C57.217,34.789,57.219,27.441,57.196,20.094z
		 M104.919,105.01c0.001,0.548-0.104,0.709-0.69,0.709c-15.447-0.019-30.894-0.019-46.341,0c-0.585,0.001-0.69-0.16-0.69-0.709
		c0.015-18.347,0.015-36.695,0-55.042c0-0.569,0.118-0.741,0.722-0.74c15.425,0.019,30.851,0.019,46.276,0
		c0.604-0.001,0.723,0.171,0.722,0.74c-0.018,9.174-0.013,18.347-0.013,27.521S104.901,95.836,104.919,105.01z M158.501,105.714
		c-0.814-0.041-1.632-0.011-2.448-0.011c-0.752,0-1.506-0.037-2.254,0.013c-0.499,0.033-0.763-0.163-1.033-0.557
		c-3.641-5.31-7.312-10.6-10.943-15.917c-0.607-0.889-1.387-1.427-2.396-1.704c-2.955-0.814-5.906-1.642-8.864-2.442
		c-0.361-0.098-0.527-0.247-0.596-0.62c-0.471-2.529-0.968-5.054-1.451-7.581c-0.076-0.396,0.396-1.009,0.795-1.058
		c0.234-0.029,0.268,0.185,0.356,0.311c0.786,1.126,1.559,2.262,2.343,3.39c0.796,1.144,1.829,1.336,2.993,0.575
		c2.442-1.596,4.858-3.233,7.192-4.984c0.993-0.745,1.147-1.787,0.444-2.83c-0.767-1.139-1.56-2.262-2.33-3.399
		c-0.102-0.151-0.405-0.339-0.12-0.528c0.267-0.177,0.474-0.59,0.936-0.3c2.27,1.428,4.548,2.844,6.834,4.246
		c0.31,0.19,0.297,0.426,0.27,0.71c-0.242,2.542-0.481,5.085-0.722,7.628c-0.057,0.598-0.13,1.195-0.177,1.794
		c-0.063,0.804,0.193,1.513,0.647,2.171c3.536,5.122,7.061,10.252,10.61,15.365c0.338,0.487,0.484,0.961,0.469,1.544
		c-0.032,1.202-0.029,2.406,0.001,3.608C159.068,105.573,158.971,105.738,158.501,105.714z M159.047,91.065c0,0.103,0,0.205,0,0.469
		c-0.204-0.283-0.325-0.444-0.439-0.609c-1.902-2.757-3.797-5.518-5.711-8.266c-0.24-0.344-0.318-0.674-0.278-1.078
		c0.335-3.354,0.645-6.71,0.995-10.062c0.114-1.09-0.302-1.919-1.175-2.471c-3.539-2.234-7.098-4.435-10.658-6.635
		c-0.683-0.422-1.406-0.39-2.068,0.057c-1.708,1.153-3.414,2.311-5.096,3.5c-1.075,0.761-1.256,1.956-0.513,3.05
		c0.76,1.119,1.523,2.236,2.304,3.34c0.201,0.284,0.234,0.444-0.103,0.646c-0.569,0.341-1.132,1.055-1.652,1.015
		c-0.542-0.042-0.798-0.964-1.186-1.495c-0.507-0.693-0.973-1.415-1.47-2.115c-0.723-1.019-1.959-1.275-3.005-0.577
		c-1.696,1.132-3.365,2.304-5.049,3.455c-1.012,0.692-0.99,1.742-0.813,2.732c0.689,3.842,1.441,7.672,2.193,11.502
		c0.205,1.044,0.909,1.685,1.913,1.968c3.322,0.936,6.648,1.858,9.975,2.775c0.301,0.083,0.541,0.187,0.73,0.463
		c2.893,4.212,5.796,8.416,8.696,12.623c0.058,0.084,0.104,0.176,0.207,0.351c-1.643,0-3.168,0-4.693,0
		c-10.033,0-20.066-0.004-30.099,0.011c-0.533,0.001-0.717-0.08-0.717-0.681c0.02-18.369,0.019-36.738,0.002-55.106
		c0-0.568,0.134-0.699,0.7-0.699c15.447,0.017,30.894,0.015,46.341,0.008c0.425,0,0.685-0.015,0.684,0.579
		C159.042,63.565,159.047,77.315,159.047,91.065z"/>
	<path fill="#07A0A4" d="M93.256,55.82c-0.837-0.014-1.674-0.016-2.511,0.001c-1.134,0.024-1.943,0.825-1.946,1.966
		c-0.012,3.671-0.012,7.341,0,11.012c0.004,1.166,0.826,1.952,2.009,1.969c0.773,0.011,1.545,0.007,2.318,0.001
		c1.334-0.009,2.107-0.786,2.111-2.129c0.006-1.76,0.001-3.52,0.001-5.281c0-1.846,0.009-3.692-0.004-5.538
		C95.226,56.641,94.427,55.84,93.256,55.82z"/>
	<path fill="#07A0A4" d="M102.91,34.288c1.76,0.006,3.52,0.001,5.281,0.001c1.846,0,3.692,0.009,5.538-0.004
		c1.181-0.008,1.982-0.806,2.002-1.976c0.014-0.837,0.016-1.674-0.001-2.511c-0.023-1.135-0.823-1.945-1.964-1.948
		c-3.671-0.013-7.341-0.013-11.012,0c-1.168,0.004-1.954,0.824-1.971,2.007c-0.011,0.773-0.007,1.545-0.001,2.318
		C100.791,33.508,101.569,34.284,102.91,34.288z"/>
	<path fill="#07A0A4" d="M125.483,55.82c-0.837-0.014-1.675-0.016-2.511,0.001c-1.136,0.024-1.943,0.823-1.947,1.965
		c-0.012,3.671-0.012,7.342,0,11.013c0.004,1.167,0.825,1.952,2.009,1.969c0.773,0.011,1.546,0.007,2.318,0.001
		c1.335-0.009,2.107-0.785,2.111-2.129c0.006-1.782,0.001-3.563,0.001-5.345c0-1.825,0.009-3.649-0.004-5.474
		C127.453,56.639,126.656,55.84,125.483,55.82z"/>
</g>
</svg>
