<?xml version="1.0" encoding="utf-8"?>
<!-- Generator: Adobe Illustrator 18.0.0, SVG Export Plug-In . SVG Version: 6.00 Build 0)  -->
<!DOCTYPE svg PUBLIC "-//W3C//DTD SVG 1.1//EN" "http://www.w3.org/Graphics/SVG/1.1/DTD/svg11.dtd">
<svg version="1.1" id="图层_1" xmlns="http://www.w3.org/2000/svg" xmlns:xlink="http://www.w3.org/1999/xlink" x="0px" y="0px"
	 viewBox="0 0 216 132" enable-background="new 0 0 216 132" xml:space="preserve">
<g>
	<path fill="#07A0A4" d="M163.106,13.02c-18.346-0.001-36.693-0.001-55.039-0.001c-14.243,0-28.486,0-42.729,0
		c-4.168,0-8.335,0.004-12.503-0.005c-0.533-0.001-1.025,0.087-1.453,0.417c-0.886,0.68-0.972,1.754-0.205,2.522
		c1.003,1.003,2.023,1.988,2.999,3.016c0.356,0.375,0.719,0.507,1.231,0.506c35.06-0.012,70.12-0.011,105.18-0.011
		c0.107,0,0.216-0.011,0.322,0.002c0.278,0.034,0.481-0.069,0.679-0.27c1.161-1.178,2.331-2.348,3.509-3.509
		c0.201-0.199,0.275-0.402,0.271-0.68C165.353,13.77,164.512,13.02,163.106,13.02z"/>
	<path fill="#07A0A4" d="M159.286,21.505c-17.058,0.034-34.115,0.023-51.173,0.023c-17.079,0-34.158,0.012-51.237-0.023
		c-1.379-0.003-2.267,0.966-2.266,2.247c0.029,31.193,0.023,62.387,0.023,93.58c0,1.741,0.676,2.422,2.404,2.422
		c34.029,0,68.058,0,102.088,0c1.684,0,2.372-0.693,2.372-2.389c0-31.215-0.006-62.43,0.022-93.645
		C161.519,22.48,160.626,21.502,159.286,21.505z M61.755,27.957c14.158,0.019,28.316,0.019,42.474,0
		c0.586-0.001,0.69,0.161,0.69,0.709c-0.015,18.648-0.015,37.296,0,55.944c0,0.569-0.118,0.741-0.722,0.74
		c-14.136-0.019-28.273-0.019-42.409,0c-0.604,0.001-0.723-0.171-0.722-0.741c0.018-9.324,0.013-18.648,0.013-27.972
		c0-9.324,0.004-18.647-0.014-27.971C61.064,28.118,61.17,27.957,61.755,27.957z M104.92,112.664
		c0.002,0.549-0.151,0.659-0.675,0.657c-7.09-0.018-14.179-0.012-21.269-0.012c-7.068,0-14.136-0.007-21.204,0.013
		c-0.548,0.002-0.711-0.104-0.709-0.69c0.025-6.724,0.025-13.449,0-20.173c-0.002-0.586,0.161-0.69,0.709-0.69
		c14.158,0.016,28.316,0.016,42.473,0c0.524,0,0.677,0.108,0.675,0.657C104.899,99.172,104.899,105.918,104.92,112.664z
		 M155.063,112.615c0.002,0.548-0.103,0.711-0.689,0.709c-7.068-0.024-14.136-0.016-21.204-0.016c-7.047,0-14.093-0.008-21.14,0.016
		c-0.585,0.002-0.692-0.159-0.691-0.708c0.02-6.724,0.019-13.449,0-20.173c-0.001-0.524,0.108-0.675,0.657-0.675
		c14.136,0.017,28.273,0.017,42.409,0c0.548-0.001,0.659,0.149,0.658,0.674C155.044,99.166,155.044,105.891,155.063,112.615z
		 M155.064,84.643c0.001,0.548-0.104,0.709-0.69,0.709c-14.115-0.02-28.23-0.02-42.345,0c-0.585,0.001-0.69-0.16-0.69-0.709
		c0.015-18.649,0.015-37.297,0-55.945c0-0.569,0.118-0.741,0.722-0.74c14.093,0.019,28.187,0.019,42.281,0
		c0.604-0.001,0.723,0.171,0.722,0.741c-0.018,9.324-0.013,18.648-0.013,27.972C155.051,65.995,155.046,75.319,155.064,84.643z"/>
	<path fill="#07A0A4" d="M94.369,68.961c0.794,0.015,1.588,0.008,2.382,0.002c1.298-0.01,2.086-0.79,2.094-2.081
		c0.008-1.352,0.002-2.704,0.002-4.056c0-1.374,0.011-2.747-0.004-4.121c-0.013-1.172-0.817-1.965-1.995-1.984
		c-0.815-0.013-1.631-0.013-2.447,0c-1.178,0.018-1.989,0.811-1.995,1.983c-0.013,2.769-0.014,5.537,0.001,8.306
		C92.414,68.146,93.23,68.939,94.369,68.961z"/>
	<path fill="#07A0A4" d="M121.807,56.725c-0.858-0.021-1.717-0.019-2.575-0.001c-1.133,0.023-1.939,0.826-1.944,1.967
		c-0.014,2.769-0.014,5.537,0,8.306c0.004,1.14,0.812,1.94,1.946,1.964c0.815,0.017,1.631,0.011,2.447,0.002
		c1.25-0.014,2.036-0.806,2.044-2.066c0.009-1.352,0.002-2.704,0.001-4.056c0-1.395,0.015-2.79-0.005-4.185
		C123.705,57.553,122.905,56.752,121.807,56.725z"/>
	<path fill="#07A0A4" d="M86.646,98.494c-2.811-0.021-5.623-0.02-8.435-0.002c-1.099,0.007-1.891,0.825-1.917,1.928
		c-0.019,0.815-0.011,1.631-0.003,2.447c0.012,1.258,0.797,2.052,2.049,2.061c1.352,0.01,2.704,0.002,4.056,0.002
		c1.395,0,2.79,0.013,4.185-0.005c1.109-0.014,1.919-0.805,1.947-1.898c0.023-0.879,0.023-1.76,0-2.64
		C88.501,99.32,87.71,98.502,86.646,98.494z"/>
	<path fill="#07A0A4" d="M137.906,98.487c-1.352-0.009-2.704-0.002-4.056-0.002c-1.395,0-2.79-0.014-4.185,0.005
		c-1.105,0.016-1.908,0.813-1.936,1.91c-0.022,0.858-0.018,1.717-0.001,2.575c0.022,1.135,0.823,1.943,1.962,1.949
		c2.769,0.014,5.537,0.014,8.306,0c1.167-0.006,1.954-0.824,1.971-2.006c0.011-0.794,0.009-1.588,0.001-2.382
		C139.954,99.285,139.163,98.495,137.906,98.487z"/>
</g>
</svg>
