<?xml version="1.0" encoding="utf-8"?>
<!-- Generator: Adobe Illustrator 18.0.0, SVG Export Plug-In . SVG Version: 6.00 Build 0)  -->
<!DOCTYPE svg PUBLIC "-//W3C//DTD SVG 1.1//EN" "http://www.w3.org/Graphics/SVG/1.1/DTD/svg11.dtd">
<svg version="1.1" id="图层_1" xmlns="http://www.w3.org/2000/svg" xmlns:xlink="http://www.w3.org/1999/xlink" x="0px" y="0px"
	 viewBox="0 0 216 132" enable-background="new 0 0 216 132" xml:space="preserve">
<path fill="#07A0A4" d="M157.191,92.052c-9.919-8.952-19.837-17.906-29.765-26.849c-0.357-0.321-0.434-0.472-0.023-0.84
	c5.118-4.589,10.217-9.2,15.319-13.806c6.362-5.743,12.706-11.507,19.094-17.222c2.511-2.247,3.68-5.043,3.818-8.111
	c-0.046-3.269-1.076-5.908-3.198-8.084c-4.277-4.387-11.141-4.467-15.87-0.2c-11.961,10.793-23.921,21.588-35.874,32.392
	c-0.313,0.283-0.511,0.356-0.832,0.022c-0.415-0.433-0.885-0.814-1.332-1.217C95.692,36.55,82.854,24.963,70.017,13.378
	c-0.795-0.717-1.671-0.81-2.604-0.291c-0.462,0.257-0.795,0.651-1.14,1.033c-3.377,3.752-6.753,7.505-10.128,11.258
	c-1.494,1.661-2.993,3.317-4.478,4.986c-1.108,1.245-1.026,2.482,0.2,3.586c1.517,1.365,3.028,2.737,4.543,4.104
	c9.043,8.16,18.086,16.319,27.129,24.479c1.946,1.756,3.883,3.521,5.842,5.262c0.351,0.312,0.353,0.495-0.007,0.777
	c-0.405,0.317-0.772,0.683-1.155,1.028c-9.059,8.174-18.12,16.346-27.176,24.523c-2.264,2.044-4.51,4.107-6.764,6.162
	c-0.461,0.42-0.706,0.94-0.828,1.558c-0.741,3.763-1.505,7.522-2.261,11.282c-0.258,1.283-0.518,2.565-0.765,3.849
	c-0.194,1.008,0.338,1.63,1.361,1.612c0.215-0.004,0.429-0.019,0.644-0.033c4.993-0.327,9.985-0.664,14.979-0.974
	c0.721-0.045,1.324-0.251,1.863-0.738c5.482-4.955,10.974-9.899,16.46-14.85c6.778-6.116,13.555-12.233,20.327-18.357
	c0.288-0.26,0.455-0.378,0.82-0.048c8.696,7.871,17.407,15.726,26.115,23.584c4.386,3.958,8.773,7.913,13.155,11.876
	c0.705,0.637,1.474,0.721,2.326,0.37c0.6-0.247,1.001-0.727,1.417-1.19c2.974-3.306,5.947-6.612,8.921-9.918
	c1.882-2.092,3.769-4.18,5.643-6.279c1.112-1.245,1.036-2.488-0.184-3.587C161.908,96.316,159.551,94.182,157.191,92.052z
	 M65.104,37.219c-1.881-1.698-3.756-3.404-5.647-5.09c-0.3-0.268-0.352-0.423-0.053-0.752c3.015-3.325,6.016-6.662,9.006-10.01
	c0.289-0.324,0.452-0.377,0.798-0.057c1.544,1.43,3.111,2.835,4.688,4.229c0.293,0.259,0.323,0.404,0.041,0.699
	c-1.158,1.21-2.295,2.441-3.429,3.674c-0.944,1.026-0.898,2.068,0.123,3.04c0.544,0.518,1.092,1.034,1.65,1.537
	c0.89,0.803,1.978,0.781,2.806-0.089c1.2-1.259,2.385-2.534,3.551-3.824c0.296-0.328,0.468-0.346,0.801-0.036
	c1.431,1.331,2.883,2.64,4.347,3.933c0.324,0.286,0.415,0.466,0.039,0.775c-0.347,0.285-0.643,0.632-0.957,0.955
	c-0.608,0.625-0.74,1.252-0.236,1.966c0.771,1.091,1.745,2.016,2.827,2.79c0.733,0.525,1.372,0.378,2.012-0.263
	c0.41-0.41,0.833-0.809,1.219-1.241c0.23-0.257,0.374-0.215,0.607-0.003c1.618,1.476,3.242,2.946,4.882,4.398
	c0.296,0.262,0.246,0.403-0.008,0.638c-0.426,0.393-0.822,0.818-1.228,1.232c-0.635,0.65-0.769,1.289-0.239,2.016
	c0.785,1.077,1.765,1.985,2.834,2.785c0.257,0.192,0.582,0.27,0.914,0.266c0.395,0.016,0.697-0.163,0.964-0.437
	c0.509-0.523,1.039-1.027,1.536-1.562c0.23-0.247,0.368-0.303,0.654-0.04c1.818,1.671,3.651,3.327,5.498,4.966
	c0.317,0.281,0.281,0.41-0.011,0.672c-3.39,3.039-6.772,6.087-10.141,9.15c-0.305,0.277-0.456,0.222-0.726-0.023
	C84.523,54.744,74.813,45.982,65.104,37.219z M102.296,78.36C91.197,88.377,80.1,98.395,69.002,108.413
	c-0.111,0.1-0.225,0.196-0.325,0.283c-0.18,0.013-0.237-0.119-0.318-0.209c-1.927-2.138-3.841-4.288-5.787-6.409
	c-0.386-0.421-0.085-0.575,0.163-0.799c5.038-4.549,10.077-9.098,15.116-13.645c8.611-7.772,17.223-15.542,25.835-23.314
	c11.705-10.563,23.411-21.126,35.116-31.69c2.854-2.576,5.712-5.148,8.554-7.739c0.321-0.293,0.481-0.326,0.791,0.024
	c1.821,2.06,3.655,4.108,5.522,6.127c0.418,0.452,0.334,0.673-0.078,1.044c-8.11,7.301-16.208,14.616-24.309,21.926
	C120.287,62.129,111.29,70.243,102.296,78.36z M156.754,100.971c-3.039,3.362-6.07,6.73-9.09,10.109
	c-0.271,0.303-0.417,0.286-0.706,0.024c-8.316-7.52-16.641-15.03-24.964-22.541c-3.38-3.051-6.756-6.107-10.15-9.142
	c-0.412-0.369-0.521-0.55-0.031-0.985c3.306-2.94,6.585-5.911,9.853-8.895c0.39-0.356,0.62-0.354,0.987,0.001
	c0.755,0.732,1.54,1.436,2.339,2.12c0.319,0.272,0.345,0.425,0.024,0.728c-1.342,1.269-2.66,2.564-3.981,3.856
	c-1.043,1.021-1.069,2.036-0.08,3.089c0.5,0.532,1.007,1.058,1.524,1.574c0.909,0.909,1.972,0.944,2.903,0.056
	c1.477-1.408,2.935-2.836,4.383-4.274c0.285-0.283,0.457-0.327,0.772-0.03c0.936,0.885,1.898,1.744,2.871,2.589
	c0.295,0.257,0.26,0.405-0.009,0.643c-0.579,0.512-1.131,1.055-1.696,1.582c-0.723,0.675-0.873,1.36-0.299,2.165
	c0.723,1.012,1.58,1.932,2.552,2.711c0.782,0.626,1.434,0.532,2.175-0.158c0.707-0.659,1.411-1.322,2.114-1.985
	c0.178-0.169,0.312-0.314,0.579-0.069c1.533,1.409,3.083,2.798,4.658,4.222c-0.543,0.509-1.056,0.994-1.574,1.475
	c-0.753,0.7-0.898,1.387-0.299,2.214c0.717,0.99,1.558,1.894,2.507,2.666c0.78,0.634,1.453,0.55,2.178-0.124
	c0.566-0.526,1.138-1.048,1.688-1.591c0.221-0.219,0.363-0.263,0.622-0.029c2.701,2.457,5.411,4.903,8.131,7.34
	C157.012,100.563,156.992,100.708,156.754,100.971z"/>
</svg>
