<?xml version="1.0" encoding="utf-8"?>
<!-- Generator: Adobe Illustrator 18.0.0, SVG Export Plug-In . SVG Version: 6.00 Build 0)  -->
<!DOCTYPE svg PUBLIC "-//W3C//DTD SVG 1.1//EN" "http://www.w3.org/Graphics/SVG/1.1/DTD/svg11.dtd">
<svg version="1.1" id="图层_1" xmlns="http://www.w3.org/2000/svg" xmlns:xlink="http://www.w3.org/1999/xlink" x="0px" y="0px"
	 viewBox="0 0 216 132" enable-background="new 0 0 216 132" xml:space="preserve">
<g>
	<path fill="#07A0A4" d="M163.438,18.563c-18.455,0-36.91,0-55.364,0c-18.476,0-36.953,0.012-55.429-0.024
		c-1.374-0.003-2.291,0.92-2.289,2.289c0.031,26.791,0.023,53.581,0.023,80.372c0,3.395,0.004,6.789-0.004,10.183
		c-0.001,0.51,0.08,0.981,0.389,1.397c0.503,0.679,1.211,0.792,2.001,0.792c36.738-0.007,73.475-0.006,110.213-0.007
		c0.193,0,0.388,0.01,0.58-0.006c0.664-0.057,1.287-0.331,1.504-0.947c-0.02,0.056,0.576-0.924,0.575-2.914
		c-0.018-29.562,0.243-59.124,0.243-88.686C165.879,19.231,165.213,18.563,163.438,18.563z M159.45,106.379
		c0,0.635-0.166,0.757-0.773,0.756c-33.709-0.016-67.417-0.016-101.126-0.002c-0.568,0-0.741-0.117-0.741-0.721
		c0.017-26.898,0.017-53.796,0-80.695c0-0.603,0.17-0.723,0.74-0.722c16.865,0.015,33.73,0.012,50.595,0.012
		c16.844,0,33.687,0.004,50.531-0.014c0.606-0.001,0.775,0.119,0.774,0.756C159.431,52.626,159.431,79.502,159.45,106.379z"/>
	<path fill="#07A0A4" d="M64.04,30.813c-0.708-0.018-1.418-0.005-2.126-0.004c-1.689,0.001-2.383,0.692-2.383,2.379
		c0,10.976,0,21.952,0,32.928c0,10.933,0,21.866,0,32.799c0,0.215-0.006,0.43,0.003,0.644c0.048,1.065,0.832,1.852,1.901,1.885
		c0.687,0.021,1.375,0.005,2.062,0.005c1.825,0,2.479-0.653,2.479-2.475c0-21.888,0-43.775,0-65.663c0-0.193,0.005-0.387-0.002-0.58
		C65.934,31.632,65.145,30.841,64.04,30.813z"/>
	<path fill="#07A0A4" d="M74.461,30.812c-0.687-0.016-1.375-0.004-2.062-0.004c-1.744,0-2.427,0.675-2.427,2.399
		c0,10.976,0,21.952,0,32.928c0,7.926,0,15.852,0,23.778c0,3.157-0.005,6.315,0.003,9.472c0.003,1.259,0.797,2.047,2.051,2.062
		c0.644,0.007,1.289,0.002,1.933,0.001c1.789,0,2.459-0.662,2.459-2.431c0-21.931,0-43.861,0-65.792c0-0.15,0.003-0.301-0.001-0.451
		C76.385,31.636,75.598,30.838,74.461,30.812z"/>
	<path fill="#07A0A4" d="M84.849,30.809c-0.644-0.004-1.289-0.001-1.933-0.001c-1.683,0.001-2.372,0.695-2.372,2.389
		c0,10.955,0,21.909,0,32.864c0,7.002,0,14.005,0,21.007c0,4.06-0.002,8.119,0.001,12.179c0.001,1.435,0.754,2.195,2.171,2.202
		c0.623,0.003,1.246,0.001,1.869,0c1.728-0.001,2.405-0.681,2.405-2.42c0-21.931,0-43.861,0-65.792c0-0.086,0-0.172,0-0.258
		C86.98,31.59,86.221,30.818,84.849,30.809z"/>
	<path fill="#07A0A4" d="M95.415,30.811c-0.687-0.011-1.375-0.003-2.062-0.002c-1.68,0.001-2.369,0.696-2.369,2.392
		c0,10.976,0,21.952,0,32.928c0,7.282,0,14.563,0,21.844c0,3.802-0.004,7.604,0.002,11.406c0.002,1.262,0.793,2.053,2.044,2.068
		c0.666,0.008,1.332,0.002,1.998,0.002c1.726-0.001,2.401-0.682,2.401-2.424c0-21.931,0-43.861,0-65.792
		c0-0.129,0.002-0.258,0-0.387C97.409,31.627,96.625,30.83,95.415,30.811z"/>
	<path fill="#07A0A4" d="M154.178,30.787c-16.864,0.032-33.729,0.032-50.593,0c-1.206-0.002-2.187,0.905-2.182,2.2
		c0.039,11.042,0.022,22.085,0.022,33.127c0,11.064,0,22.128,0,33.191c0,1.401,0.737,2.143,2.13,2.143c16.886,0,33.771,0,50.657,0
		c1.392,0,2.127-0.741,2.127-2.146c0-22.106-0.008-44.212,0.022-66.318C156.363,31.702,155.395,30.784,154.178,30.787z
		 M149.91,94.326c0.001,0.585-0.159,0.691-0.708,0.69c-13.556-0.016-27.113-0.016-40.669,0c-0.523,0.001-0.675-0.108-0.675-0.657
		c0.016-18.82,0.016-37.64,0-56.46c0-0.548,0.149-0.658,0.674-0.658c13.556,0.016,27.113,0.016,40.669,0
		c0.548-0.001,0.71,0.103,0.709,0.69c-0.022,9.41-0.015,18.82-0.015,28.23C149.895,75.549,149.888,84.938,149.91,94.326z"/>
</g>
</svg>
