<?xml version="1.0" encoding="utf-8"?>
<!-- Generator: Adobe Illustrator 18.0.0, SVG Export Plug-In . SVG Version: 6.00 Build 0)  -->
<!DOCTYPE svg PUBLIC "-//W3C//DTD SVG 1.1//EN" "http://www.w3.org/Graphics/SVG/1.1/DTD/svg11.dtd">
<svg version="1.1" id="图层_1" xmlns="http://www.w3.org/2000/svg" xmlns:xlink="http://www.w3.org/1999/xlink" x="0px" y="0px"
	 viewBox="0 0 216 132" enable-background="new 0 0 216 132" xml:space="preserve">
<g>
	<path fill="#07A0A4" d="M159.873,15.526c0-1.587-0.717-2.298-2.316-2.298c-32.827,0-65.653,0.005-98.479-0.022
		c-1.252-0.001-2.208,0.897-2.205,2.223c0.034,17.012,0.023,34.025,0.023,51.037c0,16.97,0,33.939,0,50.909
		c0,1.766,0.664,2.427,2.445,2.427c32.805,0,65.61,0,98.415,0c1.387,0,2.119-0.738,2.119-2.137
		C159.874,83.618,159.874,49.572,159.873,15.526z M67.365,113.398c-1.152-0.057-2.31-0.03-3.465-0.008
		c-0.366,0.007-0.512-0.103-0.46-0.467c0.015-0.105,0.002-0.214,0.002-0.321c0-30.721,0.002-61.443-0.014-92.164
		c0-0.617,0.102-0.851,0.781-0.809c1.108,0.068,2.224,0.038,3.336,0.009c0.422-0.011,0.532,0.114,0.529,0.533
		c-0.02,2.353-0.01,4.706-0.01,7.06c0,13.093,0,26.186,0,39.279c0,15.382-0.003,30.764,0.012,46.146
		C68.078,113.211,67.981,113.428,67.365,113.398z M104.924,112.99c0.007,0.311-0.095,0.431-0.399,0.394
		c-0.105-0.013-0.214-0.002-0.32-0.002c-9.664,0-19.328-0.005-28.992,0.012c-0.554,0.001-0.791-0.093-0.741-0.712
		c0.062-0.765,0.046-1.54,0.003-2.307c-0.027-0.482,0.115-0.602,0.597-0.599c3.72,0.022,7.44,0.012,11.161,0.012
		c1.155,0,2.309,0,3.464,0c4.875,0,9.75,0.006,14.624-0.01c0.459-0.001,0.638,0.08,0.611,0.585
		C104.884,111.235,104.905,112.114,104.924,112.99z M104.917,61.501c0,13.714-0.003,27.428,0.012,41.142
		c0.001,0.565-0.114,0.74-0.718,0.739c-9.67-0.021-19.341-0.021-29.011-0.001c-0.583,0.001-0.729-0.143-0.728-0.728
		c0.015-27.428,0.015-54.856,0.001-82.284c0-0.568,0.119-0.737,0.718-0.736c9.67,0.021,19.341,0.02,29.011,0.001
		c0.579-0.001,0.73,0.137,0.729,0.725C104.913,34.073,104.917,47.787,104.917,61.501z M141.775,112.986
		c0.007,0.306-0.086,0.436-0.396,0.397c-0.105-0.013-0.214-0.002-0.32-0.002c-9.664,0-19.328-0.008-28.992,0.017
		c-0.645,0.002-0.786-0.183-0.743-0.778c0.054-0.744,0.044-1.497,0.002-2.243c-0.027-0.475,0.105-0.606,0.593-0.603
		c3.463,0.023,6.927,0.012,10.391,0.012c1.411,0,2.822,0,4.233,0c4.853,0,9.707,0.008,14.56-0.012
		c0.508-0.002,0.716,0.082,0.679,0.647C141.729,111.274,141.757,112.132,141.775,112.986z M141.05,103.379
		c-9.67-0.018-19.341-0.02-29.011,0.003c-0.612,0.001-0.713-0.188-0.713-0.743c0.013-27.428,0.014-54.856-0.003-82.284
		c0-0.598,0.164-0.721,0.734-0.72c9.67,0.018,19.341,0.019,29.011-0.003c0.608-0.001,0.714,0.181,0.713,0.741
		c-0.015,13.735-0.012,27.471-0.012,41.206c0,13.693-0.004,27.385,0.014,41.078C141.784,103.25,141.624,103.38,141.05,103.379z
		 M152.539,113.397c-1.281-0.052-2.567-0.029-3.85-0.008c-0.375,0.006-0.575-0.068-0.502-0.486c0.018-0.104,0.003-0.214,0.003-0.32
		c0-30.721,0.003-61.443-0.017-92.164c0-0.66,0.167-0.815,0.801-0.787c1.217,0.054,2.439,0.043,3.657,0.003
		c0.539-0.018,0.715,0.091,0.711,0.683c-0.029,4.706-0.016,9.413-0.016,14.12c0,10.697,0,21.394,0,32.09
		c0,15.361-0.005,30.721,0.017,46.082C153.343,113.272,153.171,113.423,152.539,113.397z"/>
	<path fill="#07A0A4" d="M80.334,59.969c-0.748-0.013-1.497-0.005-2.245-0.003c-1.425,0.005-2.186,0.755-2.19,2.163
		c-0.004,1.39-0.001,2.779,0,4.169c0,1.475-0.013,2.951,0.005,4.425c0.013,1.133,0.814,1.928,1.947,1.949
		c0.834,0.016,1.668,0.015,2.501,0c1.163-0.021,1.959-0.821,1.963-1.999c0.01-2.908,0.011-5.815,0-8.723
		C82.309,60.782,81.505,59.989,80.334,59.969z"/>
	<path fill="#07A0A4" d="M138.405,59.97c-0.791-0.016-1.582-0.009-2.373-0.003c-1.32,0.01-2.089,0.791-2.094,2.131
		c-0.005,1.411-0.001,2.822-0.001,4.233c0,1.454-0.011,2.908,0.004,4.361c0.011,1.171,0.81,1.964,1.98,1.982
		c0.812,0.013,1.625,0.012,2.437,0c1.176-0.017,1.989-0.803,1.994-1.968c0.013-2.929,0.013-5.858-0.001-8.787
		C140.346,60.787,139.538,59.993,138.405,59.97z"/>
</g>
</svg>
