<?xml version="1.0" encoding="utf-8"?>
<!-- Generator: Adobe Illustrator 18.0.0, SVG Export Plug-In . SVG Version: 6.00 Build 0)  -->
<!DOCTYPE svg PUBLIC "-//W3C//DTD SVG 1.1//EN" "http://www.w3.org/Graphics/SVG/1.1/DTD/svg11.dtd">
<svg version="1.1" id="图层_1" xmlns="http://www.w3.org/2000/svg" xmlns:xlink="http://www.w3.org/1999/xlink" x="0px" y="0px"
	 viewBox="0 0 216 132" enable-background="new 0 0 216 132" xml:space="preserve">
<g>
	<path fill="#07A0A4" d="M108.925,12.633c-29.614-0.038-53.617,23.801-53.648,53.28c-0.031,29.612,23.839,53.56,53.408,53.583
		c29.524,0.023,53.406-23.868,53.454-53.473C162.188,36.705,138.232,12.67,108.925,12.633z M108.714,113.051
		c-25.965,0.004-46.987-21.014-46.991-46.982c-0.004-25.964,21.014-46.987,46.982-46.991c25.964-0.004,46.987,21.015,46.991,46.982
		C155.699,92.025,134.681,113.047,108.714,113.051z"/>
	<path fill="#07A0A4" d="M80.559,42.667c3.401,1.824,6.811,3.635,10.229,5.426c1.036,0.543,2.062,0.204,2.639-0.817
		c0.411-0.728,0.788-1.475,1.177-2.216c0.151-0.288,0.256-0.591,0.248-0.924c-0.03-0.768-0.366-1.364-1.047-1.727
		c-3.406-1.816-6.812-3.631-10.23-5.425c-0.999-0.524-2.054-0.202-2.609,0.762c-0.438,0.762-0.848,1.542-1.231,2.332
		C79.243,41.095,79.559,42.13,80.559,42.667z"/>
	<path fill="#07A0A4" d="M138.95,31.012c-1.218-1.166-2.276-1.152-3.44,0.066c-1.647,1.724-3.294,3.449-4.919,5.194
		c-0.32,0.344-0.639,0.478-1.11,0.477c-9.409-0.014-18.819-0.011-28.228-0.01c-1.228,0-2.017,0.78-2.017,1.996
		c-0.003,5.328-0.002,10.655,0,15.983c0.001,1.219,0.788,1.998,2.015,1.999c2.75,0.003,5.5,0.001,8.249,0.001
		c0.506,0,1.013,0,1.663,0c-0.874,0.923-1.662,1.731-2.42,2.566c-0.268,0.295-0.542,0.413-0.945,0.409
		c-2.191-0.02-4.382-0.019-6.574-0.005c-1.125,0.007-1.947,0.779-1.981,1.866c-0.029,0.901-0.028,1.805,0,2.706
		c0.032,1.035,0.821,1.812,1.854,1.863c0.333,0.017,0.668,0.003,1.135,0.003c-1.023,1.081-1.984,2.026-2.861,3.043
		c-0.72,0.835-1.453,1.377-2.667,1.251c-1.013-0.105-1.801,0.802-1.847,1.838c-0.019,0.429-0.011,0.859-0.003,1.289
		c0.004,0.223-0.034,0.406-0.202,0.58c-1.058,1.098-2.104,2.206-3.281,3.445c0-0.399,0-0.628,0-0.856
		c0-6.638,0.001-13.276-0.001-19.914c0-1.175-0.763-2.01-1.87-2.013c-3.867-0.009-7.734-0.01-11.601,0.001
		c-1.178,0.003-1.974,0.811-1.994,1.987c-0.013,0.752-0.005,1.504-0.002,2.256c0.005,1.433,0.756,2.195,2.176,2.197
		c2.062,0.004,4.125,0.02,6.187-0.012c0.527-0.008,0.675,0.112,0.674,0.659c-0.02,7.196-0.031,14.393,0.008,21.589
		c0.005,0.896-0.337,1.399-1.08,1.748c-0.458,0.215-0.895,0.504-1.047,0.995c-0.182,0.589-0.581,0.985-0.979,1.402
		c-0.86,0.901-1.717,1.806-2.574,2.711c-0.916,0.967-1.851,1.916-2.739,2.909c-0.919,1.028-0.843,2.129,0.15,3.067
		c0.422,0.398,0.842,0.798,1.261,1.199c1.245,1.192,2.285,1.173,3.485-0.087c2.075-2.177,4.147-4.357,6.206-6.549
		c0.433-0.461,0.908-0.833,1.468-1.127c2.546-1.334,5.083-2.684,7.619-4.036c1.228-0.654,1.536-1.672,0.896-2.913
		c-0.197-0.381-0.376-0.774-0.607-1.134c-0.197-0.308-0.157-0.507,0.098-0.768c1.183-1.217,2.351-2.448,3.504-3.693
		c0.259-0.28,0.525-0.371,0.896-0.368c2.062,0.016,4.125,0.008,6.187,0.008c0.676,0,1.352,0,2.144,0
		c-0.176,0.208-0.267,0.318-0.361,0.425c-3.502,4.042-7.004,8.084-10.509,12.123c-0.515,0.593-0.907,1.249-1.083,2.021
		c-0.171,0.746-0.049,1.395,0.588,1.907c0.535,0.43,1.048,0.89,1.553,1.356c0.531,0.491,1.123,0.573,1.791,0.355
		c0.824-0.269,1.466-0.788,2.024-1.431c4.126-4.752,8.26-9.497,12.367-14.265c0.39-0.452,0.533-0.378,0.879,0.023
		c4.111,4.764,8.243,9.512,12.369,14.263c0.543,0.626,1.173,1.129,1.971,1.4c0.688,0.233,1.302,0.154,1.847-0.363
		c0.374-0.354,0.755-0.706,1.167-1.014c1.202-0.901,1.303-1.693,0.579-3.216c-0.172-0.363-0.427-0.697-0.692-1.003
		c-2.483-2.879-4.977-5.748-7.467-8.621c-1.117-1.289-2.233-2.578-3.429-3.96c0.344,0,0.553,0,0.762,0
		c4.146,0,8.292,0.002,12.438-0.001c1.421-0.001,2.173-0.763,2.178-2.195c0.002-0.623,0.001-1.246,0-1.869
		c-0.001-1.688-0.693-2.38-2.382-2.38c-5.478,0-10.956-0.009-16.434,0.013c-0.543,0.002-0.688-0.138-0.662-0.671
		c0.046-0.964,0.045-1.934,0.001-2.899c-0.025-0.544,0.093-0.718,0.686-0.714c4.06,0.031,8.12,0.02,12.18,0.014
		c1.3-0.002,2.085-0.788,2.098-2.081c0.006-0.58-0.039-1.163,0.008-1.739c0.156-1.887-0.88-2.672-2.598-2.646
		c-4.553,0.068-9.108,0.023-13.663,0.023c-0.225,0-0.45,0-0.795,0c0.817-0.866,1.553-1.611,2.245-2.396
		c0.367-0.416,0.754-0.587,1.323-0.583c3.802,0.027,7.605,0.015,11.407,0.014c1.31-0.001,2.073-0.762,2.073-2.07
		c0.001-4.125,0.005-8.249-0.007-12.374c-0.001-0.392,0.097-0.678,0.378-0.963c1.038-1.057,2.049-2.142,3.068-3.218
		c0.887-0.935,1.793-1.853,2.65-2.815c0.893-1.003,0.823-2.119-0.129-3.023C139.822,31.841,139.384,31.428,138.95,31.012z
		 M112.559,70.388c-1.776-0.011-3.552-0.006-5.48-0.006c1.352-1.42,2.591-2.724,3.835-4.024c0.185-0.194,1.719-0.34,1.902-0.193
		c0.119,0.096,0.081,0.235,0.081,0.358c0.003,1.158-0.003,2.317,0.005,3.475C112.903,70.248,112.865,70.39,112.559,70.388z
		 M119.402,48.046c-0.71,0.745-1.317,1.751-2.191,2.131c-0.851,0.37-1.984,0.095-2.993,0.096c-2.642,0.002-5.285-0.015-7.927,0.014
		c-0.525,0.006-0.63-0.156-0.623-0.644c0.027-1.976,0.016-3.953,0.007-5.929c-0.002-0.334-0.001-0.543,0.457-0.542
		c5.907,0.017,11.814,0.011,17.878,0.011C122.408,44.875,120.909,46.465,119.402,48.046z M126.243,50.197
		c0.559-0.498,1.091-0.973,1.609-1.435c0,0.013-0.001,0.098,0,0.183C127.865,50.454,127.865,50.454,126.243,50.197z"/>
</g>
</svg>
