<?xml version="1.0" encoding="utf-8"?>
<!-- Generator: Adobe Illustrator 18.0.0, SVG Export Plug-In . SVG Version: 6.00 Build 0)  -->
<!DOCTYPE svg PUBLIC "-//W3C//DTD SVG 1.1//EN" "http://www.w3.org/Graphics/SVG/1.1/DTD/svg11.dtd">
<svg version="1.1" id="图层_1" xmlns="http://www.w3.org/2000/svg" xmlns:xlink="http://www.w3.org/1999/xlink" x="0px" y="0px"
	 viewBox="0 0 216 132" enable-background="new 0 0 216 132" xml:space="preserve">
<g>
	<path fill="#07A0A4" d="M152.859,66.29c0-17.122-0.01-34.245,0.022-51.367c0.002-1.203-0.902-2.184-2.199-2.182
		c-28.229,0.028-56.459,0.029-84.688-0.001c-1.332-0.001-2.232,0.968-2.231,2.216c0.028,34.202,0.028,68.404,0,102.605
		c-0.001,1.242,0.894,2.216,2.232,2.215c28.208-0.029,56.416-0.03,84.624,0.001c1.361,0.001,2.267-0.951,2.264-2.249
		C152.848,100.449,152.859,83.369,152.859,66.29z M134.716,113.325c-17.595-0.02-35.191-0.02-52.786,0
		c-0.636,0.001-0.756-0.168-0.756-0.774c0.016-27.564,0.016-55.128,0.002-82.692c0-0.569,0.118-0.741,0.722-0.74
		c17.617,0.018,35.234,0.018,52.851,0c0.604-0.001,0.722,0.171,0.722,0.74c-0.016,13.793-0.013,27.586-0.013,41.378
		c0,13.771-0.004,27.543,0.015,41.314C135.472,113.157,135.352,113.326,134.716,113.325z M146.43,112.566
		c0.001,0.635-0.163,0.787-0.774,0.757c-1.093-0.054-2.191-0.029-3.286-0.008c-0.356,0.007-0.522-0.081-0.471-0.46
		c0.023-0.169,0.004-0.343,0.004-0.515c0-29.132-0.007-58.264,0.023-87.396c0.001-1.328-0.883-2.283-2.297-2.281
		c-20.882,0.034-41.765,0.034-62.647,0c-1.359-0.002-2.263,0.95-2.262,2.251c0.03,29.196,0.02,58.393,0.04,87.59
		c0,0.689-0.19,0.852-0.842,0.819c-1.071-0.055-2.148-0.029-3.222-0.007c-0.36,0.007-0.523-0.089-0.467-0.463
		c0.016-0.105,0.002-0.215,0.002-0.322c0-30.851,0.003-61.702-0.017-92.552c0-0.671,0.184-0.787,0.809-0.786
		c24.878,0.017,49.757,0.017,74.635,0c0.608,0,0.774,0.123,0.773,0.757c-0.021,15.447-0.016,30.894-0.016,46.341
		C146.414,81.716,146.41,97.141,146.43,112.566z"/>
	<path fill="#07A0A4" d="M126.133,63.037c-1.752,0.019-3.177,1.46-3.179,3.216c-0.002,1.783,1.449,3.231,3.233,3.225
		c1.783-0.005,3.221-1.46,3.209-3.248C129.385,64.45,127.922,63.018,126.133,63.037z"/>
</g>
</svg>
