<?xml version="1.0" standalone="no"?><!DOCTYPE svg PUBLIC "-//W3C//DTD SVG 1.1//EN" "http://www.w3.org/Graphics/SVG/1.1/DTD/svg11.dtd"><svg class="icon" width="742px" height="742.00px" viewBox="0 0 1024 1024" version="1.1" xmlns="http://www.w3.org/2000/svg"><path fill="#333333" d="M831.716357 1023.999976 194.564499 1023.999976c-64.000062 0-115.847838-57.303822-115.847838-128.000125L78.716661 576.000562c0-70.696303 51.847776-128.000125 115.847838-128.000125l0-95.999582c0-194.408951 142.606199-351.999832 318.575929-351.999832 175.939032 0 318.575929 157.59088 318.575929 351.999832l0 2.000482-0.363259 0c-0.999729 16.682277-13.242063 30.000061-28.607398 30.000061-15.331569 0-27.605623-13.317785-28.575677-30.000061l-0.362236 0 0-2.000482c0-159.060288-116.697148-287.999769-260.666335-287.999769-143.97021 0-260.63666 128.939482-260.63666 287.999769l0 95.999582 579.212588 0c63.969365 0 115.848862 57.303822 115.848862 128.000125l0 320.000312C947.565219 966.696154 895.685721 1023.999976 831.716357 1023.999976L831.716357 1023.999976zM889.624927 576.000562c0-35.348663-25.908027-64.000062-57.908571-64.000062L194.564499 512.0005c-31.999519 0-57.939269 28.651399-57.939269 64.000062l0 320.000312c0 35.348663 25.939748 64.000062 57.939269 64.000062l637.15288 0c31.968821 0 57.908571-28.651399 57.908571-64.000062L889.62595 576.000562 889.624927 576.000562zM542.080387 761.530649l0 102.469682c0 17.666658-12.9402 31.999519-28.939959 31.999519-16.000783 0-28.969634-14.333886-28.969634-31.999519l0-102.469682c-33.57637-13.258435-57.910617-47.864209-57.910617-89.515157 0-53.029647 38.879948-96.014931 86.879228-96.014931 47.969605 0 86.879228 42.985285 86.879228 96.014931C600.019656 713.666441 575.655735 748.272214 542.080387 761.530649L542.080387 761.530649zM513.140428 639.999601c-16.000783 0-28.969634 14.332863-28.969634 32.014868 0 17.651309 12.968851 31.985194 28.969634 31.985194 15.99976 0 28.939959-14.333886 28.939959-31.985194C542.080387 654.332464 529.140188 639.999601 513.140428 639.999601L513.140428 639.999601zM513.140428 639.999601" /></svg>