<?xml version="1.0" standalone="no"?><!DOCTYPE svg PUBLIC "-//W3C//DTD SVG 1.1//EN" "http://www.w3.org/Graphics/SVG/1.1/DTD/svg11.dtd"><svg class="icon" width="742px" height="742.00px" viewBox="0 0 1024 1024" version="1.1" xmlns="http://www.w3.org/2000/svg"><path fill="#333333" d="M312.384 97.216c-15.872 0-28.704 12.768-28.704 28.8l0 95.488c0 15.936 12.8 28.8 28.704 28.8l19.136 0c15.84 0 28.704-12.768 28.704-28.768l0-95.52c0-15.904-12.8-28.8-28.704-28.8L312.384 97.216 312.384 97.216zM704.736 97.216c-21.184 0-38.272 17.12-38.272 38.24l0 76.64c0 21.152 17.216 38.24 38.272 38.24 21.152 0 38.272-17.088 38.272-38.24l0-76.64C743.04 114.336 725.856 97.216 704.736 97.216L704.736 97.216zM168.8 316.288l0 64.16 689.056 0 0-64.16L168.8 316.288 168.8 316.288zM398.496 173.792l0 63.712 229.696 0 0-63.712L398.496 173.792 398.496 173.792zM781.312 237.504l114.848 0 0 625.344-765.632 0 0-625.344 114.848 0 0-63.712-181.312 0 0 714.72c0 38.272 42.112 38.272 42.112 38.272l815.456 0c0 0 38.272 0 38.272-38.272l0-714.72-178.656 0L781.248 237.504zM312.384 97.216c-15.872 0-28.704 12.768-28.704 28.8l0 95.488c0 15.936 12.8 28.8 28.704 28.8l19.136 0c15.84 0 28.704-12.768 28.704-28.768l0-95.52c0-15.904-12.8-28.8-28.704-28.8L312.384 97.216 312.384 97.216zM704.736 97.216c-21.184 0-38.272 17.12-38.272 38.24l0 76.64c0 21.152 17.216 38.24 38.272 38.24 21.152 0 38.272-17.088 38.272-38.24l0-76.64C743.04 114.336 725.856 97.216 704.736 97.216L704.736 97.216zM398.496 173.792l0 63.712 229.696 0 0-63.712L398.496 173.792 398.496 173.792zM781.312 237.504l114.848 0 0 625.344-765.632 0 0-625.344 114.848 0 0-63.712-181.312 0 0 714.72c0 38.272 42.112 38.272 42.112 38.272l815.456 0c0 0 38.272 0 38.272-38.272l0-714.72-178.656 0L781.248 237.504zM480.128 706.048c55.328 19.616 70.144 27.872 86.208 48.992 2.624 3.552 3.968 8.672 3.968 13.376 0 12.128-6.976 25.504-14.368 25.504-10.016 0-12.64-1.952-20.864-17.664-9.6-19.648-34.848-44.736-60.544-63.584L480.128 706.048zM425.728 542.784l-61.344 6.784c-1.504-12.64-5.408-21.984-11.744-27.968s-14.528-9.024-24.608-9.024c-13.376 0-24.672 6.016-33.952 18.048s-15.072 37.056-17.472 75.104c15.776-18.624 35.392-27.968 58.88-27.968 26.464 0 49.12 10.08 68 30.24 18.88 20.128 28.32 46.144 28.32 78.016 0 33.856-9.92 60.96-29.76 81.44-19.872 20.448-45.344 30.656-76.48 30.656-33.376 0-60.832-12.96-82.336-38.912-21.504-25.952-32.256-68.448-32.256-127.552 0-60.608 11.2-104.288 33.6-131.04 22.4-26.784 51.488-40.16 87.296-40.16 25.12 0 45.92 7.04 62.368 21.088C410.72 495.616 421.248 516.032 425.728 542.784zM282.048 681.056c0 20.64 4.736 36.512 14.208 47.712 9.472 11.2 20.288 16.8 32.48 16.8 11.712 0 21.504-4.608 29.312-13.792 7.84-9.152 11.744-24.192 11.744-45.088 0-21.504-4.192-37.248-12.64-47.296-8.416-10.016-18.944-15.008-31.584-15.008-12.192 0-22.496 4.768-30.912 14.336C286.272 648.32 282.048 662.432 282.048 681.056zM596.256 525.184l0-58.88 216.768 0 0 46.016c-17.888 17.6-36.064 42.848-54.592 75.776s-32.608 67.936-42.304 104.992c-9.696 37.088-14.496 70.176-14.336 99.36l-61.12 0c1.056-45.728 10.496-92.352 28.32-139.84 17.824-47.52 41.6-90.016 71.392-127.456L596.256 525.152z" /></svg>