<?xml version="1.0" standalone="no"?><!DOCTYPE svg PUBLIC "-//W3C//DTD SVG 1.1//EN" "http://www.w3.org/Graphics/SVG/1.1/DTD/svg11.dtd"><svg class="icon" width="742px" height="741.28px" viewBox="0 0 1025 1024" version="1.1" xmlns="http://www.w3.org/2000/svg"><path fill="#333333" d="M423.92723 768.088025c91.721797 0 174.849176-36.09015 236.530524-94.538589l0.368104 0.464131c1.632459-2.544716 3.504986-4.961395 5.729611-7.186021 16.660686-16.644681 43.660279-16.644681 60.320965 0l284.592042 284.399987c16.660686 16.644681 16.660686 43.644275 0 60.288956-16.660686 16.644681-43.660279 16.644681-60.320965 0L696.579913 757.092932c-73.524679 60.032884-167.231034 96.315089-269.595824 96.315089C191.157763 853.408021 0 662.362289 0 426.712013S191.157763 0 426.984089 0s426.984089 191.045732 426.984089 426.712013c0 46.445063-8.066269 90.857554-21.846144 132.709324-3.120878 20.453753-20.661811 36.186177-41.995811 36.186177-23.558626 0-42.651996-19.077366-42.651996-42.635991l-0.384108-3.953112c0-4.369229 0.848239-8.49839 2.064581-12.467506l-0.208059-0.080023c12.19543-35.225907 19.141384-72.900503 19.141384-112.287581 0-189.941421-154.075334-343.920728-344.144791-343.920728-190.053453 0-344.128786 153.979307-344.128786 343.920728C79.798443 614.108718 233.873777 768.088025 423.92723 768.088025z" /></svg>