<?xml version="1.0" standalone="no"?><!DOCTYPE svg PUBLIC "-//W3C//DTD SVG 1.1//EN" "http://www.w3.org/Graphics/SVG/1.1/DTD/svg11.dtd"><svg class="icon" width="742px" height="742.00px" viewBox="0 0 1024 1024" version="1.1" xmlns="http://www.w3.org/2000/svg"><path fill="#333333" d="M473.621 553.793c-206.125 0-373.815 166.948-373.815 372.165 0 13.738 0.756 27.661 2.275 41.301 2.34 21.21-12.907 40.293-34.068 42.65-1.441 0.135-2.871 0.234-4.288 0.234-19.388 0-36.081-14.621-38.266-34.357-1.826-16.473-2.747-33.228-2.747-49.825 0-193.001 122.734-357.966 294.503-421.483-70.822-49.585-117.248-131.844-117.248-224.755 0-151.115 122.77-274.070 273.653-274.070 150.884 0 273.646 122.958 273.646 274.070 0 151.113-122.754 274.074-273.645 274.074zM473.621 82.859c-108.384 0-196.561 88.305-196.561 196.864 0 108.55 88.178 196.862 196.561 196.862 108.4 0 196.563-88.305 196.563-196.862 0-108.558-88.171-196.864-196.563-196.864zM669.737 988.425l103.867-103.885c18.673 6.694 38.193 10.081 58.204 10.081 95.567 0 173.319-77.75 173.319-173.318 0-23.791-4.803-46.948-14.254-68.783l-4.474-10.34c-0.021-0.018-0.029 0.073-0.042 0.045-0.427-0.996-1.041-1.908-1.846-2.709-3.427-3.423-8.997-3.423-12.435 0.019-0.054 0.042-0.070-0.054-0.116-0.019l-97.040 97.040-58.365-58.373 95.101-95.094c-0.021-0.14-0.032-0.29 0.165-0.484 4.028-4.029 4.028-10.555 0-14.585-1.105-1.098-2.388-1.907-3.756-2.406-0.126-0.045-0.063-0.11-0.069-0.175l-7.423-3.207c-21.811-9.444-44.959-14.253-68.765-14.253-95.569 0-173.33 77.738-173.33 173.323 0 19.979 3.389 39.517 10.082 58.208l-103.869 103.882c-14.021 14.023-21.761 32.676-21.761 52.51 0 0 0 0 0 0.027 0 19.824 7.741 38.487 21.761 52.512 28.958 28.939 76.071 28.939 105.045-0.014z"  /><path fill="#333333" d="M260.263 228.381h642.704v79.101h-642.704v-79.101z"  /></svg>