<?xml version="1.0" standalone="no"?><!DOCTYPE svg PUBLIC "-//W3C//DTD SVG 1.1//EN" "http://www.w3.org/Graphics/SVG/1.1/DTD/svg11.dtd"><svg class="icon" width="742px" height="740.55px" viewBox="0 0 1026 1024" version="1.1" xmlns="http://www.w3.org/2000/svg"><path fill="#333333" d="M194 192l576 0 0 64-576 0 0-64ZM194 320l576 0 0 64-576 0 0-64ZM194 448l256 0 0 64-256 0 0-64ZM706 877.254 555.373 726.627 600.625 681.373 706 786.746 875.371 617.373 920.625 662.627ZM2 0 2 960 322 640 232 640 66 805.7442 66 64 834 64 834 384 898 384 898 0ZM738 512c59.832031 0 116.082031 23.300781 158.390625 65.607422C938.699219 619.916016 962 676.167969 962 736s-23.300781 116.083984-65.609375 158.392578C854.082031 936.699219 797.832031 960 738 960s-116.085938-23.300781-158.392578-65.607422C537.300781 852.083984 514 795.832031 514 736s23.300781-116.083984 65.607422-158.392578C621.914063 535.300781 678.167969 512 738 512M738 448c-159.058594 0-288 128.941406-288 288s128.941406 288 288 288 288-128.941406 288-288S897.058594 448 738 448L738 448z" /></svg>