<?xml version="1.0" standalone="no"?><!DOCTYPE svg PUBLIC "-//W3C//DTD SVG 1.1//EN" "http://www.w3.org/Graphics/SVG/1.1/DTD/svg11.dtd"><svg class="icon" width="742px" height="742.00px" viewBox="0 0 1024 1024" version="1.1" xmlns="http://www.w3.org/2000/svg"><path fill="#333333" d="M905.729531 790.951009c-3.611643 36.072151-14.993061 89.043753-69.9128 181.537226L608.306014 972.488235c-24.771694-41.428261-106.207595-161.066613-228.4228-177.520776-18.380794-2.474386-43.983609-14.971555-43.983609-23.878587 0-10.184706 17.244803-19.922858 25.09554-22.803317 0.385832-0.142948 40.191068-14.182181 74.599713-14.182181 16.169533 0 56.989318 16.454163 77.804018 29.397886l39.297961 24.466823 0.24415-417.770282c0-16.373202 11.157509-29.682516 24.852656-29.682516l4.402282 0c13.714122 0 24.852656 13.309314 24.852656 29.682516l0 243.496822 51.532005 0L658.580586 301.441233c0-16.351696 11.179014-29.661011 24.852656-29.661011l4.402282 0c13.715387 0 24.872896 13.309314 24.872896 29.661011l0 312.25339L764.240425 613.694623 764.240425 401.989111c0-16.352961 11.138534-29.661011 24.872896-29.661011l4.382042 0c13.695147 0 24.852656 13.308049 24.852656 29.661011l0 211.705511 51.532005 0 0-141.935659c0-14.789392 8.622402-25.826724 16.311216-25.826724l3.652123 0c7.688814 0 16.290975 11.037332 16.290975 25.826724L905.729531 790.951009 905.729531 790.951009 905.729531 790.951009zM957.666344 471.758964c0-42.645214-30.43141-77.357464-67.822981-77.357464l-3.652123 0c-5.679956 0-11.19799 0.81088-16.493379 2.332704-2.556613-42.321368-35.768545-75.938108-76.202498-75.938108l-4.382042 0c-8.703363 0-17.061375 1.582545-24.872896 4.442763l0-23.797626c0-44.755274-34.287202-81.172776-76.404901-81.172776l-4.402282 0c-39.602832 0-72.265744 32.217624-75.998829 73.300533-7.912723-2.94118-16.393442-4.564206-25.238488-4.564206l-4.402282 0c-42.097459 0-76.364421 36.416237-76.364421 81.193016l-0.101202 329.801799c-22.012677-9.33208-47.271406-17.406726-65.733162-17.406726-43.51808 0-90.017822 16.493379-91.804035 17.122096-22.073399 7.771041-59.423223 31.528186-59.423223 71.373902 0 51.693929 64.008934 71.616787 88.659186 74.943799 118.399893 15.946889 204.706135 177.967329 204.706135 177.967329l287.075623 0c0 0 85.168986-162.386032 91.965958-225.725769C957.848508 793.974415 957.666344 471.758964 957.666344 471.758964L957.666344 471.758964 957.666344 471.758964zM545.230667 82.878028c1.481343 0 2.942445-0.121442 4.382042-0.345351l0-82.064618c-1.764708-0.303606-3.549657-0.466794-5.396591-0.466794L302.930558 0.001265c-1.358635 0-2.718536 0.101202-4.036691 0.26439l0 82.349248c1.318155 0.161923 2.678055 0.263125 4.036691 0.263125L545.230667 82.878028 545.230667 82.878028zM601.95686 261.777679c1.07527 0 2.11006-0.121442 3.165089-0.242885l0-48.021565c-1.05503-0.163188-2.089819-0.24415-3.165089-0.24415l-356.745539 0c-1.501583 0-2.94118 0.141683-4.361802 0.406073l0 47.655973c1.420622 0.26439 2.860219 0.446553 4.361802 0.446553L601.95686 261.777679 601.95686 261.777679zM684.833623 70.74645c28.30111 0 47.49405 19.211915 47.49405 47.49405l0 91.580126 47.291646 0 0.222644-90.565577c0-54.575652-33.353615-96.003914-95.00834-96.003914l-47.495315 0c-1.156232 0-2.332704 0.061986-3.509176 0.183428l0 47.007016c1.176472 0.202404 2.352944 0.304871 3.509176 0.304871L684.833623 70.74645 684.833623 70.74645zM482.439951 393.142801l0-48.488358-237.22863 0c-1.501583 0-2.94118 0.163188-4.361802 0.406073L240.84952 392.736728c1.420622 0.26439 2.860219 0.406073 4.361802 0.406073L482.439951 393.142801 482.439951 393.142801zM113.805719 665.022959l0-546.762219c0-28.302375 19.21318-47.49405 47.49405-47.49405l59.626892 0c0.487034 0 0.953828-0.02024 1.420622-0.060721l0-47.392848c-0.466794-0.021505-0.933587-0.061986-1.420622-0.061986l-59.626892 0c-66.685724 0-94.9881 41.448502-94.9881 96.024154l0 540.69643c0 58.612343 35.362473 100.039339 100.040604 100.039339l75.105722 0 0-47.49405-68.025384 0C145.130236 712.517009 113.805719 693.325335 113.805719 665.022959L113.805719 665.022959zM479.883338 487.137857l-234.692257 0c-1.481343 0-2.94118 0.161923-4.361802 0.426313l0 47.655973c1.420622 0.26439 2.880459 0.426313 4.361802 0.426313L481.161012 535.646456 479.883338 487.137857 479.883338 487.137857z" /></svg>