<?xml version="1.0" standalone="no"?><!DOCTYPE svg PUBLIC "-//W3C//DTD SVG 1.1//EN" "http://www.w3.org/Graphics/SVG/1.1/DTD/svg11.dtd"><svg class="icon" width="742px" height="742.00px" viewBox="0 0 1024 1024" version="1.1" xmlns="http://www.w3.org/2000/svg"><path fill="#333333" d="M875.125833 133.296889c-28.672016-28.67304-66.796312-44.463678-107.351983-44.463678-40.544415 0-78.666664 15.790638-107.343797 44.463678L183.644065 610.090039c-22.649859 22.636556-76.640518 163.393347-117.947296 277.490965-4.597715 12.726859-1.667989 26.722618 7.642051 36.523845 6.66684 7.030114 16.051581 11.06194 25.746384 11.06194 3.51608 0 7.003508-0.520863 10.352789-1.547239 118.14991-36.009122 264.178775-84.122933 288.893666-108.828614l476.794174-476.798267C934.31284 288.800545 934.31284 192.487989 875.125833 133.296889M313.340963 789.995455c-35.180244 13.909801-91.740424 33.57877-155.918096 54.200436 23.282263-61.807694 45.067428-116.26805 60.022025-150.096507L313.340963 789.995455zM691.412694 431.296957 373.234051 749.473553 258.958378 635.19788l318.175573-318.182736L691.412694 431.296957zM767.394203 355.316471l-25.77299 25.770943L627.340423 266.808672l25.770943-25.77299L767.394203 355.316471zM824.920384 297.791313l-7.321756 7.318686L703.320908 190.828186l7.315616-7.320733c15.259542-15.260565 35.551704-23.664979 57.137325-23.664979s41.879829 8.40646 57.143465 23.667026C856.421842 215.014028 856.421842 266.281669 824.920384 297.791313M924.939355 857.775164 451.812711 857.775164c-19.576871 0-35.501562 15.925714-35.501562 35.501562s15.925714 35.502585 35.501562 35.502585L924.939355 928.779312c19.576871 0 35.502585-15.926738 35.502585-35.502585S944.516226 857.775164 924.939355 857.775164" /></svg>