<?xml version="1.0" standalone="no"?><!DOCTYPE svg PUBLIC "-//W3C//DTD SVG 1.1//EN" "http://www.w3.org/Graphics/SVG/1.1/DTD/svg11.dtd"><svg class="icon" width="742px" height="741.28px" viewBox="0 0 1025 1024" version="1.1" xmlns="http://www.w3.org/2000/svg"><path fill="#333333" d="M975.8922 743.071587l-230.14176-230.125303c14.820545-41.375012 22.321332-84.624306 22.321332-128.94697 0-211.731736-172.249292-383.999314-383.999314-383.999314-52.713963 0-103.999814 10.62581-152.392871 31.572058l-22.893673 9.910839c-0.036571 0.036571 0.142628 0.053028 0.071314 0.0896-2.177825 0.947198-4.21485 2.322282-5.999532 4.106964-7.572101 7.588558-7.572101 19.927736 0.036571 27.536408 0.107886 0.107886-0.107886 0.160914-0.036571 0.266971l214.999388 214.999388-129.321826 129.303541L77.856775 207.09083c-0.321828 0.036571-0.643656 0.053028-1.071541-0.374856-8.928898-8.928898-23.392873-8.928898-32.321771 0-2.428339 2.446624-4.21485 5.286391-5.321133 8.321814-0.107886 0.285257-0.250514 0.142628-0.393142 0.160914l-7.107644 16.427856C10.715409 279.964757 0.071314 331.250608 0.071314 384.001143c0 211.713451 172.249292 383.999314 383.999314 383.999314 44.286092 0 87.535387-7.500787 128.963427-22.321332l230.14176 230.107018C774.248675 1006.857173 815.570658 1024 859.534922 1024c0 0 0 0 0.036571 0 43.927693 0 85.286248-17.142827 116.357278-48.213857C1040.034714 911.643629 1040.034714 807.250673 975.8922 743.071587zM924.213207 924.072407C906.927752 941.357862 883.962764 950.857273 859.569665 950.857273l-0.036571 0c-24.427842 0-47.39283-9.499412-64.643542-26.784866L530.213453 659.429222l-22.820531 9.857811C468.214021 686.25066 426.714667 694.857731 384.070628 694.857731c-171.391694 0-310.856588-139.428322-310.856588-310.856588 0-23.820757 2.678852-47.268487 7.999986-70.125589l193.356455 193.393026c8.107871 6.463988 19.249337 6.553588 27.499837 0.411428l203.28558-203.28558c0.071314-0.071314-0.071314-0.160914 0-0.232228 8.285242-8.285242 8.535756-21.215048 1.428112-30.196975L313.928582 81.126255c22.893673-5.302848 46.321289-7.9817 70.142046-7.9817 171.391694 0 310.856588 139.446608 310.856588 310.856588 0 42.697067-8.60707 84.178135-25.570697 123.285723l-9.857811 22.820531L924.176635 794.785324C959.820915 830.429603 959.820915 888.428128 924.213207 924.072407z" /></svg>