<?xml version="1.0" standalone="no"?><!DOCTYPE svg PUBLIC "-//W3C//DTD SVG 1.1//EN" "http://www.w3.org/Graphics/SVG/1.1/DTD/svg11.dtd"><svg class="icon" width="742px" height="742.00px" viewBox="0 0 1024 1024" version="1.1" xmlns="http://www.w3.org/2000/svg"><path fill="#333333" d="M736.996693 590.097067c0-6.167893-5.05856-11.158187-11.246933-11.158187L298.257067 578.93888c-6.222507 0-11.25376 4.993707-11.25376 11.158187l0 44.62592c0 6.167893 5.03808 11.1616 11.25376 11.1616l427.496107 0c6.188373 0 11.246933-4.993707 11.246933-11.1616L737.000107 590.097067zM725.74976 735.133013 298.257067 735.133013c-6.222507 0-11.25376 4.990293-11.25376 11.158187l0 44.632747c0 6.16448 5.03808 11.158187 11.25376 11.158187l427.496107 0c6.188373 0 11.246933-4.993707 11.246933-11.158187L737.000107 746.2912C736.996693 740.123307 731.938133 735.133013 725.74976 735.133013zM871.990613 333.48608l20.452693 0L892.443307 824.388267c0 42.40384-0.088747 79.865173 0 109.71136L131.55328 934.099627 131.55328 89.903787c16.411307 0.034133 59.549013 0 110.44864 0l449.993387 0 67.495253-68.80256L152.009387 21.101227c-49.70496 0-89.99936 39.963307-89.99936 89.255253l0 803.28704c0 49.291947 40.2944 89.255253 89.99936 89.255253l719.977813 0c49.701547 0 89.99936-39.963307 89.99936-89.255253L961.98656 266.550613 871.990613 333.48608zM950.07744 111.056213c11.912533-15.950507 5.911893-33.819307-0.303787-44.455253-10.21952-17.42848-30.805333-34.013867-44.274347-38.611627-12.547413-4.293973-34.2528-6.888107-48.892587 9.065813-5.799253 6.314667-15.90272 18.783573-22.207147 26.494293l95.156907 74.0864C929.55648 137.63584 938.216107 127.010133 950.07744 111.056213zM616.062293 359.79264c-3.65568 11.769173-13.318827 68.293973-13.718187 85.551787-0.34816 16.30208 5.07904 22.02624 20.872533 17.93024 15.424853-3.98336 67.013973-28.57984 83.094187-39.284053 7.724373-5.12 15.342933-12.663467 20.394667-19.070293 7.95648-10.0864 173.564587-228.99712 173.564587-228.99712l-95.122773-74.113707c0 0-164.611413 216.275627-176.431787 232.5504C621.950293 343.688533 618.847573 350.747307 616.062293 359.79264z" /></svg>