<?xml version="1.0" standalone="no"?><!DOCTYPE svg PUBLIC "-//W3C//DTD SVG 1.1//EN" "http://www.w3.org/Graphics/SVG/1.1/DTD/svg11.dtd"><svg class="icon" width="742px" height="742.00px" viewBox="0 0 1024 1024" version="1.1" xmlns="http://www.w3.org/2000/svg"><path fill="#333333" d="M167.635 543.005 907.76 543.005 743.26 708.108c-12.262 12.29-12.262 32.256 0 44.548 12.229 12.291 32.104 12.291 44.364 0l216.51-217.296c6.544-6.573 9.326-15.257 8.897-23.848 0.429-8.593-2.354-17.305-8.897-23.848L787.624 270.368c-12.26-12.291-32.135-12.291-44.363 0-12.262 12.29-12.262 32.256 0 44.548L907.76 480.02 167.635 480.02c-17.337 0-31.372 14.095-31.372 31.493S150.298 543.005 167.635 543.005zM825.081 167.606c0-34.581-28.038-62.618-62.62-62.618L136.263 104.988c-34.581 0-62.619 28.037-62.619 62.618l0 688.789c0 34.579 28.038 62.616 62.619 62.616l626.198 0c34.582 0 62.62-28.037 62.62-62.616L825.081 731.161l62.62 0 0 125.234c0 69.16-56.076 125.234-125.241 125.234L136.263 981.629c-69.162 0-125.24-56.074-125.24-125.234L11.023 167.606c0-69.16 56.078-125.234 125.24-125.234l626.198 0c69.165 0 125.24 56.075 125.24 125.234l0 125.234-62.619 0L825.081 167.606 825.081 167.606z" /></svg>