<?xml version="1.0" standalone="no"?><!DOCTYPE svg PUBLIC "-//W3C//DTD SVG 1.1//EN" "http://www.w3.org/Graphics/SVG/1.1/DTD/svg11.dtd"><svg class="icon" width="742px" height="742.00px" viewBox="0 0 1024 1024" version="1.1" xmlns="http://www.w3.org/2000/svg"><path fill="#333333" d="M383.545 112h244.517c18.936 0 34.285-15.351 34.285-34.285 0-18.936-15.351-34.285-34.285-34.285h-244.517c-18.936 0-34.285 15.351-34.285 34.285 0 18.936 15.351 34.285 34.285 34.285zM787.55 131.731c29.491 0 54.269 26.304 54.269 59.704v658.175c0 33.405-24.783 59.704-54.269 59.704h-575.567c-29.491 0-54.269-26.304-54.269-59.704v-658.175c0-33.405 24.783-59.704 54.269-59.704 18.936 0 34.285-15.351 34.285-34.285 0-18.936-15.351-34.285-34.285-34.285-68.298 0-122.841 57.88-122.841 128.275v658.175c0 70.386 54.533 128.275 122.841 128.275h575.567c68.298 0 122.841-57.88 122.841-128.275v-658.175c0-70.386-54.533-128.275-122.841-128.275-18.936 0-34.285 15.351-34.285 34.285 0 18.936 15.351 34.285 34.285 34.285zM294.994 318.803h420.758c18.936 0 34.285-15.351 34.285-34.285 0-18.936-15.351-34.285-34.285-34.285h-420.758c-18.936 0-34.285 15.351-34.285 34.285 0 18.936 15.351 34.285 34.285 34.285zM294.994 529.959h420.758c18.936 0 34.285-15.351 34.285-34.285 0-18.936-15.351-34.285-34.285-34.285h-420.758c-18.936 0-34.285 15.351-34.285 34.285 0 18.936 15.351 34.285 34.285 34.285zM294.994 736.762h420.758c18.936 0 34.285-15.351 34.285-34.285 0-18.936-15.351-34.285-34.285-34.285h-420.758c-18.936 0-34.285 15.351-34.285 34.285 0 18.936 15.351 34.285 34.285 34.285z" /></svg>