<?xml version="1.0" encoding="utf-8"?>
<!-- Generator: Adobe Illustrator 18.0.0, SVG Export Plug-In . SVG Version: 6.00 Build 0)  -->
<!DOCTYPE svg PUBLIC "-//W3C//DTD SVG 1.1//EN" "http://www.w3.org/Graphics/SVG/1.1/DTD/svg11.dtd">
<svg version="1.1" id="图层_1" xmlns="http://www.w3.org/2000/svg" xmlns:xlink="http://www.w3.org/1999/xlink" x="0px" y="0px"
	 viewBox="0 0 1024 1024" enable-background="new 0 0 1024 1024" xml:space="preserve">
<path fill="#07A1A5" d="M816.166,869.482c28.281,0,51.221-22.482,51.221-51.272V641.404c0-13.937,11.801-25.229,25.432-25.229
	c14.039,0,25.432,11.546,25.432,25.941v175.992c0.141,56.172-45.252,101.838-101.424,102.035H205.84
	c-56.127-0.112-101.537-45.703-101.425-101.83c0-0.068,0-0.136,0.001-0.205V642.117c-0.003-14.13,11.305-25.664,25.432-25.941
	c14.039,0,25.432,10.885,25.432,25.229V818.21c0,28.332,22.889,51.272,51.221,51.272L816.166,869.482L816.166,869.482z
	 M562.198,453.103C199.736,463.378,155.28,583.063,155.28,583.063c0-183.215,150.458-365.209,457.783-359.512v-49.695l0.966-0.916
	h-0.966v-11.699c0-55.697,34.741-71.821,77.62-35.504L901.67,304.68c21.465,18.21,21.465,47.711,0,65.921L690.479,550
	c-42.726,36.216-77.416,20.448-77.416-35.402v-62.208c-17.345,0-34.079,0.203-50.153,0.661l-0.712-0.661V453.103z M613.063,401.73
	c28.077,0,50.865,22.686,50.865,50.661v52.899L862.3,337.589L663.928,169.38v54.12c-0.05,28.036-22.818,50.722-50.853,50.672
	c-0.326-0.001-0.652-0.004-0.978-0.011c-190.743-3.561-324.364,72.533-378.79,186.165c73.55-34.588,193.184-58.494,379.756-58.494
	V401.73z"/>
</svg>
