<?xml version="1.0" encoding="utf-8"?>
<!-- Generator: Adobe Illustrator 19.0.0, SVG Export Plug-In . SVG Version: 6.00 Build 0)  -->
<svg version="1.1" id="图层_1" xmlns="http://www.w3.org/2000/svg" xmlns:xlink="http://www.w3.org/1999/xlink" x="0px" y="0px"
	 viewBox="0 0 1024 1024" enable-background="new 0 0 1024 1024" xml:space="preserve">
<path fill="#07A0A4" d="M961.218,727.974c-0.251,6.337-3.067,11.165-8.92,13.776c-6.097,2.72-11.765,1.448-16.535-3.07
	c-6.744-6.387-13.373-12.898-19.941-19.466c-132.525-132.517-265.05-265.034-397.464-397.661c-3.474-3.48-5.101-3.666-8.699-0.063
	C378.547,452.838,247.311,584.061,116.077,715.286c-7.507,7.507-15.137,14.891-22.729,22.313c-6.994,6.837-15.912,7.291-22.14,1.18
	c-5.625-5.519-6.143-15.451,1.011-22.569c54.837-54.562,109.253-109.549,164.228-163.971
	c89.302-88.402,177.753-177.655,266.794-266.317c1.638-1.631,3.28-3.397,5.251-4.523c4.307-2.461,8.642-1.957,12.562,1.053
	c1.57,1.205,2.924,2.699,4.331,4.106c84.164,84.158,168.096,168.548,252.56,252.404c59.133,58.708,117.867,117.815,176.988,176.534
	C958.474,719.014,961.267,722.708,961.218,727.974z"/>
</svg>
