<?xml version="1.0" encoding="utf-8"?>
<!-- Generator: Adobe Illustrator 18.0.0, SVG Export Plug-In . SVG Version: 6.00 Build 0)  -->
<!DOCTYPE svg PUBLIC "-//W3C//DTD SVG 1.1//EN" "http://www.w3.org/Graphics/SVG/1.1/DTD/svg11.dtd">
<svg version="1.1" id="图层_1" xmlns="http://www.w3.org/2000/svg" xmlns:xlink="http://www.w3.org/1999/xlink" x="0px" y="0px"
	 viewBox="0 0 216 132" enable-background="new 0 0 216 132" xml:space="preserve">
<g>
	<path fill="#07A0A4" d="M165.622,37.074c0.001-0.915-0.292-1.586-0.927-2.22c-7.119-7.099-14.223-14.212-21.326-21.326
		c-0.532-0.533-1.138-0.779-1.899-0.775c-3.695,0.019-7.39,0.007-11.084,0.009c-1.55,0.001-2.275,0.733-2.275,2.292
		c0,7.454-0.003,14.908,0.007,22.362c0.001,0.396-0.09,0.656-0.433,0.909c-6.359,4.689-12.708,9.392-19.049,14.105
		c-0.33,0.245-0.531,0.264-0.873,0.01c-6.41-4.765-12.828-9.517-19.256-14.258c-0.37-0.273-0.499-0.551-0.498-1.007
		c0.015-7.39,0.011-14.779,0.01-22.169c0-1.504-0.743-2.243-2.258-2.244c-3.695-0.002-7.39,0.011-11.084-0.01
		c-0.787-0.004-1.404,0.257-1.951,0.808c-2.451,2.471-4.914,4.929-7.374,7.39c-4.678,4.679-9.355,9.359-14.038,14.033
		c-0.474,0.473-0.807,0.983-0.806,1.686c0.004,12.266,0.007,24.531-0.012,36.797c-0.001,0.86,0.268,1.504,0.873,2.11
		c8.093,8.099,16.167,16.218,24.259,24.317c0.398,0.398,0.545,0.794,0.543,1.347c-0.019,5.392,0.022,10.784-0.035,16.175
		c-0.014,1.328,0.965,2.237,2.217,2.232c9.862-0.042,19.724-0.023,29.586-0.023c9.924,0,19.849,0,29.773,0
		c1.392,0,2.127-0.741,2.127-2.145c0-5.435,0.008-10.87-0.012-16.304c-0.002-0.519,0.16-0.865,0.521-1.225
		c8.167-8.146,16.321-16.306,24.484-24.457c0.495-0.495,0.796-1.022,0.795-1.751C165.613,61.52,165.603,49.297,165.622,37.074z
		 M158.748,72.441c-8.147,8.137-16.284,16.283-24.441,24.41c-0.639,0.637-0.936,1.302-0.929,2.217
		c0.035,4.489,0.005,8.979,0.03,13.469c0.003,0.552-0.156,0.656-0.677,0.655c-8.249-0.017-16.498-0.012-24.747-0.012
		c-8.228,0-16.455-0.005-24.683,0.012c-0.542,0.001-0.717-0.094-0.713-0.686c0.03-4.554,0.007-9.108,0.026-13.662
		c0.003-0.742-0.243-1.309-0.762-1.83c-8.148-8.165-16.286-16.342-24.435-24.507c-0.326-0.327-0.476-0.642-0.475-1.116
		c0.015-10.762,0.014-21.525,0.001-32.287c-0.001-0.469,0.136-0.789,0.467-1.119c6.116-6.097,12.223-12.203,18.319-18.319
		c0.329-0.33,0.646-0.482,1.118-0.47c1.31,0.033,2.622,0.044,3.93-0.003c0.618-0.022,0.819,0.1,0.816,0.782
		c-0.032,6.552-0.007,13.104-0.031,19.656c-0.004,1.042,0.369,1.773,1.209,2.393c8.102,5.979,16.187,11.982,24.276,17.979
		c0.863,0.64,1.424,0.646,2.272,0.017c8.123-6.023,16.244-12.049,24.378-18.058c0.618-0.456,0.869-0.982,0.868-1.739
		c-0.016-6.788-0.002-13.576-0.022-20.365c-0.002-0.539,0.133-0.68,0.668-0.665c1.417,0.04,2.835,0.023,4.253,0.006
		c0.327-0.004,0.558,0.09,0.789,0.322c6.191,6.203,12.388,12.401,18.593,18.592c0.251,0.251,0.337,0.504,0.337,0.847
		c-0.007,10.848-0.009,21.697,0.005,32.545C159.187,71.924,159.015,72.174,158.748,72.441z"/>
	<path fill="#07A0A4" d="M125.426,70.125c-6.099-0.001-12.199,0-18.298,0c-5.842,0-11.683-0.002-17.525,0.002
		c-1.301,0.001-2.087,0.789-2.099,2.079c-0.007,0.687-0.002,1.375-0.001,2.062c0.002,1.593,0.718,2.302,2.329,2.302
		c5.927,0.001,11.855,0,17.782,0c5.992,0,11.984,0.002,17.975-0.002c1.343-0.001,2.122-0.778,2.131-2.111
		c0.005-0.687,0.002-1.375,0.001-2.062C127.72,70.849,126.989,70.125,125.426,70.125z"/>
</g>
</svg>
