<?xml version="1.0" encoding="utf-8"?>
<!-- Generator: Adobe Illustrator 18.0.0, SVG Export Plug-In . SVG Version: 6.00 Build 0)  -->
<!DOCTYPE svg PUBLIC "-//W3C//DTD SVG 1.1//EN" "http://www.w3.org/Graphics/SVG/1.1/DTD/svg11.dtd">
<svg version="1.1" id="图层_1" xmlns="http://www.w3.org/2000/svg" xmlns:xlink="http://www.w3.org/1999/xlink" x="0px" y="0px"
	 viewBox="0 0 216 132" enable-background="new 0 0 216 132" xml:space="preserve">
<g>
	<path fill="#07A0A4" d="M165.514,45.137c0.002-1.341-0.974-2.239-2.214-2.234c-11.064,0.04-22.129,0.018-33.193,0.038
		c-0.603,0.001-0.723-0.171-0.722-0.74c0.018-8.959-0.007-17.918,0.035-26.877c0.006-1.279-0.963-2.201-2.186-2.197
		c-12.675,0.036-25.351,0.022-38.027,0.022c-1.645,0-2.349,0.704-2.349,2.348c0,8.916-0.007,17.832,0.015,26.748
		c0.001,0.577-0.148,0.695-0.704,0.694c-11.064-0.018-22.129,0.005-33.193-0.036c-1.346-0.005-2.238,0.979-2.234,2.215
		c0.038,11.945,0.023,23.89,0.023,35.835c0,12.01,0,24.019,0,36.029c0,1.393,0.741,2.128,2.145,2.128
		c12.74,0,25.48-0.014,38.22,0.023c1.269,0.004,2.203-0.956,2.196-2.187c-0.045-7.691-0.018-15.383-0.034-23.074
		c-0.001-0.506,0.077-0.687,0.646-0.686c9.453,0.021,18.906,0.019,28.359,0.002c0.534-0.001,0.669,0.125,0.668,0.664
		c-0.019,7.67,0.014,15.34-0.037,23.009c-0.009,1.41,0.991,2.277,2.242,2.273c12.697-0.038,25.394-0.039,38.091,0
		c1.31,0.004,2.255-0.911,2.253-2.26C165.483,92.961,165.484,69.049,165.514,45.137z M86.069,112.679
		c-5.993-0.025-11.987-0.023-17.98-0.002c-0.547,0.002-0.711-0.102-0.709-0.689c0.021-10.848,0.016-21.697,0.015-32.545
		c0-1.65-0.701-2.355-2.34-2.357c-0.58,0-1.16,0-1.74,0c-1.679,0.001-2.365,0.695-2.365,2.397c0,10.784-0.006,21.568,0.014,32.352
		c0.001,0.64-0.11,0.907-0.815,0.846c-0.81-0.07-1.632-0.039-2.447-0.007c-0.402,0.016-0.504-0.107-0.5-0.503
		c0.02-2.019,0.009-4.038,0.009-6.058c0-8.378,0-16.756,0-25.134c0-10.29,0.007-20.58-0.017-30.869
		c-0.001-0.641,0.176-0.756,0.777-0.753c5.65,0.025,11.299,0.023,16.949,0.002c0.573-0.002,0.739,0.124,0.739,0.724
		c-0.019,14.607-0.015,29.215-0.014,43.823c0,1.694,0.689,2.387,2.373,2.388c0.601,0,1.203,0.001,1.804,0
		c1.547-0.003,2.267-0.732,2.268-2.3c0.001-4.253,0-8.507,0-12.76c0-10.354,0.008-20.708-0.018-31.063
		c-0.002-0.698,0.204-0.843,0.848-0.814c1.158,0.052,2.32,0.029,3.479,0.007c0.366-0.007,0.517,0.099,0.463,0.467
		c-0.015,0.105-0.002,0.214-0.002,0.322c0,20.579-0.004,41.159,0.017,61.739C86.877,112.559,86.697,112.682,86.069,112.679z
		 M122.164,86.769c-9.366-0.022-18.732-0.021-28.098-0.001c-0.601,0.001-0.779-0.112-0.777-0.753
		c0.023-10.956,0.017-21.911,0.017-32.867s0.005-21.912-0.014-32.867c-0.001-0.563,0.125-0.719,0.698-0.702
		c1.567,0.045,3.137,0.05,4.704-0.002c0.603-0.02,0.683,0.184,0.683,0.717c-0.015,10.784-0.011,21.568-0.011,32.352
		c0,4.919,0,9.839,0,14.758c0,1.636,0.708,2.334,2.362,2.335c0.687,0,1.375,0.008,2.062-0.002c1.213-0.018,2.011-0.811,2.018-2.029
		c0.011-1.976,0.003-3.953,0.003-5.929c0-13.813,0.005-27.626-0.016-41.439c-0.001-0.629,0.153-0.783,0.77-0.762
		c1.481,0.05,2.965,0.041,4.446,0.003c0.563-0.014,0.749,0.106,0.746,0.718c-0.028,5.306-0.016,10.612-0.016,15.918
		c0,3.63-0.001,7.261,0.001,10.891c0.001,1.519,0.735,2.259,2.24,2.262c0.687,0.002,1.375,0.003,2.062,0
		c1.376-0.008,2.141-0.777,2.141-2.167c0.002-8.915,0.001-17.83,0.001-26.745c0-0.864,0-0.864,0.893-0.864
		c1.138,0,2.277,0.014,3.415-0.008c0.365-0.007,0.518,0.097,0.464,0.466c-0.016,0.105-0.002,0.215-0.002,0.322
		c0,21.869-0.004,43.737,0.017,65.606C122.971,86.645,122.794,86.77,122.164,86.769z M158.357,112.678
		c-5.113-0.023-10.225-0.022-15.338-0.001c-0.56,0.002-0.748-0.104-0.746-0.717c0.024-8.184,0.016-16.369,0.016-24.554
		c0-1.608-0.712-2.325-2.305-2.327c-0.666-0.001-1.332-0.003-1.998,0.001c-1.374,0.008-2.141,0.779-2.141,2.168
		c-0.002,8.206-0.011,16.412,0.017,24.618c0.002,0.698-0.205,0.832-0.847,0.815c-1.653-0.045-3.308-0.039-4.961-0.001
		c-0.536,0.012-0.668-0.128-0.667-0.666c0.017-10.719,0.013-21.439,0.013-32.158c0-9.924,0.006-19.849-0.015-29.774
		c-0.001-0.603,0.171-0.724,0.74-0.722c5.993,0.021,11.987,0.022,17.98-0.002c0.604-0.002,0.777,0.116,0.776,0.755
		c-0.021,14.629-0.016,29.258-0.016,43.887c0,1.742,0.676,2.423,2.402,2.424c0.666,0,1.332,0.007,1.998-0.002
		c1.251-0.015,2.029-0.807,2.045-2.069c0.003-0.236,0-0.473,0-0.709c0-14.5,0.006-29-0.018-43.5
		c-0.001-0.674,0.185-0.827,0.812-0.784c0.813,0.056,1.632,0.034,2.448,0.005c0.391-0.014,0.513,0.09,0.507,0.496
		c-0.025,1.503-0.01,3.007-0.01,4.511c0,8.893,0,17.787,0,26.68c0,10.311-0.006,20.622,0.015,30.934
		C159.063,112.56,158.914,112.68,158.357,112.678z"/>
	<path fill="#07A0A4" d="M140.35,69.614c-0.815-0.018-1.631-0.011-2.447-0.003c-1.256,0.013-2.048,0.8-2.057,2.053
		c-0.01,1.288-0.002,2.575-0.002,3.863c0,1.331-0.014,2.661,0.005,3.992c0.015,1.108,0.807,1.915,1.902,1.943
		c0.879,0.023,1.76,0.023,2.64,0c1.066-0.028,1.882-0.823,1.89-1.887c0.021-2.683,0.02-5.366,0.001-8.048
		C142.274,70.43,141.454,69.639,140.35,69.614z"/>
</g>
</svg>
