<?xml version="1.0" encoding="utf-8"?>
<!-- Generator: Adobe Illustrator 18.0.0, SVG Export Plug-In . SVG Version: 6.00 Build 0)  -->
<!DOCTYPE svg PUBLIC "-//W3C//DTD SVG 1.1//EN" "http://www.w3.org/Graphics/SVG/1.1/DTD/svg11.dtd">
<svg version="1.1" id="图层_1" xmlns="http://www.w3.org/2000/svg" xmlns:xlink="http://www.w3.org/1999/xlink" x="0px" y="0px"
	 viewBox="0 0 1024 1024" enable-background="new 0 0 1024 1024" xml:space="preserve">
<path fill="#07A0A4" d="M939.58,137.171c-1.327-3.216-3.155-5.613-7.194-5.861c-41.733-2.57-83.46-5.252-125.189-7.887
	c-27.931-1.764-55.864-3.487-83.794-5.259c-39.899-2.531-79.797-5.087-119.695-7.639c-23.938-1.531-47.875-3.083-71.814-4.609
	c-22.444-1.43-44.876-3.121-67.339-4.12c-9.436-0.42-18.396,5.695-17.778,16.33c0.372,6.41-0.807,12.893-0.869,19.348
	c-0.039,4.049-1.468,5.95-5.501,7.272c-118.766,38.916-237.483,77.98-356.208,117.02c-6.969,2.292-8.95,5.241-8.064,12.556
	c0.276,2.275,1,4.516,1.697,6.717c3.096,9.776,7.182,19.187,10.781,28.773C155.91,489.068,223.026,668.392,290.18,847.702
	c5.745,15.341,11.4,30.716,17.28,46.006c3.279,8.525,8.068,14.084,19.584,9.36c1.381-0.567,2.799-1.045,4.206-1.55
	c22.667-8.14,45.349-16.238,67.985-24.463c2.924-1.063,4.057-1.109,3.971,2.598c-0.281,12.062,4.715,17.05,16.953,17.498
	c11.151,0.408,22.315,0.606,33.448,1.303c44.057,2.758,88.102,5.716,132.157,8.521c39.235,2.498,78.479,4.837,117.713,7.342
	c59.515,3.799,119.024,7.687,178.536,11.518c6.989,0.45,9.548-1.209,12.181-7.644c1.205-2.946,1.706-6,1.844-9.188
	c0.702-16.218,1.366-32.44,2.308-48.645c2.491-42.837,5.129-85.666,7.688-128.499c1.778-29.769,3.507-59.542,5.285-89.311
	c2.559-42.833,5.155-85.665,7.713-128.498c1.778-29.769,3.503-59.542,5.281-89.311c2.559-42.833,5.136-85.666,7.723-128.497
	c1.528-25.302,3.105-50.601,4.632-75.903c1.437-23.808,2.838-47.618,4.255-71.427C941.159,144.923,941.138,140.945,939.58,137.171z
	 M419.842,589.812c-0.732,0.484,0.284,2.484-1.672,1.905c-12.109-32.923-24.206-65.85-36.335-98.765
	c-4.237-11.498-11.544-14.789-23.126-10.48c-4.827,1.796-9.65,3.606-14.443,5.491c-10.098,3.97-13.443,11.291-9.673,21.447
	c17.964,48.401,35.969,96.787,53.965,145.177c7.094,19.077,13.964,38.242,21.423,57.177c2.771,7.035,2.081,13.98,1.697,21.028
	c-1.506,27.624-3.268,55.236-4.628,82.867c-0.21,4.266-1.373,6.387-5.563,7.806c-18.257,6.182-36.433,12.611-54.533,19.233
	c-3.571,1.306-4.912,1.043-6.328-2.743c-67.18-179.635-134.466-359.23-201.856-538.787c-1.435-3.823-0.686-4.97,3.066-5.964
	c6.094-1.615,12.105-3.635,17.99-5.899c3.571-1.374,5.046-0.745,6.41,2.973c12.084,32.932,24.406,65.778,36.628,98.661
	c32.054,86.239,64.09,172.485,96.139,258.726c4.507,12.128,11.587,15.277,23.843,10.65c4.353-1.643,8.707-3.283,13.051-4.949
	c11.107-4.262,14.389-11.289,10.292-22.33c-19.224-51.817-38.483-103.62-57.726-155.43c-24.888-67.012-49.753-134.033-74.72-201.016
	c-1.173-3.148-1.391-4.627,2.496-5.895c73.782-24.064,147.508-48.295,221.261-72.445c1.362-0.446,2.7-1.403,4.782-0.731
	C434.806,328.204,427.324,459.008,419.842,589.812z M889.213,182.337c-1.95,31.916-3.759,63.84-5.652,95.76
	c-1.471,24.807-3.014,49.61-4.508,74.416c-2.589,42.997-5.18,85.994-7.74,128.992c-1.801,30.265-3.523,60.535-5.332,90.8
	c-2.53,42.336-5.125,84.669-7.661,127.005c-1.793,29.934-3.518,59.872-5.302,89.806c-1.607,26.957-3.306,53.908-4.813,80.871
	c-0.165,2.947-1.211,3.528-3.891,3.342c-12.796-0.888-25.598-1.713-38.408-2.36c-3.367-0.17-3.959-1.592-3.795-4.622
	c2.586-47.813,5.087-95.63,7.573-143.448c1.445-27.798,2.898-55.596,4.209-83.401c0.532-11.276-5.289-17.292-16.604-17.795
	c-5.824-0.259-11.638-0.835-17.464-0.953c-8.836-0.179-15.292,5.767-15.753,14.547c-1.755,33.423-3.387,66.852-5.11,100.276
	c-2.192,42.524-4.47,85.044-6.565,127.573c-0.171,3.478-1.164,4.535-4.646,4.167c-5.792-0.612-11.628-0.963-17.452-1.079
	c-3.711-0.074-5.724-0.925-4.658-5.15c0.438-1.734,0.241-3.627,0.333-5.448c-0.035-0.002-0.07-0.004-0.105-0.006
	c2.609-44.822,5.24-89.643,7.819-134.467c1.808-31.427,3.518-62.86,5.316-94.288c2.536-44.328,5.125-88.654,7.67-132.982
	c1.776-30.931,3.592-61.861,5.228-92.799c0.543-10.273-5.496-16.499-15.837-17.036c-5.989-0.311-11.971-0.836-17.963-0.985
	c-9.138-0.226-15.553,5.726-16.065,14.754c-2.422,42.677-4.77,85.357-7.225,128.032c-3.492,60.703-7.094,121.399-10.574,182.102
	c-2.522,43.999-4.922,88.004-7.379,132.006c-0.333,5.955-0.885,11.908-0.94,17.865c-0.033,3.595-1.013,4.875-4.889,4.593
	c-17.943-1.302-35.908-2.293-53.864-3.43c-23.939-1.516-47.875-3.086-71.815-4.593c-28.263-1.779-56.525-3.591-84.798-5.195
	c-4.488-0.255-5.612-1.721-5.307-6.218c1.771-26.116,3.196-52.255,4.712-78.387c2.589-44.657,5.171-89.315,7.733-133.974
	c1.775-30.931,3.497-61.866,5.272-92.797c2.562-44.659,5.163-89.316,7.724-133.975c1.783-31.097,3.506-62.197,5.291-93.294
	c2.553-44.493,5.138-88.985,7.708-133.478c0.392-6.782,0.893-13.56,1.11-20.348c0.086-2.703,1.01-3.191,3.617-2.982
	c9.131,0.734,18.282,1.3,27.436,1.621c3.478,0.122,4.514,1.234,4.255,4.709c-1.599,21.476-2.978,42.968-4.478,64.452
	c-1.847,26.44-3.745,52.877-5.613,79.316c-2.568,36.359-5.141,72.717-7.689,109.078c-1.784,25.449-3.518,50.902-5.297,76.352
	c-1.548,22.143-2.98,44.296-4.744,66.423c-1.184,14.849,3.845,20.699,18.993,21.308c4.992,0.201,9.973,0.783,14.965,0.867
	c8.827,0.15,15.12-5.78,15.731-14.591c3.405-49.083,6.783-98.167,10.198-147.249c4.002-57.51,8.019-115.019,12.057-172.526
	c1.88-26.77,3.883-53.532,5.655-80.309c0.21-3.177,0.961-4.404,4.317-4.019c4.793,0.549,9.632,0.894,14.455,0.931
	c2.996,0.023,3.573,1.19,3.383,3.869c-0.868,12.229-1.554,24.47-2.359,36.703c-1.523,23.143-3.102,46.282-4.624,69.424
	c-2.599,39.508-5.078,79.025-7.804,118.524c-1.033,14.959,3.879,20.696,19.033,21.305c4.992,0.2,9.973,0.784,14.965,0.868
	c8.819,0.149,15.143-5.796,15.713-14.606c2.746-42.488,5.434-84.979,8.2-127.466c2.206-33.889,4.523-67.772,6.696-101.663
	c0.171-2.661,0.647-3.594,3.713-3.394c45.713,2.98,91.437,5.783,137.157,8.654c30.923,1.942,61.84,3.971,92.768,5.825
	C888.601,178.345,889.395,179.348,889.213,182.337z"/>
<path fill="#9EDADB" d="M418.17,592.861c0.557-0.639,1.114-1.277,1.672-1.916c0.068,0.646,0.227,1.298,0.18,1.936
	c-0.054,0.744-0.287,1.475-0.442,2.212C418.45,594.766,418.294,593.823,418.17,592.861z"/>
</svg>
