<?xml version="1.0" encoding="utf-8"?>
<!-- Generator: Adobe Illustrator 18.0.0, SVG Export Plug-In . SVG Version: 6.00 Build 0)  -->
<!DOCTYPE svg PUBLIC "-//W3C//DTD SVG 1.1//EN" "http://www.w3.org/Graphics/SVG/1.1/DTD/svg11.dtd">
<svg version="1.1" id="图层_1" xmlns="http://www.w3.org/2000/svg" xmlns:xlink="http://www.w3.org/1999/xlink" x="0px" y="0px"
	 viewBox="0 0 216 132" enable-background="new 0 0 216 132" xml:space="preserve">
<g>
	<path fill="#07A0A4" d="M98.23,112.975c-13.487,0-26.975-0.004-40.462,0.014c-0.591,0.001-0.719-0.16-0.718-0.73
		c0.014-30.634,0.015-61.267-0.003-91.9c0-0.614,0.194-0.706,0.742-0.706c24.911,0.013,49.822,0.013,74.733-0.004
		c0.607,0,0.764,0.129,0.763,0.752c-0.02,15.444-0.016,30.889-0.016,46.333c0,0.213-0.004,0.426,0.002,0.638
		c0.032,1.129,0.811,1.919,1.938,1.942c0.766,0.016,1.532,0.006,2.297,0.003c1.374-0.006,2.138-0.761,2.144-2.123
		c0.076-17.205-0.164-34.411,0.145-51.616c0.024-1.339-0.841-2.32-2.302-2.318c-28.187,0.028-56.374,0.029-84.561-0.002
		c-1.397-0.002-2.277,0.94-2.274,2.259c0.035,16.912,0.023,33.824,0.023,50.736c0,16.976,0.011,33.952-0.022,50.928
		c-0.002,1.24,0.893,2.199,2.208,2.196c15.125-0.035,30.25-0.023,45.376-0.023c0.149,0,0.298,0.004,0.447-0.002
		c1.089-0.042,1.87-0.824,1.897-1.919c0.017-0.702,0.004-1.404,0.004-2.106C100.589,113.66,99.903,112.975,98.23,112.975z"/>
	<path fill="#07A0A4" d="M66.964,37.662c9.401,0,18.801,0,28.202,0c4.296,0,8.593,0,12.889,0c5.19,0,10.379,0.002,15.569-0.002
		c1.331-0.001,2.102-0.77,2.112-2.089c0.005-0.638,0.001-1.276,0.001-1.914c-0.001-1.708-0.676-2.377-2.401-2.377
		c-18.78,0-37.561,0-56.341,0c-0.128,0-0.255-0.002-0.383,0c-1.208,0.021-1.997,0.797-2.015,1.995
		c-0.01,0.68-0.003,1.361-0.002,2.042C64.595,36.983,65.281,37.662,66.964,37.662z"/>
	<path fill="#07A0A4" d="M123.266,47.087c-18.738,0.033-37.475,0.021-56.213,0.021c-0.17,0-0.34-0.003-0.51,0.002
		c-1.13,0.032-1.919,0.81-1.944,1.936c-0.015,0.68-0.004,1.361-0.004,2.042c0,1.726,0.668,2.403,2.375,2.403
		c9.401,0,18.802,0,28.202,0c4.849,0,9.698,0,14.548,0c4.637,0,9.273,0.002,13.91-0.002c1.329-0.001,2.097-0.771,2.107-2.094
		c0.004-0.595-0.041-1.194,0.009-1.786C125.889,47.875,124.849,47.085,123.266,47.087z"/>
	<path fill="#07A0A4" d="M123.637,69.317c1.325-0.002,2.089-0.775,2.098-2.103c0.004-0.617,0.001-1.234,0.001-1.85
		c0-1.764-0.659-2.427-2.415-2.427c-18.759,0-37.518,0-56.277,0c-0.17,0-0.34-0.003-0.51,0.002
		c-1.127,0.034-1.912,0.815-1.936,1.944c-0.015,0.702-0.004,1.404-0.003,2.106c0.001,1.632,0.695,2.33,2.32,2.33
		c9.401,0.001,18.802,0,28.202,0c5.657,0,11.315,0,16.972,0C115.938,69.318,119.788,69.321,123.637,69.317z"/>
	<path fill="#07A0A4" d="M66.737,85.146c2.679,0.004,5.359,0.001,8.038,0.001c7.889,0,15.779,0.001,23.668-0.001
		c1.374,0,2.138-0.76,2.146-2.12c0.004-0.659,0.001-1.318,0-1.978c-0.002-1.577-0.713-2.283-2.303-2.283
		c-5.21-0.001-10.42,0-15.63,0c-5.316,0-10.632-0.002-15.949,0.002c-1.331,0.001-2.104,0.771-2.113,2.088
		c-0.005,0.723-0.004,1.446,0,2.169C64.602,84.385,65.365,85.144,66.737,85.146z"/>
	<path fill="#07A0A4" d="M66.804,100.336c3.232,0.002,6.465,0.001,9.697,0.001c7.315,0,14.63,0.001,21.946-0.001
		c1.373,0,2.135-0.761,2.142-2.123c0.004-0.659,0.001-1.318,0.001-1.978c-0.002-1.576-0.712-2.28-2.306-2.28
		c-5.231-0.001-10.462,0-15.694,0c-5.295,0-10.59-0.002-15.885,0.002c-1.33,0.001-2.101,0.771-2.11,2.091
		c-0.005,0.702-0.003,1.403,0,2.105C64.599,99.597,65.345,100.335,66.804,100.336z"/>
	<path fill="#07A0A4" d="M158.834,96.744c-0.172-0.447-0.173-0.835-0.005-1.283c1.948-5.186,3.842-10.393,5.838-15.561
		c0.648-1.677,1.003-3.339,0.913-5.138c-0.086-1.706-0.694-2.379-2.418-2.379c-18.784,0-37.568,0-56.352,0
		c-0.17,0-0.341-0.005-0.51,0.003c-1.057,0.047-1.847,0.819-1.874,1.875c-0.025,0.978-0.014,1.957,0.001,2.935
		c0.004,0.228,0.062,0.465,0.142,0.681c2.189,5.866,4.382,11.732,6.587,17.593c0.168,0.447,0.162,0.837-0.01,1.283
		c-1.922,4.992-3.782,10.008-5.763,14.976c-0.692,1.734-1.085,3.446-0.981,5.314c0.09,1.618,0.717,2.314,2.354,2.314
		c9.403,0,18.805,0,28.208,0c8.105,0,16.21,0,24.315,0c1.447,0,2.893,0.012,4.34-0.005c1.128-0.013,1.92-0.809,1.94-1.936
		c0.016-0.936-0.001-1.872,0.007-2.808c0.002-0.263-0.06-0.508-0.151-0.745C163.225,108.154,161.037,102.446,158.834,96.744z
		 M151.057,97.536c1.541,3.312,2.779,6.748,4.151,10.128c0.675,1.663,1.428,3.29,2.126,4.943c0.04,0.095,0.063,0.196,0.093,0.293
		c-0.199,0.131-0.393,0.071-0.574,0.072c-14.546,0.003-29.093,0.003-43.639,0.003c-0.714,0-0.714-0.001-0.446-0.668
		c1.012-2.521,1.922-5.089,3.066-7.549c1.098-2.361,1.89-4.847,3.063-7.172c0.265-0.524,0.259-1.061,0.053-1.606
		c-0.824-2.184-1.565-4.403-2.487-6.545c-1.407-3.27-2.515-6.65-3.81-9.96c-0.083-0.211-0.226-0.414-0.162-0.711
		c0.224,0,0.454,0,0.684,0c14.546,0,29.093,0,43.639,0c0.788,0,0.811,0.01,0.516,0.715c-2.272,5.413-4.133,10.983-6.271,16.447
		C150.844,96.471,150.811,97.008,151.057,97.536z"/>
	<path fill="#07A0A4" d="M146.287,99.317c-2.319-0.003-4.638-0.017-6.956,0.012c-0.495,0.006-0.601-0.142-0.585-0.605
		c0.035-1.041,0.037-2.085,0-3.126c-0.017-0.49,0.106-0.641,0.62-0.635c2.361,0.03,4.723,0.02,7.084,0.01
		c1.203-0.005,1.99-0.799,2.006-2.001c0.01-0.744,0.005-1.489,0.002-2.234c-0.006-1.373-0.761-2.135-2.124-2.143
		c-0.621-0.004-1.241-0.001-1.974-0.001c0.86-1.026,1.624-1.937,2.387-2.849c0.545-0.651,0.619-0.993,0.094-1.631
		c-0.936-1.138-2.065-2.086-3.336-2.827c-0.78-0.455-1.203-0.299-1.766,0.375c-1.814,2.17-3.644,4.328-5.436,6.516
		c-0.386,0.471-0.561,0.417-0.933-0.02c-1.98-2.327-3.832-4.763-5.946-6.977c-0.693-0.726-1.046-0.822-1.917-0.292
		c-0.802,0.488-1.453,1.175-2.183,1.759c-0.384,0.307-0.737,0.64-0.996,1.065c-0.31,0.51-0.326,0.955,0.105,1.442
		c0.956,1.084,1.866,2.209,2.895,3.438c-0.942,0-1.744-0.01-2.545,0.002c-1.169,0.018-1.958,0.802-1.979,1.965
		c-0.013,0.702-0.003,1.404-0.003,2.106c0.001,1.596,0.703,2.307,2.279,2.308c2.255,0.001,4.51,0.009,6.765-0.008
		c0.4-0.003,0.554,0.08,0.54,0.517c-0.033,1.084-0.039,2.171,0.002,3.254c0.019,0.491-0.135,0.594-0.602,0.588
		c-2.297-0.025-4.595-0.016-6.892-0.01c-1.32,0.004-2.083,0.78-2.091,2.112c-0.004,0.702-0.003,1.404,0,2.106
		c0.005,1.409,0.756,2.16,2.169,2.162c2.276,0.003,4.553,0.017,6.829-0.012c0.492-0.006,0.602,0.138,0.587,0.604
		c-0.035,1.105-0.016,2.212-0.01,3.318c0.007,1.318,0.782,2.082,2.113,2.09c0.745,0.004,1.489,0.007,2.234-0.001
		c1.243-0.014,2.023-0.794,2.033-2.041c0.009-1.127,0.03-2.256-0.011-3.382c-0.018-0.495,0.141-0.591,0.604-0.586
		c2.319,0.024,4.638,0.014,6.956,0.01c1.405-0.002,2.148-0.757,2.153-2.177c0.002-0.681,0.003-1.362,0-2.042
		C148.452,100.07,147.701,99.319,146.287,99.317z"/>
</g>
</svg>
