<?xml version="1.0" encoding="utf-8"?>
<!-- Generator: Adobe Illustrator 18.0.0, SVG Export Plug-In . SVG Version: 6.00 Build 0)  -->
<!DOCTYPE svg PUBLIC "-//W3C//DTD SVG 1.1//EN" "http://www.w3.org/Graphics/SVG/1.1/DTD/svg11.dtd">
<svg version="1.1" id="图层_1" xmlns="http://www.w3.org/2000/svg" xmlns:xlink="http://www.w3.org/1999/xlink" x="0px" y="0px"
	 viewBox="0 0 1024 1024" enable-background="new 0 0 1024 1024" xml:space="preserve">
<g>
	<path fill="#07A0A4" d="M77.052,500.449c1.986,1.731,4.348,3.061,6.638,4.407c63.842,37.536,127.699,75.046,191.548,112.57
		c45.053,26.478,90.093,52.976,135.146,79.454c11.153,6.555,22.178,7.912,34.583,2.149c60.935-28.307,122.102-56.113,183.185-84.102
		c106.592-48.842,213.183-97.685,319.765-146.547c2.503-1.147,5.802-1.8,5.953-5.293c0.148-3.4-2.561-5.206-5.041-6.94
		c-0.815-0.57-1.686-1.077-2.578-1.519c-22.502-11.156-45.011-22.299-67.517-33.448c-1.345-0.667-2.517-1.19-4.158-0.325
		c-17.448,9.199-34.947,18.3-53.044,27.748c8.125,4.078,15.615,7.837,23.55,11.819c-2.081,1.013-3.557,1.769-5.063,2.459
		c-134.875,61.776-269.76,123.529-404.587,185.411c-3.772,1.731-6.482,1.621-10.032-0.471
		c-81.006-47.747-162.085-95.368-243.13-143.048c-1.513-0.89-3.449-1.342-4.37-3.448c9.561-4.19,19.074-8.359,29.19-12.792
		c-17.216-9.806-33.879-19.185-50.395-28.817c-2.802-1.634-4.973-1.694-7.825-0.432c-17.032,7.535-34.133,14.914-51.211,22.345
		c-6.404,2.787-12.862,5.458-19.198,8.392C73.027,492.539,72.497,496.48,77.052,500.449z"/>
	<path fill="#07A0A4" d="M949.521,579.958c-0.824-0.559-1.688-1.074-2.58-1.516c-22.358-11.074-44.725-22.129-67.077-33.215
		c-1.552-0.77-2.862-1.146-4.618-0.219c-17.343,9.154-34.739,18.208-52.718,27.602c8.067,4.04,15.612,7.819,23.52,11.779
		c-1.937,0.969-3.398,1.755-4.902,2.445c-134.876,61.774-269.765,123.518-404.583,185.417c-4.022,1.847-6.807,1.547-10.475-0.615
		c-80.862-47.662-161.799-95.197-242.703-142.788c-1.524-0.897-3.398-1.409-4.546-3.489c9.613-4.212,19.135-8.385,29.243-12.814
		c-17.689-10.089-34.894-19.835-52.005-29.741c-2.391-1.384-4.127-0.341-6.053,0.492c-13.889,6.008-27.764,12.047-41.64,18.084
		c-9.607,4.18-19.249,8.281-28.797,12.592c-5.526,2.495-6.125,6.401-1.635,10.381c1.969,1.746,4.332,3.084,6.62,4.429
		c73.455,43.187,146.924,86.349,220.386,129.522c35.583,20.912,71.129,41.889,106.757,62.725c9.873,5.774,20.099,8.321,31.339,3.167
		c168.56-77.292,337.158-154.501,505.737-231.751c2.501-1.146,5.843-1.786,6.064-5.22
		C955.088,583.599,952.164,581.751,949.521,579.958z"/>
	<path fill="#07A0A4" d="M83.448,381.08c35.858,21.107,71.734,42.184,107.603,63.271c73.461,43.187,146.919,86.379,220.383,129.56
		c11.16,6.56,22.17,7.8,34.586,2.091c150.657-69.276,301.449-138.258,452.205-207.318c17.389-7.966,34.793-15.899,52.151-23.932
		c5.669-2.623,6.14-6.184,1.352-10.139c-1.9-1.569-4.129-2.808-6.352-3.908C828.49,272.87,711.589,215.067,594.692,157.255
		c-5.301-2.622-10.881-4.084-18.184-4.326c-2.907-0.256-6.78,1.115-10.65,2.796c-160.462,69.718-320.939,139.4-481.389,209.144
		c-3.632,1.579-8.985,1.94-9.247,7.122C74.964,377.08,79.76,378.908,83.448,381.08z M184.092,376.026
		c129.953-56.432,259.914-112.846,389.836-169.35c3.021-1.314,5.34-1.316,8.308,0.154c86.441,42.826,172.93,85.554,259.407,128.306
		c1.331,0.658,2.614,1.411,4.428,2.396c-14.621,6.696-28.788,13.181-42.953,19.671c-122.315,56.033-244.639,112.048-366.904,168.191
		c-3.612,1.659-6.198,1.555-9.589-0.444c-81.005-47.738-162.078-95.363-243.134-143.016c-1.543-0.907-3.033-1.904-5.111-3.214
		C180.661,377.64,182.354,376.781,184.092,376.026z"/>
</g>
</svg>
