<?xml version="1.0" encoding="utf-8"?>
<!-- Generator: Adobe Illustrator 18.0.0, SVG Export Plug-In . SVG Version: 6.00 Build 0)  -->
<!DOCTYPE svg PUBLIC "-//W3C//DTD SVG 1.1//EN" "http://www.w3.org/Graphics/SVG/1.1/DTD/svg11.dtd">
<svg version="1.1" id="图层_1" xmlns="http://www.w3.org/2000/svg" xmlns:xlink="http://www.w3.org/1999/xlink" x="0px" y="0px"
	 viewBox="0 0 216 132" enable-background="new 0 0 216 132" xml:space="preserve">
<path fill="#20989B" d="M162.292,15.909c0.001-1.389-0.973-2.269-2.245-2.268c-34.588,0.028-69.175,0.023-103.763,0.023
	c-1.742,0-2.425,0.676-2.425,2.402c0,33.449,0,66.898,0,100.348c0,1.774,0.668,2.438,2.452,2.438c17.272,0,34.545,0,51.817,0
	c17.294,0,34.588-0.012,51.882,0.024c1.331,0.003,2.283-0.885,2.282-2.296C162.263,83.022,162.263,49.466,162.292,15.909z
	 M59.905,20.797c-0.001-0.561,0.124-0.703,0.696-0.702c14.928,0.018,29.857,0.015,44.785,0.01c0.408,0,0.698-0.052,0.697,0.565
	c-0.022,13.789-0.017,27.579-0.017,41.369c0,0.012-0.001,0.025-0.001,0.037c-2.725-3.939-5.677-7.705-8.672-11.44
	c-0.445-0.555-0.966-0.98-1.62-1.225c-1.086-0.406-2.008-1.059-2.851-1.834c-0.169-0.156-0.586-0.297-0.194-0.627
	c0.222-0.187,0.342-0.603,0.718-0.433c0.022,0.014,0.04,0.017,0.063,0.033c0.049,0.029,0.1,0.06,0.157,0.109
	c0.994,0.836,2.149,1.413,3.414,1.739c1.228,0.316,2.464,0.401,3.667-0.095c1.294-0.534,1.892-1.687,1.507-2.819
	c-0.436-1.283-1.854-2.133-3.096-1.857c-0.562,0.125-0.948,0.384-1.141,0.744c-0.214,0.299-0.274,0.675-0.13,1.134
	c0.058,0.185,0.127,0.365,0.206,0.542c0.129,0.29,0.156,0.485,0.092,0.611c-1.269-0.089-2.306-0.586-3.268-1.297
	c-0.378-0.279-0.321-0.452,0.024-0.705c0.551-0.403,1.206-0.584,1.84-0.871c-0.975-0.773-1.887-0.787-2.917-0.001
	c-0.004,0.003-0.006,0.003-0.009,0.006c-0.112,0.059-0.214,0.106-0.307,0.142c-0.138,0.013-0.245-0.069-0.373-0.256
	c-0.358-0.525-0.598-1.088-0.656-1.723c-0.218-2.388,1.091-3.929,2.919-5.137c1.712-1.131,3.455-0.97,5.144,0.088
	c0.229,0.143,0.448,0.305,0.668,0.469c0.179,0.137,0.362,0.258,0.538,0.413c0.001-0.004,0.001-0.007,0.003-0.011
	c0.139,0.106,0.274,0.211,0.418,0.317c0.04-0.129,0.091-0.226,0.098-0.326c0.249-3.302-0.725-6.177-3.203-8.401
	c-2.063-1.851-5.464-2.149-7.897-0.109c-0.06,0.048-0.117,0.099-0.175,0.15c-0.21,0.19-0.415,0.391-0.608,0.618
	c-0.01,0.011-0.016,0.023-0.026,0.034c-0.027,0.033-0.06,0.055-0.086,0.089c-1.192,1.493-2.201,3.05-2.353,4.987
	c-0.228,2.913,0.358,5.643,2.114,8.049c0.443,0.607,0.865,1.231,1.414,1.754c0.078,0.074,0.147,0.156,0.212,0.242
	c0.235,0.313,0.188,0.598-0.086,0.859c-0.038,0.036-0.076,0.052-0.113,0.077c-0.128,0.007-0.234-0.093-0.355-0.217
	c-0.834-0.848-1.508-1.813-2.101-2.84c-1.056-1.831-1.846-3.783-2.438-5.799c-0.904-3.075-2.906-4.919-5.968-5.693
	c-0.187-0.047-0.369-0.114-0.555-0.165c-2.916-0.793-5.837-1.571-8.672-2.633c-0.07-0.026-0.158-0.003-0.25-0.003
	c0.048,0.105,0.086,0.211,0.133,0.316c-0.044,0.122,0.032,0.213,0.07,0.301c1.127,2.606,2.03,5.293,2.927,7.983
	c0.382,1.146,0.904,2.227,1.557,3.245c0.268,0.419,0.595,0.757,0.944,1.064c0.709,0.679,1.565,1.19,2.6,1.505
	c1.292,0.393,2.591,0.762,3.875,1.177c1.958,0.634,3.839,1.424,5.501,2.636c0.017,0.013,0.036,0.024,0.053,0.037
	c0.112,0.083,0.22,0.174,0.33,0.261c0.073,0.059,0.149,0.114,0.217,0.18c0.287,0.281,0.367,0.566,0.064,0.895
	c-0.028,0.031-0.055,0.044-0.083,0.068c-0.125,0.042-0.249,0.007-0.432-0.154c-0.937-0.827-1.989-1.497-3.112-2.044
	c-2.928-1.425-6.587-1.719-9.677-0.165c-1.461,0.697-2.668,1.782-3.587,3.15c-1.567,2.333-1.034,5.679,1.216,7.595
	c0.035,0.03,0.072,0.054,0.107,0.083c1.278,1.207,2.875,1.879,4.624,2.27c1.306,0.292,2.619,0.373,3.987-0.03
	c-0.256-0.275-0.48-0.501-0.688-0.742c-0.855-0.989-1.573-2.05-1.645-3.412c-0.109-2.061,1.461-4.495,3.471-5.378
	c1.2-0.527,2.407-0.568,3.604,0.029c0.071,0.036,0.135,0.071,0.194,0.106c0.291,0.235,0.267,0.444-0.013,0.92
	c-0.435,0.74-0.541,1.477-0.029,2.271c0.024-0.013,0.036-0.031,0.055-0.046c0.111,0.158,0.241,0.307,0.404,0.434
	c0.178-0.693,0.356-1.376,0.788-1.95c0.068-0.091,0.129-0.236,0.235-0.246c0.024,0.018,0.049,0.027,0.073,0.052
	c0.936,0.938,1.561,2.04,1.712,3.378c0.014,0.127-0.003,0.213-0.034,0.282c-0.31-0.136-0.578-0.26-0.845-0.348
	c-0.753-0.249-1.381-0.046-1.723,0.48c-0.166,0.187-0.285,0.434-0.339,0.741c-0.171,0.964,0.378,2.017,1.207,2.552
	c0.05,0.037,0.087,0.082,0.14,0.118c1.158,0.77,2.436,0.487,3.174-0.687c0.388-0.616,0.55-1.306,0.554-2.023
	c0.011-1.811-0.671-3.387-1.699-4.834c-0.223-0.314-0.487-0.6-0.728-0.902c-0.368-0.46,0.199-0.549,0.333-0.805
	c0.085-0.163,0.188-0.193,0.3-0.148c0.047,0.033,0.092,0.057,0.14,0.104c0.726,0.709,1.42,1.448,1.854,2.374
	c0.207,0.441,0.472,0.833,0.766,1.203c0.118,0.16,0.264,0.3,0.4,0.448c0.08,0.083,0.144,0.177,0.229,0.257
	c0.026,0.024,0.053,0.047,0.08,0.072c0.051,0.048,0.089,0.104,0.142,0.151c0.467,0.409,0.929,0.823,1.394,1.235
	c1.171,1.06,2.352,2.109,3.547,3.141c0.202,0.179,0.403,0.358,0.605,0.536c0.479,0.423,0.976,0.824,1.465,1.234
	c0.235,0.198,0.465,0.402,0.701,0.599c0.057,0.048,0.118,0.092,0.176,0.139c0.961,0.787,1.931,1.564,2.903,2.337
	c0.027,0.059,0.04,0.125,0.013,0.217c-5.714,0.003-11.427,0.008-17.141,0.01c-9.215,0.002-18.43-0.005-27.644,0.013
	c-0.544,0.001-0.712-0.098-0.711-0.687C59.923,48.506,59.922,34.652,59.905,20.797z M105.408,112.419
	c-14.952-0.015-29.905-0.015-44.857-0.003c-0.48,0-0.647-0.087-0.646-0.618c0.016-13.9,0.015-27.799,0.006-41.699
	c0-0.427,0.028-0.633,0.566-0.633c14.823,0.018,29.647,0.014,44.471,0.015c0.107,0,0.215,0.006,0.322,0.009
	c0.037,0.147-0.006,0.241-0.076,0.315c-0.064,0.048-0.125,0.1-0.189,0.148c-0.035,0.022-0.071,0.044-0.102,0.068
	c-0.734,0.558-1.456,1.13-2.171,1.711c-0.288,0.234-0.572,0.474-0.858,0.711c-0.559,0.463-1.115,0.93-1.667,1.403
	c-0.321,0.276-0.643,0.552-0.962,0.83c-0.54,0.471-1.078,0.946-1.614,1.422c-0.309,0.275-0.62,0.548-0.929,0.824
	c-0.536,0.478-1.072,0.956-1.603,1.44c-0.259,0.233-0.519,0.466-0.778,0.699c-0.089,0.08-0.16,0.174-0.243,0.258
	c-0.036,0.036-0.075,0.068-0.111,0.104c-0.055,0.055-0.098,0.117-0.15,0.173c-0.062,0.072-0.13,0.14-0.186,0.215
	c-0.248,0.295-0.472,0.605-0.633,0.963c-0.448,0.996-1.147,1.806-1.911,2.571c-0.095,0.095-0.188,0.167-0.281,0.223
	c-0.075,0.002-0.16-0.042-0.262-0.179c-0.214-0.287-0.69-0.448-0.207-0.966c1.039-1.114,1.75-2.433,2.116-3.924
	c0.289-1.177,0.322-2.342-0.235-3.456c-0.514-1.029-1.492-1.517-2.487-1.28c-0.528,0.126-0.991,0.427-1.352,0.823
	c-0.569,0.507-0.878,1.171-0.825,2.026c0.026,0.422,0.17,0.749,0.394,0.975c0.346,0.481,0.937,0.676,1.63,0.46
	c0.29-0.09,0.575-0.221,0.882-0.353c0.172,0.268,0.022,0.646-0.066,0.961c-0.263,0.949-0.745,1.784-1.403,2.508
	c-0.065,0.071-0.117,0.108-0.174,0.156c-0.163,0.041-0.291-0.083-0.448-0.334c-0.348-0.557-0.461-1.207-0.719-1.826
	c-0.201,0.22-0.351,0.443-0.46,0.67c-0.371,0.574-0.372,1.198,0.022,1.914c0.303,0.551,0.34,0.823,0.037,1.071
	c-0.143,0.079-0.304,0.14-0.453,0.202c-0.379,0.156-0.77,0.254-1.184,0.276c-2.139,0.111-3.551-1.048-4.675-2.687
	c-1.254-1.827-1.246-3.68-0.021-5.529c0.403-0.608,0.913-1.126,1.413-1.686c-0.117-0.046-0.193-0.081-0.272-0.106
	c-0.082-0.025-0.166-0.047-0.25-0.058c-2.502-0.327-4.783,0.165-6.81,1.458c-0.032,0.019-0.064,0.039-0.095,0.058
	c-0.223,0.145-0.441,0.305-0.657,0.471c-0.115,0.087-0.239,0.156-0.35,0.251c-0.07,0.059-0.126,0.123-0.192,0.183
	c-0.122,0.109-0.243,0.22-0.356,0.339c-1.57,1.607-2.134,3.582-1.597,5.891c0.191,0.82,0.635,1.48,1.167,2.081
	c0.186,0.238,0.385,0.47,0.615,0.69c0.406,0.388,0.826,0.718,1.251,1.023c0.189,0.137,0.381,0.27,0.577,0.39
	c0.142,0.088,0.287,0.168,0.431,0.247c0.114,0.061,0.228,0.12,0.344,0.176c1.897,0.946,3.973,1.202,6.266,0.854
	c2.438-0.369,4.476-1.555,6.351-3.07c0.197-0.159,0.333-0.222,0.482-0.177c0.032,0.03,0.065,0.051,0.097,0.087
	c0.275,0.313,0.2,0.598-0.076,0.843c-0.277,0.246-0.574,0.463-0.872,0.679c-0.89,0.616-1.848,1.12-2.845,1.56
	c-1.871,0.826-3.84,1.357-5.799,1.905c-0.942,0.263-1.754,0.662-2.456,1.181c-0.831,0.549-1.469,1.292-1.957,2.193
	c-0.492,0.908-0.918,1.845-1.239,2.83c-0.885,2.715-1.822,5.411-2.96,8.016c0.017,0.023,0.034,0.033,0.051,0.046
	c-0.051,0.118-0.094,0.235-0.146,0.353c1.57-0.5,3.058-0.97,4.543-1.449c2.121-0.684,4.324-1.088,6.405-1.911
	c1.896-0.75,3.283-1.993,3.997-3.934c0.466-1.267,0.92-2.54,1.414-3.796c0.868-2.209,1.924-4.312,3.596-6.046
	c0.131-0.136,0.246-0.268,0.399-0.248c0.033,0.022,0.066,0.042,0.1,0.074c0.347,0.313,0.315,0.632-0.125,1.101
	c-1.172,1.25-2.185,2.625-2.761,4.238c-0.988,2.765-1.291,5.569,0.058,8.326c0.366,0.747,0.841,1.426,1.381,2.053
	c0.047,0.058,0.087,0.118,0.135,0.175c0.412,0.487,0.865,0.88,1.34,1.203c0.056,0.037,0.109,0.076,0.166,0.111
	c2.641,1.677,5.979,0.994,7.843-1.019c1.366-1.476,2.179-3.22,2.556-5.18c0.195-1.011,0.221-2.023,0.025-3.124
	c-0.251,0.21-0.423,0.357-0.597,0.498c-0.049,0.025-0.093,0.06-0.134,0.102c-0.933,0.737-1.926,1.362-3.151,1.47
	c-2.361,0.208-5.05-1.759-5.696-4.17c-0.319-1.192-0.221-2.335,0.5-3.387c0.218-0.318,0.359-0.417,0.731-0.129
	c1.014,0.784,1.975,0.755,2.892-0.022c-0.596-0.266-1.215-0.44-1.751-0.802c-0.421-0.284-0.52-0.493-0.038-0.821
	c0.588-0.401,1.181-0.783,1.865-0.996c0.427-0.133,0.856-0.277,1.327-0.25c0.07,0.127,0.044,0.328-0.09,0.631
	c-0.069,0.158-0.132,0.317-0.186,0.48c-0.174,0.529-0.086,0.953,0.2,1.272c0.137,0.199,0.322,0.373,0.591,0.499
	c1.212,0.566,2.815-0.099,3.449-1.431c0.548-1.151,0.073-2.358-1.189-2.995c-1.047-0.529-2.16-0.519-3.274-0.326
	c-1.534,0.267-2.89,0.953-4.093,1.923c-0.042,0.034-0.077,0.052-0.114,0.074c-0.026,0.018-0.048,0.028-0.073,0.043
	c-0.356,0.155-0.436-0.293-0.649-0.434c-0.347-0.231-0.115-0.412,0.087-0.591c0.854-0.76,1.756-1.442,2.839-1.858
	c0.584-0.224,1.117-0.532,1.526-1.037c2.986-3.69,5.898-7.435,8.633-11.316c0.127-0.18,0.22-0.389,0.359-0.562
	c0,13.844-0.003,27.689,0.014,41.533C106.08,112.302,105.937,112.419,105.408,112.419z M155.451,111.719
	c0.001,0.561-0.124,0.703-0.696,0.702c-13.854-0.018-27.709-0.015-41.563-0.01c-0.408,0-0.697,0.051-0.696-0.565
	c0.021-13.79,0.016-27.58,0.017-41.37c0-0.107,0.007-0.215,0.011-0.322c0.314-0.052,0.388,0.225,0.511,0.401
	c2.727,3.889,5.658,7.622,8.629,11.326c0.096,0.119,0.213,0.207,0.319,0.31c0.061,0.063,0.123,0.123,0.187,0.182
	c0.064,0.054,0.123,0.116,0.191,0.164c0.307,0.247,0.643,0.45,1.024,0.593c0.809,0.304,1.518,0.756,2.178,1.283
	c0.022,0.018,0.043,0.036,0.065,0.054c0.155,0.126,0.307,0.258,0.458,0.391c0.258,0.246,0.401,0.501,0.115,0.864
	c-0.117,0.149-0.225,0.247-0.331,0.32c-0.099,0.017-0.221-0.015-0.39-0.153c-1.023-0.838-2.184-1.443-3.471-1.772
	c-1.25-0.319-2.507-0.408-3.725,0.127c-0.471,0.207-0.84,0.495-1.103,0.83c-0.005,0.006-0.011,0.012-0.016,0.018
	c-0.013,0.017-0.026,0.035-0.039,0.052c-0.502,0.605-0.606,1.365-0.241,2.117c0.138,0.285,0.328,0.538,0.55,0.752
	c0.725,0.785,1.853,1.143,2.818,0.789c0.809-0.296,1.154-0.966,0.883-1.797c-0.124-0.38-0.325-0.735-0.526-1.179
	c1.307,0.005,2.364,0.502,3.368,1.187c0.433,0.373,0.419,0.648-0.037,0.984c-0.505,0.306-1.078,0.47-1.622,0.744
	c0.891,0.691,1.684,0.725,2.614,0.226c0.233-0.125,0.396-0.546,0.708-0.384c0.024,0.014,0.049,0.024,0.072,0.042
	c0.067,0.051,0.116,0.129,0.17,0.198c0.089,0.134,0.174,0.309,0.264,0.538c0.659,1.678,0.412,3.267-0.684,4.676
	c-0.452,0.581-1.001,1.083-1.606,1.519c-0.072,0.049-0.138,0.102-0.212,0.15c-1.714,1.128-3.458,0.959-5.145-0.101
	c-0.553-0.348-1.059-0.769-1.614-1.177c-0.041,0.115-0.087,0.192-0.093,0.272c-0.001,0.018,0,0.035-0.002,0.053
	c-0.017-0.013-0.032-0.023-0.049-0.036c-0.123,0.777-0.132,1.481-0.036,2.159c0.323,2.295,1.214,4.331,2.912,5.963
	c0.178,0.171,0.372,0.326,0.573,0.473c2.327,1.916,6.127,1.956,8.488-0.834c2.361-2.789,2.847-5.86,2.055-9.276
	c-0.535-2.308-1.826-4.191-3.401-5.897c-0.292-0.316-0.269-0.483,0.013-0.772c0.092-0.094,0.169-0.138,0.236-0.152
	c0.076,0.045,0.149,0.1,0.219,0.163c0.874,0.787,1.493,1.769,2.09,2.765c1.111,1.856,1.801,3.893,2.53,5.913
	c0.527,1.46,1.069,2.921,2.358,3.918c0.123,0.095,0.256,0.17,0.384,0.257c0.794,0.618,1.731,1.088,2.823,1.403
	c0.247,0.071,0.487,0.169,0.735,0.236c3.023,0.812,6.042,1.634,8.986,2.706c0.025,0.009,0.068-0.032,0.102-0.049
	c0.072-0.189-0.06-0.331-0.124-0.481c-0.868-2.009-1.614-4.064-2.318-6.135c-0.469-1.38-0.907-2.769-1.539-4.09
	c-0.861-1.8-2.185-3.056-4.108-3.645c-1.291-0.396-2.59-0.766-3.876-1.178c-2.219-0.712-4.341-1.628-6.152-3.138
	c-0.196-0.163-0.645-0.276-0.251-0.728c0.328-0.377,0.51-0.243,0.813,0.012c1.122,0.946,2.349,1.751,3.715,2.286
	c3.886,1.52,8.202,1.252,11.464-1.935c2.871-2.805,2.193-7.132-0.434-9.256c-1.983-1.603-4.281-2.317-6.813-2.283
	c-0.509,0.007-1.038,0.037-1.536,0.266c0.079,0.092,0.152,0.174,0.23,0.263c0.31,0.408,0.654,0.802,0.959,1.227
	c1.26,1.752,1.39,3.581,0.296,5.433c-0.382,0.647-0.819,1.241-1.335,1.74c-0.405,0.352-0.846,0.65-1.314,0.856
	c-1.245,0.549-2.491,0.576-3.719-0.08c-0.402-0.215-0.546-0.389-0.218-0.861c0.696-1.001,0.552-2.086-0.278-2.769
	c-0.044,0.149-0.086,0.299-0.13,0.447c-0.014-0.018-0.019-0.036-0.035-0.054c-0.236,0.543-0.371,1.111-0.715,1.585
	c-0.069,0.095-0.139,0.166-0.21,0.217c-0.036-0.011-0.076-0.035-0.124-0.084c-0.986-1.026-1.632-2.207-1.759-3.705
	c0.416,0.174,0.741,0.339,1.084,0.447c0.939,0.295,1.678-0.131,1.908-1.076c0.345-1.421-0.852-3.101-2.31-3.241
	c-0.777-0.075-1.477,0.257-1.96,0.873c-0.261,0.286-0.473,0.643-0.6,1.066c-0.441,1.471-0.097,2.847,0.493,4.192
	c0.391,0.89,0.896,1.709,1.542,2.442c0.336,0.382,0.326,0.638,0.048,0.973c-0.036,0.034-0.069,0.069-0.09,0.108
	c-0.006,0.012-0.014,0.016-0.021,0.027c-0.061,0.062-0.12,0.102-0.179,0.142c-0.09,0.011-0.189-0.041-0.298-0.151
	c-0.774-0.78-1.532-1.571-1.994-2.588c-0.334-0.736-0.811-1.351-1.421-1.885c-1.858-1.627-3.697-3.277-5.548-4.912
	c-1.784-1.576-3.655-3.045-5.516-4.527h0c6.659-0.003,13.317-0.008,19.976-0.01c7.11-0.002,14.219,0.006,21.329-0.013
	c0.545-0.001,0.711,0.099,0.71,0.688C155.433,84.01,155.434,97.864,155.451,111.719z M155.445,62.415
	c0,0.424-0.023,0.635-0.564,0.634c-13.535-0.018-27.07-0.014-40.605-0.015c-0.107,0-0.215-0.006-0.322-0.009
	c0-0.001,0-0.002,0-0.003c0.086,0.001,0.172,0.002,0.257,0.003c0.038-0.049,0.067-0.109,0.114-0.144
	c3.895-2.91,7.481-6.183,11.091-9.428c0.487-0.438,0.892-0.927,1.16-1.525c0.465-1.037,1.17-1.896,1.983-2.672
	c0.123-0.117,0.241-0.333,0.407-0.305c0.066,0.04,0.132,0.078,0.203,0.152c0.397,0.415,0.438,0.671,0.063,1.11
	c-1.17,1.372-1.971,2.923-2.195,4.722c-0.129,1.036-0.01,2.037,0.674,2.858c0.545,0.806,1.415,1.171,2.299,0.958
	c1.313-0.316,2.256-1.679,2.087-3.017c-0.132-1.048-0.934-1.58-1.94-1.266c-0.353,0.11-0.689,0.276-1.084,0.438
	c0.123-1.433,0.735-2.554,1.619-3.563c0.128-0.146,0.223-0.19,0.308-0.181c0.074,0.07,0.151,0.162,0.237,0.287
	c0.305,0.444,0.427,0.972,0.64,1.48c0.016-0.019,0.022-0.039,0.038-0.058c0.044,0.15,0.088,0.3,0.132,0.451
	c0.768-0.632,0.905-1.583,0.433-2.563c-0.12-0.25-0.521-0.435-0.334-0.751c0.159-0.269,0.502-0.389,0.802-0.512
	c0.38-0.156,0.77-0.253,1.184-0.274c1.293-0.066,2.316,0.337,3.174,1.024c0.139,0.12,0.278,0.238,0.405,0.375
	c0.584,0.631,1.117,1.3,1.473,2.1c0.701,1.578,0.593,3.088-0.323,4.544c-0.386,0.613-0.839,1.177-1.353,1.747
	c0.003,0.001,0.005,0.001,0.008,0.002c-0.039,0.044-0.076,0.085-0.115,0.129c0.211,0.058,0.372,0.123,0.538,0.145
	c2.995,0.393,5.667-0.387,7.978-2.306c1.311-1.089,2.009-2.556,2.165-4.251c0.169-1.843-0.423-3.406-1.761-4.711
	c-1.56-1.521-3.289-2.667-5.521-2.917c-3.724-0.416-6.937,0.75-9.771,3.106c-0.305,0.253-0.485,0.388-0.812,0.011
	c-0.394-0.453,0.056-0.565,0.252-0.728c1.5-1.257,3.223-2.125,5.06-2.754c1.723-0.59,3.472-1.103,5.206-1.659
	c1.686-0.541,2.88-1.65,3.688-3.208c0.476-0.917,0.868-1.867,1.19-2.846c0.871-2.649,1.792-5.279,2.898-7.84
	c0.057-0.132,0.168-0.262,0.01-0.435c-2.24,0.83-4.538,1.512-6.852,2.143c-1.406,0.384-2.819,0.738-4.168,1.309
	c-0.515,0.218-0.975,0.49-1.406,0.791c-0.205,0.135-0.393,0.302-0.585,0.461c-0.071,0.063-0.156,0.113-0.224,0.18
	c-0.049,0.045-0.106,0.077-0.154,0.124c-1.008,0.976-1.47,2.255-1.931,3.528c-0.732,2.02-1.422,4.056-2.53,5.913
	c-0.562,0.942-1.145,1.869-1.946,2.635c-0.152,0.145-0.276,0.232-0.391,0.294c-0.062-0.016-0.13-0.056-0.209-0.146
	c-0.22-0.248-0.384-0.405-0.058-0.723c0.802-0.783,1.448-1.697,2.045-2.644c2.138-3.395,2.682-8.775-0.602-12.539
	c-2.678-3.068-6.909-2.667-9.121-0.378c-0.064,0.066-0.116,0.137-0.178,0.204c-2.054,2.089-2.933,4.678-2.739,7.66
	c0.003,0.045,0.024,0.082,0.066,0.121c0.006,0.001,0.01-0.001,0.016,0c0,0.003,0,0.006,0,0.009c0.01,0.136-0.015,0.308,0.203,0.378
	c0.169-0.145,0.342-0.302,0.525-0.448c0.949-0.759,1.958-1.413,3.205-1.532c1.164-0.111,2.396,0.306,3.432,1.038
	c0.901,0.682,1.604,1.572,2.055,2.699c0.481,1.202,0.438,2.449-0.195,3.615c-0.1,0.185-0.186,0.325-0.27,0.425
	c-0.142,0.1-0.295,0.084-0.55-0.113c-1.003-0.775-2.048-0.728-2.845,0.062c0.555,0.219,1.123,0.398,1.616,0.721
	c0.388,0.295,0.426,0.548,0.122,0.863c-0.996,0.77-2.105,1.272-3.472,1.292c0.192-0.499,0.474-0.859,0.571-1.304
	c0.147-0.672-0.057-1.199-0.632-1.536c-0.968-0.567-2.353-0.217-3.172,0.726c-0.151,0.155-0.291,0.323-0.4,0.514
	c-0.468,0.824-0.386,1.686,0.195,2.335c0.184,0.239,0.425,0.456,0.72,0.64c0.757,0.473,1.598,0.595,2.472,0.571
	c1.949-0.055,3.622-0.835,5.122-2.011c0.161-0.126,0.279-0.161,0.375-0.151c0.058,0.039,0.116,0.078,0.175,0.136
	c0.43,0.426,0.44,0.686,0.014,1.082c-0.134,0.118-0.268,0.235-0.406,0.347c-0.026,0.021-0.051,0.043-0.077,0.064
	c-0.66,0.528-1.37,0.98-2.179,1.282c-0.379,0.141-0.712,0.343-1.015,0.588c-0.073,0.052-0.135,0.122-0.204,0.18
	c-0.068,0.063-0.137,0.127-0.202,0.195c-0.101,0.1-0.214,0.18-0.306,0.294c-3.123,3.911-6.238,7.828-9.052,11.973
	c-0.108,0.159-0.205,0.33-0.404,0.397c-0.289,0.055-0.522,0.042-0.465-0.359c0.015-0.105,0.002-0.215,0.002-0.322
	c0-13.836,0.004-27.671-0.014-41.507c-0.001-0.587,0.146-0.732,0.732-0.731c13.836,0.018,27.671,0.017,41.507,0.002
	c0.532-0.001,0.718,0.08,0.717,0.681C155.433,34.658,155.436,48.536,155.445,62.415z"/>
</svg>
