<?xml version="1.0" encoding="utf-8"?>
<!-- Generator: Adobe Illustrator 16.0.0, SVG Export Plug-In . SVG Version: 6.00 Build 0)  -->
<!DOCTYPE svg PUBLIC "-//W3C//DTD SVG 1.1//EN" "http://www.w3.org/Graphics/SVG/1.1/DTD/svg11.dtd">
<svg version="1.1" id="图层_1" xmlns="http://www.w3.org/2000/svg" xmlns:xlink="http://www.w3.org/1999/xlink" x="0px" y="0px"
	 width="737.01px" height="850.39px" viewBox="0 0 737.01 850.39" enable-background="new 0 0 737.01 850.39" xml:space="preserve">
<path fill="#07A0A4" d="M736.44,347.464c0-84.033,0.001-168.065-0.001-252.099c0-8.66-4.762-13.483-13.325-13.483
	c-152.053-0.003-304.104-0.003-456.158,0c-8.584,0-13.361,4.81-13.363,13.447c-0.006,31.34-0.057,62.683,0.079,94.023
	c0.015,3.346-0.702,4.321-4.195,4.296c-24.497-0.168-48.996-0.046-73.493-0.129c-4.4-0.015-7.92,1.46-10.996,4.538
	C110.989,252.059,56.969,306.039,2.947,360.019c-2.638,2.636-3.956,5.693-3.954,9.516c0.047,76.779,0.028,153.558,0.044,230.337
	c0.001,7.473,5.105,12.462,12.676,12.479c10.949,0.024,21.902,0.194,32.844-0.099c3.662-0.098,4.717,1.122,5.255,4.531
	c10.812,68.404,77.834,112.606,144.57,94.042c47.463-13.206,75.637-45.438,84.741-93.958c0.702-3.739,1.916-4.619,5.621-4.607
	c51.322,0.144,102.646,0.098,153.969,0.098c7.521,0,7.521,0,8.833,7.278c15.105,83.839,113.862,123.492,182.595,73.191
	c25.806-18.887,41.435-44.276,46.44-75.95c0.597-3.773,1.887-4.7,5.609-4.625c13.408,0.268,26.839-0.287,40.229,0.25
	c8.198,0.33,14.191-5.909,14.168-14.173C736.347,514.709,736.44,431.087,736.44,347.464z M237.579,616.565
	c-8.45,33.833-38.577,57.475-73.384,57.379c-34.51-0.097-64.604-23.95-72.838-57.558c-0.829-3.383-0.13-4.118,3.269-4.098
	c23.251,0.131,46.505,0.069,69.757,0.069c23.253,0,46.505,0.067,69.757-0.069C237.658,612.266,238.48,612.955,237.579,616.565z
	 M249.161,571.377c-68.288-0.106-136.576-0.104-204.862,0c-3.337,0.004-4.306-0.688-4.298-4.188
	c0.12-60.896,0.099-121.794,0.04-182.693c-0.002-2.361,0.628-4.036,2.327-5.73c47.366-47.271,94.687-94.589,141.957-141.955
	c1.717-1.721,3.44-2.246,5.771-2.237c19.842,0.077,39.686,0.118,59.528-0.031c3.194-0.025,4.051,0.771,4.044,4.017
	c-0.106,54.875-0.076,109.752-0.076,164.629c0,54.603-0.045,109.204,0.1,163.807C253.701,570.753,252.627,571.381,249.161,571.377z
	 M634.977,616.675c-8.449,33.688-38.44,57.273-73.042,57.269c-34.594-0.003-64.593-23.603-73.035-57.284
	c-0.844-3.361-0.455-4.405,3.293-4.38c23.252,0.155,46.505,0.078,69.758,0.078c23.251,0,46.505,0.079,69.757-0.08
	C635.505,612.25,635.809,613.358,634.977,616.675z M691.068,571.395c-130.7-0.116-261.402-0.116-392.104,0
	c-3.728,0.002-4.396-1.021-4.394-4.513c0.091-146.441,0.092-292.881,0-439.321c-0.002-3.625,0.752-4.72,4.597-4.717
	c130.565,0.113,261.129,0.113,391.694,0c3.843-0.003,4.604,1.087,4.601,4.716c-0.106,73.219-0.079,146.439-0.079,219.66
	c0,73.221-0.027,146.439,0.08,219.66C695.469,570.373,694.8,571.397,691.068,571.395z"/>
</svg>
