<?xml version="1.0" encoding="utf-8"?>
<!-- Generator: Adobe Illustrator 18.0.0, SVG Export Plug-In . SVG Version: 6.00 Build 0)  -->
<!DOCTYPE svg PUBLIC "-//W3C//DTD SVG 1.1//EN" "http://www.w3.org/Graphics/SVG/1.1/DTD/svg11.dtd">
<svg version="1.1" id="图层_1" xmlns="http://www.w3.org/2000/svg" xmlns:xlink="http://www.w3.org/1999/xlink" x="0px" y="0px"
	 viewBox="0 0 216 132" enable-background="new 0 0 216 132" xml:space="preserve">
<g>
	<path fill="#07A0A4" d="M165.363,25.256c0-1.774-0.669-2.44-2.451-2.44c-14.736,0-29.472,0-44.208,0
		c-0.15,0-0.301-0.002-0.451,0.001c-1.181,0.027-1.978,0.811-2,1.984c-0.013,0.687-0.003,1.375-0.003,2.062
		c0.001,1.724,0.683,2.397,2.428,2.397c13.146,0,26.293,0.006,39.439-0.018c0.695-0.001,0.815,0.202,0.815,0.845
		c-0.016,28.935-0.014,57.87-0.014,86.805c0,0.215-0.005,0.43,0.002,0.644c0.034,1.137,0.824,1.93,1.964,1.954
		c0.687,0.014,1.375,0.003,2.062,0.003c1.738-0.001,2.417-0.677,2.417-2.408c0-15.316,0-30.632,0-45.948
		C165.363,55.845,165.363,40.551,165.363,25.256z"/>
	<path fill="#07A0A4" d="M53.058,19.078c18.323,0,36.647,0,54.97,0c18.259,0,36.518,0,54.777,0c0.193,0,0.387,0.004,0.58-0.001
		c1.145-0.03,1.95-0.811,1.973-1.944c0.018-0.859,0.02-1.719-0.001-2.578c-0.026-1.1-0.827-1.881-1.932-1.92
		c-0.15-0.005-0.301-0.002-0.451-0.002c-36.647,0-73.294,0-109.94,0c-0.108,0-0.215-0.001-0.322,0
		c-1.289,0.017-2.063,0.802-2.074,2.107c-0.005,0.644-0.001,1.289-0.001,1.933C50.638,18.402,51.317,19.078,53.058,19.078z"/>
	<path fill="#07A0A4" d="M112.125,71.195c0-15.317,0-30.634,0-45.951c0-1.744-0.675-2.427-2.399-2.427c-18.905,0-37.809,0-56.714,0
		c-1.684,0-2.374,0.694-2.374,2.388c0,30.698,0.006,61.397-0.022,92.096c-0.001,1.258,0.907,2.221,2.229,2.218
		c19.012-0.033,38.024-0.034,57.036,0.001c1.387,0.003,2.272-0.972,2.269-2.245C112.112,101.915,112.125,86.555,112.125,71.195z
		 M85.583,112.47c0.001,0.497-0.141,0.593-0.609,0.591c-4.555-0.018-9.109-0.011-13.664-0.011c-4.533,0-9.066-0.007-13.599,0.011
		c-0.489,0.002-0.643-0.101-0.642-0.623c0.018-8.658,0.018-17.316,0-25.974c-0.001-0.522,0.153-0.624,0.642-0.623
		c9.088,0.014,18.175,0.014,27.263,0c0.467-0.001,0.61,0.094,0.609,0.591C85.566,95.111,85.566,103.791,85.583,112.47z
		 M84.894,79.422c-9.045-0.022-18.089-0.022-27.134,0c-0.585,0.001-0.69-0.16-0.69-0.709c0.015-16.263,0.015-32.527,0-48.79
		c0-0.524,0.108-0.676,0.657-0.675c9.066,0.019,18.133,0.019,27.199,0c0.549-0.001,0.658,0.15,0.657,0.674
		c-0.018,8.143-0.012,16.285-0.012,24.427c0,8.121-0.006,16.242,0.013,24.363C85.584,79.26,85.48,79.423,84.894,79.422z
		 M92.001,29.972c-0.002-0.602,0.169-0.726,0.74-0.723c4.103,0.025,8.207,0.021,12.31,0.002c0.488-0.002,0.643,0.1,0.642,0.623
		c-0.015,16.306-0.015,32.612,0,48.919c0,0.521-0.151,0.627-0.641,0.624c-4.103-0.019-8.207-0.022-12.31,0.002
		c-0.57,0.003-0.743-0.119-0.741-0.723c0.023-8.121,0.015-16.242,0.015-24.363C92.016,46.213,92.023,38.092,92.001,29.972z
		 M105.689,89.486c0.012,0.401-0.106,0.504-0.503,0.5c-2.019-0.02-4.038-0.011-6.057-0.008c-1.466,0.002-2.211,0.752-2.215,2.223
		c-0.002,0.73-0.008,1.461,0.002,2.191c0.016,1.217,0.807,2.02,2.019,2.027c2.062,0.011,4.124,0.017,6.186-0.007
		c0.449-0.005,0.571,0.11,0.569,0.565c-0.017,5.176-0.017,10.353,0.001,15.529c0.002,0.468-0.143,0.557-0.579,0.555
		c-4.146-0.016-8.291-0.02-12.436,0.003c-0.525,0.003-0.677-0.11-0.674-0.658c0.025-4.317,0.014-8.635,0.014-12.952
		s0.011-8.635-0.014-12.952c-0.003-0.542,0.138-0.666,0.67-0.663c4.124,0.024,8.248,0.02,12.372,0.003
		c0.475-0.002,0.676,0.077,0.65,0.616C105.645,87.465,105.66,88.477,105.689,89.486z"/>
	<path fill="#07A0A4" d="M80.104,58.785c-0.837-0.014-1.675-0.017-2.511,0.001c-1.135,0.024-1.939,0.825-1.943,1.968
		c-0.013,3.241-0.013,6.483,0,9.724c0.005,1.14,0.813,1.94,1.948,1.963c0.794,0.017,1.588,0.008,2.383,0.003
		c1.333-0.009,2.103-0.786,2.108-2.132c0.005-1.567,0.001-3.134,0.001-4.701c0-1.61,0.01-3.22-0.004-4.83
		C82.076,59.601,81.279,58.804,80.104,58.785z"/>
	<path fill="#07A0A4" d="M80.122,89.982c-3.241-0.013-6.482-0.013-9.723,0c-1.167,0.005-1.953,0.825-1.97,2.008
		c-0.011,0.773-0.007,1.545-0.001,2.318c0.009,1.333,0.787,2.108,2.128,2.112c1.545,0.006,3.091,0.001,4.636,0.001
		c1.631,0,3.263,0.01,4.894-0.003c1.18-0.009,1.981-0.806,2.001-1.977c0.014-0.837,0.016-1.674-0.001-2.511
		C82.063,90.795,81.262,89.987,80.122,89.982z"/>
</g>
</svg>
