<?xml version="1.0" encoding="utf-8"?>
<!-- Generator: Adobe Illustrator 18.0.0, SVG Export Plug-In . SVG Version: 6.00 Build 0)  -->
<!DOCTYPE svg PUBLIC "-//W3C//DTD SVG 1.1//EN" "http://www.w3.org/Graphics/SVG/1.1/DTD/svg11.dtd">
<svg version="1.1" id="图层_1" xmlns="http://www.w3.org/2000/svg" xmlns:xlink="http://www.w3.org/1999/xlink" x="0px" y="0px"
	 viewBox="0 0 216 132" enable-background="new 0 0 216 132" xml:space="preserve">
<path fill="#07A0A4" d="M163.253,12.868c-18.325,0.035-36.651,0.023-54.976,0.023c-18.39,0-36.78,0-55.169,0
	c-1.434,0-2.212,0.755-2.212,2.161c-0.001,30.786-0.001,61.571,0,92.357c0,1.386,0.773,2.159,2.147,2.161
	c1.891,0.003,3.781,0.016,5.672-0.01c0.448-0.006,0.575,0.106,0.571,0.564c-0.023,2.513-0.012,5.027-0.011,7.541
	c0.001,1.317,0.758,2.089,2.054,2.089c4.555,0.002,9.109,0.002,13.663,0c1.432-0.001,2.196-0.757,2.198-2.174
	c0.004-2.471,0.014-4.941-0.01-7.412c-0.005-0.468,0.095-0.609,0.592-0.609c20.366,0.014,40.732,0.014,61.099,0
	c0.492,0,0.599,0.134,0.594,0.606c-0.024,2.513-0.013,5.027-0.011,7.541c0.001,1.269,0.772,2.047,2.031,2.048
	c4.555,0.002,9.109,0.002,13.663,0c1.472-0.001,2.221-0.748,2.222-2.216c0.003-2.471,0.013-4.941-0.01-7.412
	c-0.004-0.454,0.117-0.574,0.568-0.567c1.718,0.027,3.44-0.053,5.155,0.03c1.555,0.076,2.431-0.9,2.429-2.436
	c-0.028-30.678-0.027-61.356,0.002-92.035C165.516,13.815,164.609,12.865,163.253,12.868z M70.264,113.315
	c-0.687-0.021-1.375-0.006-2.062-0.006c-0.687,0-1.375-0.018-2.062,0.008c-0.35,0.013-0.434-0.112-0.428-0.441
	c0.019-0.966,0.016-1.933,0.001-2.9c-0.005-0.296,0.07-0.415,0.391-0.411c1.417,0.015,2.835,0.015,4.253,0
	c0.317-0.003,0.399,0.108,0.394,0.408c-0.016,0.966-0.025,1.934,0.003,2.899C70.767,113.27,70.599,113.325,70.264,113.315z
	 M104.487,103.141c-7.756-0.023-15.511-0.016-23.267-0.016c-7.734,0-15.468-0.008-23.202,0.015c-0.585,0.002-0.692-0.159-0.69-0.708
	c0.019-7.455,0.019-14.91,0-22.365c-0.001-0.524,0.109-0.675,0.657-0.674c15.511,0.016,31.023,0.016,46.534,0
	c0.548-0.001,0.659,0.149,0.658,0.674c-0.018,7.455-0.019,14.91,0,22.365C105.178,102.98,105.072,103.142,104.487,103.141z
	 M105.177,72.3c0.001,0.525-0.11,0.674-0.658,0.674c-15.511-0.016-31.023-0.016-46.534,0c-0.549,0.001-0.658-0.151-0.657-0.675
	c0.018-7.283,0.019-14.566,0-21.849c-0.001-0.55,0.106-0.71,0.691-0.708c7.756,0.023,15.511,0.015,23.267,0.015
	c7.734,0,15.468,0.008,23.203-0.016c0.586-0.002,0.691,0.161,0.69,0.709C105.158,57.734,105.158,65.017,105.177,72.3z M58.114,43.33
	c-0.667,0.001-0.791-0.178-0.789-0.807c0.023-7.498,0.021-14.996,0.002-22.494c-0.001-0.549,0.106-0.708,0.691-0.708
	c33.451,0.017,66.901,0.017,100.352,0c0.585,0,0.691,0.16,0.69,0.708c-0.019,7.519-0.019,15.039,0,22.558
	c0.001,0.57-0.12,0.74-0.723,0.74c-16.736-0.018-33.472-0.015-50.208-0.015C91.457,43.313,74.785,43.308,58.114,43.33z
	 M150.505,113.316c-0.708-0.026-1.417-0.008-2.126-0.008c-0.666,0-1.332-0.015-1.997,0.006c-0.336,0.011-0.503-0.045-0.492-0.443
	c0.028-0.966,0.019-1.933,0.003-2.899c-0.005-0.3,0.077-0.411,0.394-0.408c1.418,0.015,2.835,0.015,4.253,0
	c0.321-0.003,0.396,0.115,0.391,0.411c-0.015,0.966-0.018,1.933,0.001,2.9C150.939,113.204,150.854,113.329,150.505,113.316z
	 M159.062,102.415c0.002,0.603-0.171,0.723-0.74,0.722c-15.34-0.016-30.679-0.015-46.019,0c-0.548,0-0.709-0.104-0.709-0.69
	c0.019-17.338,0.019-34.675,0-52.013c-0.001-0.585,0.159-0.691,0.708-0.69c15.34,0.016,30.679,0.016,46.019,0
	c0.569,0,0.743,0.117,0.741,0.722c-0.022,8.658-0.015,17.316-0.015,25.974C159.047,85.099,159.04,93.757,159.062,102.415z"/>
</svg>
