<?xml version="1.0" encoding="utf-8"?>
<!-- Generator: Adobe Illustrator 18.0.0, SVG Export Plug-In . SVG Version: 6.00 Build 0)  -->
<!DOCTYPE svg PUBLIC "-//W3C//DTD SVG 1.1//EN" "http://www.w3.org/Graphics/SVG/1.1/DTD/svg11.dtd">
<svg version="1.1" id="图层_1" xmlns="http://www.w3.org/2000/svg" xmlns:xlink="http://www.w3.org/1999/xlink" x="0px" y="0px"
	 viewBox="0 0 216 132" enable-background="new 0 0 216 132" xml:space="preserve">
<g>
	<path fill="#07A0A4" d="M98.715,39.247c-0.272-1.15-0.552-2.489-0.917-3.804c-0.16-0.578-0.84-0.867-1.409-0.744
		c-0.607,0.132-1.115,0.693-1.003,1.302c0.243,1.322,0.542,2.636,0.888,3.934c0.157,0.59,0.808,0.886,1.387,0.777
		C98.276,40.597,98.717,40.063,98.715,39.247z"/>
	<path fill="#07A0A4" d="M92.659,40.53c-0.275-1.148-0.56-2.508-0.939-3.841c-0.161-0.566-0.876-0.832-1.435-0.685
		c-0.607,0.16-1.075,0.727-0.957,1.339c0.249,1.299,0.541,2.593,0.885,3.87c0.166,0.614,0.846,0.92,1.442,0.784
		C92.236,41.865,92.653,41.343,92.659,40.53z"/>
	<path fill="#07A0A4" d="M98.871,45.523c-0.613,0.115-1.053,0.649-1.052,1.467c0.271,1.15,0.55,2.489,0.914,3.805
		c0.16,0.578,0.838,0.869,1.408,0.745c0.608-0.132,1.118-0.694,1.007-1.301c-0.243-1.322-0.543-2.636-0.89-3.935
		C100.101,45.716,99.447,45.414,98.871,45.523z"/>
	<path fill="#07A0A4" d="M86.615,53.491c0.157,0.581,0.832,0.876,1.401,0.758c0.608-0.126,1.042-0.67,1.029-1.489
		c-0.272-1.144-0.551-2.484-0.92-3.798c-0.162-0.575-0.849-0.852-1.42-0.719c-0.609,0.142-1.102,0.705-0.987,1.315
		C85.967,50.879,86.265,52.194,86.615,53.491z"/>
	<path fill="#07A0A4" d="M86.571,41.897c-0.241-1.171-0.505-2.338-0.788-3.5c-0.154-0.633-0.655-1.009-1.246-1.011
		c-0.769-0.002-1.41,0.676-1.264,1.445c0.234,1.237,0.519,2.466,0.834,3.686c0.177,0.684,0.856,1.047,1.494,0.894
		C86.278,43.248,86.716,42.603,86.571,41.897z"/>
	<path fill="#07A0A4" d="M94.084,52.827c0.608-0.133,1.117-0.695,1.006-1.301c-0.243-1.321-0.543-2.635-0.888-3.934
		c-0.156-0.587-0.809-0.889-1.387-0.781c-0.61,0.113-1.055,0.652-1.053,1.469c0.271,1.146,0.552,2.485,0.916,3.8
		C92.836,52.656,93.518,52.95,94.084,52.827z"/>
	<path fill="#07A0A4" d="M165.51,75.19c-0.49-0.687-1.194-0.818-1.987-0.817c-31.752,0.007-63.505,0.006-95.257,0.01
		c-0.447,0-0.764,0.058-0.763-0.631c0.026-15.232,0.014-30.463,0.024-45.695c0.003-4.53,3.358-8.204,7.887-8.692
		c4.308-0.465,8.39,2.555,9.338,6.888c0.104,0.473,0.019,0.673-0.495,0.778c-1.806,0.37-3.604,0.783-5.399,1.206
		c-1.116,0.263-1.716,1.231-1.479,2.338c0.176,0.817,0.358,1.634,0.566,2.444c0.294,1.144,1.239,1.712,2.403,1.454
		c1.989-0.441,3.975-0.892,5.962-1.341c3.974-0.897,7.949-1.79,11.921-2.695c1.275-0.29,1.833-1.208,1.549-2.499
		c-0.166-0.754-0.327-1.509-0.517-2.257c-0.303-1.193-1.23-1.758-2.43-1.494c-1.633,0.359-3.273,0.695-4.893,1.107
		c-0.611,0.155-0.821,0.07-0.964-0.586c-1.429-6.55-7.154-11.416-13.825-11.798c-8.762-0.502-16.073,6.408-16.073,15.192
		c-0.001,15.189-0.004,30.377,0.014,45.566c0.001,0.599-0.164,0.732-0.738,0.725c-2.642-0.031-5.285-0.016-7.927-0.013
		c-1.394,0.002-2.168,0.764-2.176,2.133c-0.005,0.752-0.007,1.504,0.001,2.256c0.014,1.254,0.803,2.043,2.06,2.053
		c1.053,0.009,2.106,0.013,3.158-0.004c0.382-0.006,0.547,0.019,0.481,0.511c-0.799,5.968,0.039,11.702,2.742,17.09
		c3.888,7.75,10.033,12.88,18.338,15.397c0.414,0.126,0.579,0.275,0.561,0.734c-0.042,1.073-0.025,2.148-0.01,3.222
		c0.016,1.147,0.806,1.953,1.938,1.977c0.859,0.018,1.719,0.02,2.578-0.001c1.101-0.026,1.894-0.825,1.921-1.929
		c0.018-0.752,0.049-1.507-0.01-2.255c-0.048-0.611,0.173-0.723,0.74-0.722c15.275,0.016,30.549,0.012,45.824,0.012
		c0.086,0,0.174,0.011,0.258-0.002c0.382-0.057,0.529,0.069,0.512,0.485c-0.035,0.815-0.022,1.632-0.006,2.449
		c0.022,1.141,0.816,1.939,1.953,1.963c0.795,0.016,1.59,0.008,2.384,0.003c1.304-0.009,2.091-0.786,2.102-2.077
		c0.008-0.967,0.041-1.936-0.014-2.899c-0.03-0.524,0.183-0.679,0.635-0.807c9.006-2.553,15.496-8.086,19.391-16.587
		c2.404-5.249,3.04-10.781,2.215-16.491c0.088-0.038,0.108-0.053,0.127-0.053c1.246-0.006,2.492-0.012,3.737-0.013
		c0.692-0.001,1.254-0.259,1.654-0.829C166.052,79.24,166.042,75.935,165.51,75.19z M145.163,103.465
		c-3.376,2.824-7.349,4.369-11.707,4.927c-0.317,0.041-0.643,0.018-0.964,0.018c-15.941,0.001-31.882-0.024-47.823,0.019
		c-3.755,0.01-7.236-0.904-10.462-2.721c-6.848-3.857-10.827-9.731-11.928-17.516c-0.324-2.288-0.215-4.583,0.186-6.864
		c0.073-0.416,0.218-0.52,0.614-0.512c1.138,0.024,2.277,0.009,3.416,0.009c13.836,0,27.671,0,41.507,0
		c14.931,0,29.863,0.001,44.794-0.006c0.43,0,0.674,0.026,0.754,0.574C154.856,90.315,152.064,97.692,145.163,103.465z"/>
</g>
</svg>
