<?xml version="1.0" encoding="utf-8"?>
<!-- Generator: Adobe Illustrator 18.0.0, SVG Export Plug-In . SVG Version: 6.00 Build 0)  -->
<!DOCTYPE svg PUBLIC "-//W3C//DTD SVG 1.1//EN" "http://www.w3.org/Graphics/SVG/1.1/DTD/svg11.dtd">
<svg version="1.1" id="图层_1" xmlns="http://www.w3.org/2000/svg" xmlns:xlink="http://www.w3.org/1999/xlink" x="0px" y="0px"
	 viewBox="0 0 1024 1024" enable-background="new 0 0 1024 1024" xml:space="preserve">
<path fill="#07A0A4" d="M960.179,293.254c0.017-9.961-6.904-17.454-17.577-17.434C799.608,276.089,656.613,276,513.619,276
	c-143.161,0-286.322,0.084-429.482-0.175c-10.355-0.019-17.328,7.529-17.311,17.191c0.25,148.66,0.25,297.321,0,445.981
	c-0.016,9.591,6.905,17.182,17.324,17.174c286.155-0.214,572.31-0.216,858.465,0.006c10.571,0.008,17.582-7.387,17.565-17.442
	C959.919,590.242,959.92,441.747,960.179,293.254z M420.029,604.852c0.202,8.811,6.399,14.897,15.26,15.137
	c1.499,0.041,3,0.011,4.499,0.011c154.822,0,309.643,0.028,464.465-0.125c4.946-0.005,5.914,1.313,5.865,6.012
	c-0.255,24.662-0.265,49.33,0.004,73.992c0.054,4.909-0.983,6.256-6.135,6.253C660.174,705.981,416.36,706,172.546,706
	c-17.165,0-34.332-0.088-51.495,0.077c-3.298,0.032-4.123-0.92-4.119-4.159c0.088-78.661,0.115-157.322-0.045-235.982
	c-0.01-4.769,2.575-3.938,5.309-3.937C276.351,462,430.506,462,584.661,462c2.333,0,4.667,0.044,6.999-0.013
	c8.881-0.219,15.123-6.291,15.305-15.084c0.138-6.663,0.154-13.335-0.006-19.997c-0.205-8.529-6.419-14.597-14.996-14.888
	c-1.665-0.057-3.333-0.017-4.999-0.017c-154.655,0-309.31-0.031-463.965,0.134c-5.183,0.006-6.171-1.391-6.119-6.269
	c0.262-24.662,0.259-49.33,0-73.992c-0.05-4.724,0.958-6.004,5.88-5.998C253.083,326.032,383.406,326,513.73,326
	c130.157,0,260.314,0.031,390.47-0.121c4.85-0.006,5.929,1.162,5.919,5.953c-0.169,77.327-0.185,154.655,0.022,231.982
	c0.015,5.444-1.647,6.297-6.587,6.293C748.732,569.977,593.911,570,439.089,570c-13.882,0-19.086,5.142-19.088,18.853
	C420,594.187,419.907,599.522,420.029,604.852z"/>
</svg>
