<?xml version="1.0" encoding="utf-8"?>
<!-- Generator: Adobe Illustrator 18.0.0, SVG Export Plug-In . SVG Version: 6.00 Build 0)  -->
<!DOCTYPE svg PUBLIC "-//W3C//DTD SVG 1.1//EN" "http://www.w3.org/Graphics/SVG/1.1/DTD/svg11.dtd">
<svg version="1.1" id="图层_1" xmlns="http://www.w3.org/2000/svg" xmlns:xlink="http://www.w3.org/1999/xlink" x="0px" y="0px"
	 viewBox="0 0 216 132" enable-background="new 0 0 216 132" xml:space="preserve">
<g>
	<path fill="#07A0A4" d="M86.845,72.575c-2.814-0.003-5.628-0.002-8.443,0c-1.507,0.001-2.241,0.743-2.242,2.261
		c-0.002,2.207,0,4.414,0,6.776c-0.203-0.247-0.301-0.361-0.394-0.479c-5.542-7.088-11.08-14.179-16.634-21.258
		c-0.266-0.339-0.184-0.523,0.04-0.809c5.203-6.644,10.398-13.295,15.595-19.944c0.429-0.549,0.863-1.093,1.392-1.762
		c0,2.109,0.07,4.06-0.019,6.003c-0.096,2.092,0.819,2.814,2.77,2.808c13.77-0.044,27.54-0.019,41.311-0.037
		c0.612-0.001,0.837,0.093,0.818,0.78c-0.057,1.996-0.029,3.995-0.016,5.993c0.008,1.181,0.807,1.981,1.979,2.002
		c0.752,0.014,1.504,0.005,2.256,0.003c1.462-0.005,2.205-0.754,2.206-2.232c0.002-3.566-0.051-7.133,0.026-10.698
		c0.031-1.449-0.979-2.308-2.276-2.304c-13.985,0.038-27.97,0.02-41.955,0.037c-0.537,0.001-0.67-0.13-0.666-0.666
		c0.025-3.759,0.016-7.519,0.012-11.278c-0.002-1.337-0.784-2.109-2.126-2.118c-0.687-0.005-1.376,0.024-2.062-0.007
		c-0.923-0.042-1.584,0.35-2.143,1.065c-8.207,10.51-16.425,21.013-24.642,31.515c-0.661,0.845-0.668,1.675-0.008,2.517
		c3.323,4.243,6.645,8.488,9.966,12.733c4.881,6.242,9.764,12.482,14.636,18.732c0.461,0.591,1.009,0.891,1.761,0.867
		c0.751-0.024,1.504-0.005,2.255-0.005c1.655-0.001,2.363-0.699,2.363-2.333c0.001-3.695,0.009-7.39-0.01-11.085
		c-0.002-0.482,0.089-0.664,0.62-0.646c1.287,0.043,2.578,0.026,3.866,0.01c1.142-0.015,1.941-0.814,1.965-1.95
		c0.016-0.752,0.005-1.504,0.004-2.256C89.047,73.333,88.304,72.577,86.845,72.575z"/>
	<path fill="#07A0A4" d="M164.918,75.667c-2.252-2.872-4.507-5.742-6.755-8.617c-5.952-7.611-11.904-15.221-17.846-22.84
		c-0.474-0.608-1.026-0.927-1.809-0.901c-0.922,0.031-1.847,0.002-2.771,0.005c-1.466,0.004-2.213,0.753-2.214,2.224
		c-0.002,3.523-0.019,7.045,0.016,10.568c0.006,0.635-0.165,0.758-0.774,0.758c-13.231-0.019-26.462,0.001-39.693-0.038
		c-1.386-0.004-2.245,1.012-2.241,2.207c0.038,11.921,0.023,23.842,0.023,35.762c0,1.401,0.737,2.143,2.129,2.143
		c6.615,0,13.231,0,19.847,0c6.68,0,13.36,0.007,20.04-0.013c0.538-0.002,0.669,0.132,0.666,0.667
		c-0.026,3.608-0.018,7.217-0.011,10.825c0.003,1.255,0.801,2.042,2.058,2.054c0.816,0.008,1.638-0.061,2.447,0.016
		c1.164,0.11,1.9-0.394,2.598-1.29c8.072-10.368,16.176-20.711,24.273-31.059C165.536,77.327,165.545,76.466,164.918,75.667z
		 M157.346,77.32c-5.658,7.213-11.301,14.438-16.948,21.659c-0.102,0.13-0.216,0.251-0.43,0.498c0-0.617,0-1.098,0-1.579
		c0-1.718,0.002-3.437-0.001-5.155c-0.002-1.51-0.741-2.251-2.251-2.251c-13.209-0.001-26.418-0.005-39.627,0.014
		c-0.63,0.001-0.809-0.123-0.807-0.789c0.027-8.57,0.024-17.139,0.004-25.709c-0.001-0.589,0.15-0.73,0.733-0.729
		c13.188,0.018,26.375,0.014,39.563,0.013c1.693,0,2.386-0.689,2.387-2.373c0-2.147,0-4.293,0-6.44
		c0.04-0.021,0.08-0.042,0.12-0.063c1.028,1.31,2.059,2.619,3.084,3.932c4.72,6.039,9.436,12.081,14.167,18.111
		C157.599,76.789,157.612,76.982,157.346,77.32z"/>
</g>
</svg>
