<?xml version="1.0" encoding="utf-8"?>
<!-- Generator: Adobe Illustrator 18.0.0, SVG Export Plug-In . SVG Version: 6.00 Build 0)  -->
<!DOCTYPE svg PUBLIC "-//W3C//DTD SVG 1.1//EN" "http://www.w3.org/Graphics/SVG/1.1/DTD/svg11.dtd">
<svg version="1.1" id="图层_1" xmlns="http://www.w3.org/2000/svg" xmlns:xlink="http://www.w3.org/1999/xlink" x="0px" y="0px"
	 viewBox="0 0 216 132" enable-background="new 0 0 216 132" xml:space="preserve">
<path fill="#07A0A4" d="M88.341,66.114c12.568,0.02,25.136,0.015,37.705,0.015c2.814,0,5.629,0,8.443,0
	c9.732,0,19.465,0.001,29.197-0.001c1.429,0,2.187-0.759,2.192-2.181c0.003-0.752-0.006-1.504,0.003-2.256
	c0.006-0.471-0.13-0.892-0.415-1.259c-0.498-0.642-1.189-0.755-1.956-0.754c-25.029,0.008-50.058,0.004-75.087,0.021
	c-0.629,0-0.809-0.121-0.808-0.788c0.023-14.652,0.005-29.304,0.04-43.956c0.003-1.24-0.893-2.22-2.233-2.215
	c-10.978,0.041-21.957,0.042-32.935,0c-1.37-0.005-2.262,0.958-2.26,2.254c0.032,19.98,0.028,39.961,0.018,59.941
	c-0.002,4.331,0.375,8.621,1.301,12.852c2.719,12.425,8.821,22.891,18.253,31.421c0.32,0.289,0.637,0.427,1.082,0.427
	c24.793-0.011,49.586-0.011,74.378-0.002c0.415,0,0.721-0.116,1.03-0.391c5.871-5.248,10.517-11.418,13.905-18.524
	c3.03-6.356,4.836-13.049,5.456-20.068c0.271-3.067,0.214-6.137,0.227-9.208c0.007-1.821-0.654-2.476-2.478-2.476
	c-24.965,0-49.929,0-74.894,0c-0.172,0-0.345-0.014-0.515,0.003c-0.29,0.029-0.369-0.1-0.362-0.372
	c0.015-0.58,0.042-1.163-0.006-1.739C87.574,66.286,87.734,66.113,88.341,66.114z M57.405,19.195c7.777,0.018,15.554,0.018,23.331,0
	c0.496-0.001,0.594,0.14,0.592,0.609c-0.02,3.759-0.02,7.519,0,11.279c0.003,0.489-0.101,0.646-0.624,0.642
	c-3.888-0.024-7.777-0.013-11.665-0.013c-3.867,0-7.734-0.011-11.601,0.013c-0.522,0.003-0.627-0.152-0.624-0.642
	c0.02-3.759,0.019-7.519,0-11.279C56.811,19.336,56.908,19.193,57.405,19.195z M158.786,75.393c0.661-0.001,0.802,0.165,0.786,0.805
	c-0.368,14.319-5.598,26.542-15.742,36.663c-0.302,0.302-0.617,0.321-0.985,0.321c-11.558-0.003-23.115-0.002-34.673-0.002
	c-11.515,0-23.03-0.003-34.544,0.012c-0.513,0.001-0.873-0.134-1.238-0.496c-8.028-7.986-12.991-17.561-14.879-28.719
	c-0.455-2.687-0.697-5.4-0.694-8.135c0.014-12.31,0.011-24.619-0.009-36.929c-0.001-0.61,0.126-0.774,0.758-0.772
	c7.691,0.025,15.382,0.024,23.072,0.001c0.588-0.002,0.689,0.164,0.689,0.71c-0.016,11.45-0.013,22.901-0.012,34.351
	c0,1.491,0.713,2.208,2.194,2.208C108.603,75.41,133.695,75.413,158.786,75.393z"/>
</svg>
